<svg width="595" height="707" viewBox="0 0 595 707" fill="none" xmlns="http://www.w3.org/2000/svg">
<mask id="path-1-inside-1_654_54" fill="white">
<path fill-rule="evenodd" clip-rule="evenodd" d="M129.646 320.11L17.1002 536.612C7.66202 554.768 14.7293 577.138 32.8852 586.576L230.13 689.111C248.286 698.549 270.656 691.482 280.094 673.326L392.64 456.824C397.172 448.105 398.055 437.943 395.095 428.573L347.725 278.634C341.569 259.149 320.783 248.344 301.297 254.499L151.359 301.87C141.989 304.83 134.179 311.391 129.646 320.11ZM324.588 385.605C310.431 412.839 276.877 423.44 249.643 409.283C222.409 395.126 211.808 361.572 225.965 334.338C240.122 307.104 273.677 296.503 300.91 310.66C328.144 324.818 338.745 358.372 324.588 385.605ZM129.559 519.468C127.005 518.63 124.486 517.565 122.004 516.275C117.98 514.183 114.643 511.66 111.992 508.705C109.384 505.773 107.548 502.453 106.485 498.747C105.464 495.062 105.268 491.046 105.898 486.697C106.592 482.328 108.23 477.66 110.811 472.695L111.345 471.668L138.312 485.686L141.283 479.972L114.316 465.953L119.79 455.423L146.757 469.442L149.761 463.663L122.794 449.644L122.927 449.388C125.508 444.422 128.388 440.4 131.565 437.321C134.742 434.243 138.121 432.084 141.7 430.846C145.28 429.608 149.008 429.235 152.885 429.727C156.826 430.199 160.83 431.492 164.896 433.606C167.379 434.897 169.707 436.379 171.882 438.053C174.122 439.707 176.112 441.421 177.854 443.197L182.134 436.532C179.92 434.62 177.703 432.869 175.484 431.281C173.287 429.649 170.905 428.166 168.337 426.831C163.243 424.183 158.198 422.539 153.202 421.9C148.228 421.217 143.399 421.616 138.715 423.096C134.096 424.555 129.762 427.141 125.711 430.853C121.683 434.523 118.101 439.375 114.963 445.411L114.896 445.539L102.568 439.131L99.5645 444.909L111.892 451.318L106.418 461.848L94.0906 455.439L91.12 461.154L103.448 467.562L102.914 468.59C99.7763 474.625 97.8629 480.345 97.1736 485.75C96.5272 491.178 96.9224 496.222 98.3595 500.884C99.8616 505.526 102.31 509.707 105.703 513.429C109.14 517.173 113.384 520.357 118.435 522.983C121.003 524.318 123.618 525.46 126.278 526.408C128.982 527.378 131.635 528.132 134.237 528.669L137.2 521.401C134.704 520.974 132.157 520.329 129.559 519.468ZM202.499 557.385C199.945 556.547 197.426 555.482 194.943 554.191C190.92 552.1 187.582 549.577 184.932 546.622C182.324 543.689 180.488 540.37 179.424 536.663C178.404 532.979 178.208 528.963 178.837 524.614C179.532 520.244 181.17 515.577 183.751 510.612L184.285 509.584L211.252 523.603L214.223 517.888L187.256 503.87L192.729 493.34L219.697 507.358L222.701 501.58L195.733 487.561L195.867 487.304C198.448 482.339 201.327 478.317 204.505 475.238C207.682 472.16 211.06 470.001 214.64 468.763C218.22 467.524 221.948 467.152 225.824 467.644C229.765 468.116 233.769 469.409 237.836 471.523C240.318 472.814 242.647 474.296 244.822 475.97C247.061 477.624 249.052 479.338 250.793 481.113L255.073 474.449C252.859 472.536 250.643 470.786 248.424 469.198C246.227 467.566 243.844 466.083 241.276 464.748C236.182 462.1 231.138 460.456 226.142 459.816C221.168 459.134 216.339 459.533 211.655 461.012C207.036 462.472 202.701 465.058 198.651 468.77C194.623 472.439 191.04 477.292 187.903 483.327L187.836 483.456L175.508 477.047L172.504 482.826L184.832 489.234L179.358 499.764L167.03 493.356L164.06 499.07L176.387 505.479L175.853 506.506C172.716 512.542 170.803 518.262 170.113 523.667C169.467 529.095 169.862 534.139 171.299 538.801C172.801 543.442 175.249 547.624 178.643 551.345C182.08 555.089 186.323 558.274 191.374 560.9C193.943 562.235 196.557 563.376 199.218 564.325C201.921 565.295 204.574 566.049 207.177 566.586L210.139 559.318C207.643 558.89 205.096 558.246 202.499 557.385ZM275.439 595.302C272.884 594.463 270.366 593.399 267.883 592.108C263.859 590.016 260.522 587.493 257.871 584.539C255.263 581.606 253.428 578.287 252.364 574.58C251.343 570.896 251.147 566.879 251.777 562.531C252.471 558.161 254.109 553.494 256.691 548.528L257.225 547.501L284.192 561.52L287.162 555.805L260.195 541.787L265.669 531.257L292.636 545.275L295.64 539.497L268.673 525.478L268.807 525.221C271.388 520.256 274.267 516.234 277.444 513.155C280.621 510.076 284 507.918 287.58 506.679C291.16 505.441 294.888 505.068 298.764 505.561C302.705 506.033 306.709 507.326 310.775 509.44C313.258 510.73 315.587 512.213 317.761 513.887C320.001 515.54 321.991 517.255 323.733 519.03L328.013 512.365C325.799 510.453 323.583 508.703 321.363 507.114C319.167 505.483 316.784 504 314.216 502.665C309.122 500.017 304.077 498.373 299.081 497.733C294.108 497.051 289.279 497.449 284.595 498.929C279.976 500.389 275.641 502.974 271.591 506.687C267.563 510.356 263.98 515.209 260.842 521.244L260.776 521.373L248.448 514.964L245.444 520.743L257.772 527.151L252.298 537.681L239.97 531.273L236.999 536.987L249.327 543.396L248.793 544.423C245.656 550.459 243.742 556.179 243.053 561.584C242.406 567.011 242.802 572.056 244.239 576.718C245.741 581.359 248.189 585.541 251.583 589.262C255.019 593.006 259.263 596.191 264.314 598.817C266.882 600.152 269.497 601.293 272.158 602.241C274.861 603.212 277.514 603.966 280.116 604.503L283.079 597.235C280.583 596.807 278.036 596.163 275.439 595.302Z"/>
</mask>
<path fill-rule="evenodd" clip-rule="evenodd" d="M129.646 320.11L17.1002 536.612C7.66202 554.768 14.7293 577.138 32.8852 586.576L230.13 689.111C248.286 698.549 270.656 691.482 280.094 673.326L392.64 456.824C397.172 448.105 398.055 437.943 395.095 428.573L347.725 278.634C341.569 259.149 320.783 248.344 301.297 254.499L151.359 301.87C141.989 304.83 134.179 311.391 129.646 320.11ZM324.588 385.605C310.431 412.839 276.877 423.44 249.643 409.283C222.409 395.126 211.808 361.572 225.965 334.338C240.122 307.104 273.677 296.503 300.91 310.66C328.144 324.818 338.745 358.372 324.588 385.605ZM129.559 519.468C127.005 518.63 124.486 517.565 122.004 516.275C117.98 514.183 114.643 511.66 111.992 508.705C109.384 505.773 107.548 502.453 106.485 498.747C105.464 495.062 105.268 491.046 105.898 486.697C106.592 482.328 108.23 477.66 110.811 472.695L111.345 471.668L138.312 485.686L141.283 479.972L114.316 465.953L119.79 455.423L146.757 469.442L149.761 463.663L122.794 449.644L122.927 449.388C125.508 444.422 128.388 440.4 131.565 437.321C134.742 434.243 138.121 432.084 141.7 430.846C145.28 429.608 149.008 429.235 152.885 429.727C156.826 430.199 160.83 431.492 164.896 433.606C167.379 434.897 169.707 436.379 171.882 438.053C174.122 439.707 176.112 441.421 177.854 443.197L182.134 436.532C179.92 434.62 177.703 432.869 175.484 431.281C173.287 429.649 170.905 428.166 168.337 426.831C163.243 424.183 158.198 422.539 153.202 421.9C148.228 421.217 143.399 421.616 138.715 423.096C134.096 424.555 129.762 427.141 125.711 430.853C121.683 434.523 118.101 439.375 114.963 445.411L114.896 445.539L102.568 439.131L99.5645 444.909L111.892 451.318L106.418 461.848L94.0906 455.439L91.12 461.154L103.448 467.562L102.914 468.59C99.7763 474.625 97.8629 480.345 97.1736 485.75C96.5272 491.178 96.9224 496.222 98.3595 500.884C99.8616 505.526 102.31 509.707 105.703 513.429C109.14 517.173 113.384 520.357 118.435 522.983C121.003 524.318 123.618 525.46 126.278 526.408C128.982 527.378 131.635 528.132 134.237 528.669L137.2 521.401C134.704 520.974 132.157 520.329 129.559 519.468ZM202.499 557.385C199.945 556.547 197.426 555.482 194.943 554.191C190.92 552.1 187.582 549.577 184.932 546.622C182.324 543.689 180.488 540.37 179.424 536.663C178.404 532.979 178.208 528.963 178.837 524.614C179.532 520.244 181.17 515.577 183.751 510.612L184.285 509.584L211.252 523.603L214.223 517.888L187.256 503.87L192.729 493.34L219.697 507.358L222.701 501.58L195.733 487.561L195.867 487.304C198.448 482.339 201.327 478.317 204.505 475.238C207.682 472.16 211.06 470.001 214.64 468.763C218.22 467.524 221.948 467.152 225.824 467.644C229.765 468.116 233.769 469.409 237.836 471.523C240.318 472.814 242.647 474.296 244.822 475.97C247.061 477.624 249.052 479.338 250.793 481.113L255.073 474.449C252.859 472.536 250.643 470.786 248.424 469.198C246.227 467.566 243.844 466.083 241.276 464.748C236.182 462.1 231.138 460.456 226.142 459.816C221.168 459.134 216.339 459.533 211.655 461.012C207.036 462.472 202.701 465.058 198.651 468.77C194.623 472.439 191.04 477.292 187.903 483.327L187.836 483.456L175.508 477.047L172.504 482.826L184.832 489.234L179.358 499.764L167.03 493.356L164.06 499.07L176.387 505.479L175.853 506.506C172.716 512.542 170.803 518.262 170.113 523.667C169.467 529.095 169.862 534.139 171.299 538.801C172.801 543.442 175.249 547.624 178.643 551.345C182.08 555.089 186.323 558.274 191.374 560.9C193.943 562.235 196.557 563.376 199.218 564.325C201.921 565.295 204.574 566.049 207.177 566.586L210.139 559.318C207.643 558.89 205.096 558.246 202.499 557.385ZM275.439 595.302C272.884 594.463 270.366 593.399 267.883 592.108C263.859 590.016 260.522 587.493 257.871 584.539C255.263 581.606 253.428 578.287 252.364 574.58C251.343 570.896 251.147 566.879 251.777 562.531C252.471 558.161 254.109 553.494 256.691 548.528L257.225 547.501L284.192 561.52L287.162 555.805L260.195 541.787L265.669 531.257L292.636 545.275L295.64 539.497L268.673 525.478L268.807 525.221C271.388 520.256 274.267 516.234 277.444 513.155C280.621 510.076 284 507.918 287.58 506.679C291.16 505.441 294.888 505.068 298.764 505.561C302.705 506.033 306.709 507.326 310.775 509.44C313.258 510.73 315.587 512.213 317.761 513.887C320.001 515.54 321.991 517.255 323.733 519.03L328.013 512.365C325.799 510.453 323.583 508.703 321.363 507.114C319.167 505.483 316.784 504 314.216 502.665C309.122 500.017 304.077 498.373 299.081 497.733C294.108 497.051 289.279 497.449 284.595 498.929C279.976 500.389 275.641 502.974 271.591 506.687C267.563 510.356 263.98 515.209 260.842 521.244L260.776 521.373L248.448 514.964L245.444 520.743L257.772 527.151L252.298 537.681L239.97 531.273L236.999 536.987L249.327 543.396L248.793 544.423C245.656 550.459 243.742 556.179 243.053 561.584C242.406 567.011 242.802 572.056 244.239 576.718C245.741 581.359 248.189 585.541 251.583 589.262C255.019 593.006 259.263 596.191 264.314 598.817C266.882 600.152 269.497 601.293 272.158 602.241C274.861 603.212 277.514 603.966 280.116 604.503L283.079 597.235C280.583 596.807 278.036 596.163 275.439 595.302Z" fill="black"/>
<path d="M17.1002 536.612L23.675 540.03L23.675 540.03L17.1002 536.612ZM129.646 320.11L136.221 323.528L136.221 323.528L129.646 320.11ZM32.8852 586.576L36.303 580.001L36.303 580.001L32.8852 586.576ZM230.13 689.111L226.712 695.686L226.712 695.686L230.13 689.111ZM280.094 673.326L273.519 669.908L273.519 669.908L280.094 673.326ZM392.64 456.824L399.215 460.242L399.215 460.242L392.64 456.824ZM395.095 428.573L402.161 426.341L402.161 426.341L395.095 428.573ZM347.725 278.634L354.791 276.402L354.791 276.402L347.725 278.634ZM301.297 254.499L299.065 247.434L299.065 247.434L301.297 254.499ZM151.359 301.87L153.591 308.936L153.591 308.936L151.359 301.87ZM249.643 409.283L253.061 402.708L253.061 402.708L249.643 409.283ZM324.588 385.605L318.013 382.188L318.013 382.188L324.588 385.605ZM225.965 334.338L219.39 330.92L219.39 330.92L225.965 334.338ZM300.91 310.66L297.493 317.235L297.493 317.235L300.91 310.66ZM122.004 516.275L118.586 522.849L118.586 522.849L122.004 516.275ZM129.559 519.468L131.891 512.435L131.881 512.431L131.871 512.428L129.559 519.468ZM111.992 508.705L106.455 513.629L106.466 513.641L106.476 513.653L111.992 508.705ZM106.485 498.747L99.3437 500.725L99.3527 500.758L99.3621 500.791L106.485 498.747ZM105.898 486.697L98.5794 485.534L98.5713 485.585L98.564 485.635L105.898 486.697ZM110.811 472.695L117.386 476.113L117.386 476.113L110.811 472.695ZM111.345 471.668L114.763 465.093L108.188 461.675L104.77 468.25L111.345 471.668ZM138.312 485.686L134.895 492.261L141.469 495.679L144.887 489.104L138.312 485.686ZM141.283 479.972L147.858 483.39L151.276 476.815L144.701 473.397L141.283 479.972ZM114.316 465.953L107.741 462.535L104.323 469.11L110.898 472.528L114.316 465.953ZM119.79 455.423L123.208 448.848L116.633 445.43L113.215 452.005L119.79 455.423ZM146.757 469.442L143.339 476.017L149.914 479.434L153.332 472.86L146.757 469.442ZM149.761 463.663L156.336 467.081L159.754 460.506L153.179 457.088L149.761 463.663ZM122.794 449.644L116.219 446.227L112.801 452.801L119.376 456.219L122.794 449.644ZM122.927 449.388L129.502 452.806L129.502 452.806L122.927 449.388ZM131.565 437.321L126.408 432L126.408 432L131.565 437.321ZM141.7 430.846L139.278 423.843L139.278 423.843L141.7 430.846ZM152.885 429.727L151.95 437.078L151.977 437.082L152.003 437.085L152.885 429.727ZM164.896 433.606L161.478 440.181L161.478 440.181L164.896 433.606ZM171.882 438.053L167.362 443.925L167.421 443.97L167.481 444.015L171.882 438.053ZM177.854 443.197L172.564 448.386L179.069 455.017L184.089 447.201L177.854 443.197ZM182.134 436.532L188.369 440.536L191.843 435.126L186.977 430.924L182.134 436.532ZM175.484 431.281L171.066 437.23L171.118 437.269L171.171 437.306L175.484 431.281ZM168.337 426.831L171.754 420.256L171.754 420.256L168.337 426.831ZM153.202 421.9L152.195 429.241L152.228 429.246L152.261 429.25L153.202 421.9ZM138.715 423.096L136.483 416.03L136.483 416.03L138.715 423.096ZM125.711 430.853L130.702 436.331L130.71 436.323L130.718 436.316L125.711 430.853ZM114.963 445.411L121.538 448.829L121.538 448.828L114.963 445.411ZM114.896 445.539L111.478 452.114L118.053 455.532L121.471 448.957L114.896 445.539ZM102.568 439.131L105.986 432.556L99.4115 429.138L95.9936 435.713L102.568 439.131ZM99.5645 444.909L92.9896 441.491L89.5718 448.066L96.1466 451.484L99.5645 444.909ZM111.892 451.318L118.467 454.736L121.885 448.161L115.31 444.743L111.892 451.318ZM106.418 461.848L103.001 468.423L109.575 471.84L112.993 465.266L106.418 461.848ZM94.0906 455.439L97.5084 448.864L90.9336 445.447L87.5157 452.021L94.0906 455.439ZM91.12 461.154L84.5451 457.736L81.1273 464.311L87.7021 467.729L91.12 461.154ZM103.448 467.562L110.023 470.98L113.44 464.405L106.866 460.987L103.448 467.562ZM102.914 468.59L109.489 472.007L109.489 472.007L102.914 468.59ZM97.1736 485.75L89.823 484.813L89.8191 484.844L89.8155 484.874L97.1736 485.75ZM98.3595 500.884L91.2781 503.067L91.2934 503.117L91.3094 503.166L98.3595 500.884ZM105.703 513.429L100.228 518.422L100.236 518.431L100.244 518.44L105.703 513.429ZM118.435 522.983L121.853 516.408L121.853 516.408L118.435 522.983ZM126.278 526.408L128.782 519.433L128.774 519.431L128.766 519.428L126.278 526.408ZM134.237 528.669L132.739 535.927L138.773 537.172L141.099 531.466L134.237 528.669ZM137.2 521.401L144.062 524.198L147.544 515.655L138.451 514.098L137.2 521.401ZM194.943 554.191L191.525 560.766L191.525 560.766L194.943 554.191ZM202.499 557.385L204.83 550.351L204.82 550.348L204.81 550.345L202.499 557.385ZM184.932 546.622L179.394 551.546L179.405 551.558L179.416 551.57L184.932 546.622ZM179.424 536.663L172.283 538.642L172.292 538.675L172.302 538.707L179.424 536.663ZM178.837 524.614L171.519 523.45L171.511 523.501L171.504 523.552L178.837 524.614ZM183.751 510.612L177.176 507.194L177.176 507.194L183.751 510.612ZM184.285 509.584L187.703 503.01L181.128 499.592L177.71 506.167L184.285 509.584ZM211.252 523.603L207.834 530.178L214.409 533.596L217.827 527.021L211.252 523.603ZM214.223 517.888L220.798 521.306L224.215 514.731L217.641 511.314L214.223 517.888ZM187.256 503.87L180.681 500.452L177.263 507.027L183.838 510.445L187.256 503.87ZM192.729 493.34L196.147 486.765L189.572 483.347L186.155 489.922L192.729 493.34ZM219.697 507.358L216.279 513.933L222.854 517.351L226.271 510.776L219.697 507.358ZM222.701 501.58L229.275 504.998L232.693 498.423L226.118 495.005L222.701 501.58ZM195.733 487.561L189.159 484.144L185.741 490.718L192.316 494.136L195.733 487.561ZM195.867 487.304L189.292 483.887L189.292 483.887L195.867 487.304ZM214.64 468.763L217.063 475.766L217.063 475.766L214.64 468.763ZM225.824 467.644L224.89 474.995L224.916 474.999L224.943 475.002L225.824 467.644ZM237.836 471.523L234.418 478.098L234.418 478.098L237.836 471.523ZM244.822 475.97L240.301 481.842L240.36 481.887L240.42 481.931L244.822 475.97ZM250.793 481.113L245.503 486.303L252.009 492.934L257.028 485.118L250.793 481.113ZM255.073 474.449L261.309 478.453L264.783 473.043L259.917 468.84L255.073 474.449ZM248.424 469.198L244.006 475.147L244.058 475.185L244.111 475.223L248.424 469.198ZM241.276 464.748L244.694 458.173L244.694 458.173L241.276 464.748ZM226.142 459.816L225.134 467.158L225.167 467.162L225.2 467.167L226.142 459.816ZM211.655 461.012L213.887 468.078L213.887 468.078L211.655 461.012ZM198.651 468.77L203.641 474.248L203.65 474.24L203.658 474.233L198.651 468.77ZM187.903 483.327L194.477 486.746L194.477 486.745L187.903 483.327ZM187.836 483.456L184.418 490.031L190.993 493.448L194.411 486.874L187.836 483.456ZM175.508 477.047L178.926 470.473L172.351 467.055L168.933 473.63L175.508 477.047ZM172.504 482.826L165.929 479.408L162.511 485.983L169.086 489.401L172.504 482.826ZM184.832 489.234L191.407 492.652L194.825 486.077L188.25 482.66L184.832 489.234ZM179.358 499.764L175.94 506.339L182.515 509.757L185.933 503.182L179.358 499.764ZM167.03 493.356L170.448 486.781L163.873 483.363L160.455 489.938L167.03 493.356ZM164.06 499.07L157.485 495.653L154.067 502.227L160.642 505.645L164.06 499.07ZM176.387 505.479L182.962 508.897L186.38 502.322L179.805 498.904L176.387 505.479ZM175.853 506.506L182.428 509.924L182.428 509.924L175.853 506.506ZM170.113 523.667L162.763 522.73L162.759 522.76L162.755 522.791L170.113 523.667ZM171.299 538.801L164.218 540.984L164.233 541.033L164.249 541.083L171.299 538.801ZM178.643 551.345L173.168 556.338L173.176 556.347L173.184 556.356L178.643 551.345ZM191.374 560.9L187.957 567.475L187.957 567.475L191.374 560.9ZM199.218 564.325L201.721 557.35L201.713 557.347L201.705 557.344L199.218 564.325ZM207.177 566.586L205.679 573.843L211.713 575.089L214.039 569.383L207.177 566.586ZM210.139 559.318L217.001 562.115L220.484 553.572L211.391 552.014L210.139 559.318ZM267.883 592.108L264.465 598.683L264.465 598.683L267.883 592.108ZM275.439 595.302L277.77 588.268L277.76 588.265L277.75 588.261L275.439 595.302ZM257.871 584.539L252.334 589.463L252.345 589.475L252.355 589.487L257.871 584.539ZM252.364 574.58L245.223 576.559L245.232 576.591L245.241 576.624L252.364 574.58ZM251.777 562.531L244.459 561.367L244.451 561.418L244.443 561.469L251.777 562.531ZM256.691 548.528L263.265 551.946L263.265 551.946L256.691 548.528ZM257.225 547.501L260.642 540.926L254.068 537.508L250.65 544.083L257.225 547.501ZM284.192 561.52L280.774 568.094L287.349 571.512L290.767 564.938L284.192 561.52ZM287.162 555.805L293.737 559.223L297.155 552.648L290.58 549.23L287.162 555.805ZM260.195 541.787L253.62 538.369L250.202 544.944L256.777 548.362L260.195 541.787ZM265.669 531.257L269.087 524.682L262.512 521.264L259.094 527.839L265.669 531.257ZM292.636 545.275L289.218 551.85L295.793 555.268L299.211 548.693L292.636 545.275ZM295.64 539.497L302.215 542.914L305.633 536.34L299.058 532.922L295.64 539.497ZM268.673 525.478L262.098 522.06L258.68 528.635L265.255 532.053L268.673 525.478ZM268.807 525.221L275.381 528.639L275.381 528.639L268.807 525.221ZM277.444 513.155L282.601 518.477L282.601 518.477L277.444 513.155ZM298.764 505.561L297.83 512.912L297.856 512.915L297.883 512.918L298.764 505.561ZM310.775 509.44L314.193 502.865L314.193 502.865L310.775 509.44ZM317.761 513.887L313.241 519.759L313.3 519.804L313.36 519.848L317.761 513.887ZM323.733 519.03L318.443 524.219L324.948 530.851L329.968 523.034L323.733 519.03ZM328.013 512.365L334.248 516.369L337.722 510.96L332.857 506.757L328.013 512.365ZM321.363 507.114L316.946 513.063L316.998 513.102L317.05 513.14L321.363 507.114ZM314.216 502.665L310.798 509.239L310.798 509.239L314.216 502.665ZM299.081 497.733L298.074 505.075L298.107 505.079L298.14 505.083L299.081 497.733ZM284.595 498.929L286.827 505.995L286.827 505.995L284.595 498.929ZM271.591 506.687L276.581 512.165L276.589 512.157L276.597 512.149L271.591 506.687ZM260.842 521.244L267.417 524.662L267.417 524.662L260.842 521.244ZM260.776 521.373L257.358 527.947L263.932 531.365L267.35 524.79L260.776 521.373ZM248.448 514.964L251.866 508.389L245.291 504.971L241.873 511.546L248.448 514.964ZM245.444 520.743L238.869 517.325L235.451 523.9L242.026 527.318L245.444 520.743ZM257.772 527.151L264.346 530.569L267.764 523.994L261.189 520.576L257.772 527.151ZM252.298 537.681L248.88 544.256L255.455 547.674L258.872 541.099L252.298 537.681ZM239.97 531.273L243.388 524.698L236.813 521.28L233.395 527.855L239.97 531.273ZM236.999 536.987L230.424 533.569L227.007 540.144L233.581 543.562L236.999 536.987ZM249.327 543.396L255.902 546.814L259.32 540.239L252.745 536.821L249.327 543.396ZM248.793 544.423L242.218 541.005L242.218 541.005L248.793 544.423ZM243.053 561.584L235.702 560.647L235.698 560.677L235.695 560.708L243.053 561.584ZM244.239 576.718L237.157 578.901L237.173 578.95L237.189 578.999L244.239 576.718ZM251.583 589.262L246.107 594.255L246.115 594.264L246.124 594.273L251.583 589.262ZM264.314 598.817L260.896 605.391L260.896 605.391L264.314 598.817ZM272.158 602.241L274.661 595.267L274.653 595.264L274.645 595.261L272.158 602.241ZM280.116 604.503L278.618 611.76L284.653 613.006L286.978 607.3L280.116 604.503ZM283.079 597.235L289.941 600.032L293.423 591.489L284.33 589.931L283.079 597.235ZM23.675 540.03L136.221 323.528L123.071 316.692L10.5253 533.194L23.675 540.03ZM36.303 580.001C21.7783 572.45 16.1245 554.555 23.675 540.03L10.5253 533.194C-0.800448 554.982 7.68023 581.825 29.4673 593.151L36.303 580.001ZM233.548 682.536L36.303 580.001L29.4673 593.151L226.712 695.686L233.548 682.536ZM273.519 669.908C265.968 684.433 248.073 690.087 233.548 682.536L226.712 695.686C248.5 707.012 275.343 698.531 286.669 676.744L273.519 669.908ZM386.065 453.406L273.519 669.908L286.669 676.744L399.215 460.242L386.065 453.406ZM388.029 430.805C390.397 438.301 389.691 446.431 386.065 453.406L399.215 460.242C404.653 449.779 405.713 437.585 402.161 426.341L388.029 430.805ZM340.659 280.867L388.029 430.805L402.161 426.341L354.791 276.402L340.659 280.867ZM303.53 261.565C319.113 256.642 335.736 265.284 340.659 280.867L354.791 276.402C347.402 253.014 322.453 240.045 299.065 247.434L303.53 261.565ZM153.591 308.936L303.53 261.565L299.065 247.434L149.126 294.804L153.591 308.936ZM136.221 323.528C139.847 316.553 146.095 311.304 153.591 308.936L149.126 294.804C137.883 298.356 128.51 306.229 123.071 316.692L136.221 323.528ZM246.225 415.858C277.09 431.903 315.118 419.888 331.163 389.023L318.013 382.188C305.743 405.79 276.663 414.978 253.061 402.708L246.225 415.858ZM219.39 330.92C203.346 361.785 215.36 399.813 246.225 415.858L253.061 402.708C229.458 390.439 220.27 361.358 232.54 337.756L219.39 330.92ZM304.328 304.085C273.463 288.041 235.435 300.055 219.39 330.92L232.54 337.756C244.81 314.153 273.89 304.966 297.493 317.235L304.328 304.085ZM331.163 389.023C347.207 358.158 335.193 320.13 304.328 304.085L297.493 317.235C321.095 329.505 330.283 358.585 318.013 382.188L331.163 389.023ZM118.586 522.849C121.41 524.317 124.298 525.54 127.248 526.509L131.871 512.428C129.712 511.719 127.563 510.813 125.421 509.7L118.586 522.849ZM106.476 513.653C109.801 517.36 113.882 520.404 118.586 522.849L125.421 509.7C122.078 507.962 119.484 505.96 117.508 503.757L106.476 513.653ZM99.3621 500.791C100.737 505.583 103.123 509.883 106.455 513.629L117.529 503.781C115.645 501.662 114.359 499.323 113.607 496.703L99.3621 500.791ZM98.564 485.635C97.8093 490.849 98.0108 495.915 99.3437 500.725L113.626 496.768C112.917 494.21 112.727 491.242 113.231 487.759L98.564 485.635ZM104.236 469.277C101.381 474.771 99.4271 480.201 98.5794 485.534L113.216 487.86C113.757 484.454 115.08 480.55 117.386 476.113L104.236 469.277ZM104.77 468.25L104.236 469.277L117.386 476.113L117.92 475.085L104.77 468.25ZM141.73 479.111L114.763 465.093L107.927 478.242L134.895 492.261L141.73 479.111ZM134.708 476.554L131.738 482.268L144.887 489.104L147.858 483.39L134.708 476.554ZM110.898 472.528L137.865 486.547L144.701 473.397L117.734 459.378L110.898 472.528ZM113.215 452.005L107.741 462.535L120.891 469.371L126.365 458.841L113.215 452.005ZM150.175 462.867L123.208 448.848L116.372 461.998L143.339 476.017L150.175 462.867ZM143.186 460.245L140.182 466.024L153.332 472.86L156.336 467.081L143.186 460.245ZM119.376 456.219L146.343 470.238L153.179 457.088L126.212 443.07L119.376 456.219ZM116.352 445.97L116.219 446.227L129.369 453.062L129.502 452.806L116.352 445.97ZM126.408 432C122.531 435.757 119.208 440.476 116.352 445.97L129.502 452.806C131.809 448.368 134.245 445.043 136.722 442.643L126.408 432ZM139.278 423.843C134.517 425.49 130.233 428.293 126.408 432L136.722 442.643C139.251 440.192 141.724 438.679 144.123 437.849L139.278 423.843ZM153.819 422.376C148.849 421.745 143.97 422.22 139.278 423.843L144.123 437.849C146.591 436.995 149.168 436.725 151.95 437.078L153.819 422.376ZM168.314 427.031C163.577 424.569 158.718 422.963 153.766 422.37L152.003 437.085C154.933 437.436 158.083 438.416 161.478 440.181L168.314 427.031ZM176.402 432.182C173.875 430.236 171.177 428.52 168.314 427.031L161.478 440.181C163.581 441.274 165.54 442.522 167.362 443.925L176.402 432.182ZM183.143 438.007C181.097 435.921 178.802 433.952 176.283 432.092L167.481 444.015C169.441 445.462 171.128 446.922 172.564 448.386L183.143 438.007ZM175.899 432.528L171.618 439.192L184.089 447.201L188.369 440.536L175.899 432.528ZM171.171 437.306C173.195 438.755 175.235 440.364 177.29 442.14L186.977 430.924C184.605 428.875 182.212 426.984 179.798 425.255L171.171 437.306ZM164.919 433.406C167.158 434.57 169.203 435.847 171.066 437.23L179.902 425.332C177.371 423.452 174.652 421.763 171.754 420.256L164.919 433.406ZM152.261 429.25C156.28 429.764 160.492 431.105 164.919 433.406L171.754 420.256C165.994 417.262 160.116 415.314 154.143 414.55L152.261 429.25ZM140.948 430.162C144.562 429.02 148.283 428.704 152.195 429.241L154.209 414.558C148.173 413.73 142.237 414.212 136.483 416.03L140.948 430.162ZM130.718 436.316C134.079 433.236 137.49 431.254 140.948 430.162L136.483 416.03C130.703 417.856 125.444 421.046 120.704 425.39L130.718 436.316ZM121.538 448.828C124.369 443.383 127.457 439.287 130.702 436.331L120.721 425.375C115.91 429.758 111.832 435.367 108.388 441.993L121.538 448.828ZM121.471 448.957L121.538 448.829L108.388 441.993L108.321 442.121L121.471 448.957ZM99.1506 445.705L111.478 452.114L118.314 438.964L105.986 432.556L99.1506 445.705ZM106.139 448.327L109.143 442.548L95.9936 435.713L92.9896 441.491L106.139 448.327ZM115.31 444.743L102.982 438.334L96.1466 451.484L108.474 457.893L115.31 444.743ZM112.993 465.266L118.467 454.736L105.317 447.9L99.8436 458.43L112.993 465.266ZM90.6727 462.014L103.001 468.423L109.836 455.273L97.5084 448.864L90.6727 462.014ZM97.6948 464.572L100.665 458.857L87.5157 452.021L84.5451 457.736L97.6948 464.572ZM106.866 460.987L94.5378 454.579L87.7021 467.729L100.03 474.137L106.866 460.987ZM109.489 472.007L110.023 470.98L96.873 464.144L96.3389 465.172L109.489 472.007ZM104.524 486.688C105.079 482.334 106.658 477.453 109.489 472.007L96.3389 465.172C92.8949 471.797 90.6463 478.357 89.823 484.813L104.524 486.688ZM105.441 498.701C104.344 495.142 103.993 491.151 104.532 486.627L89.8155 484.874C89.0614 491.205 89.5014 497.303 91.2781 503.067L105.441 498.701ZM111.179 508.436C108.473 505.469 106.575 502.205 105.41 498.603L91.3094 503.166C93.1476 508.846 96.1456 513.945 100.228 518.422L111.179 508.436ZM121.853 516.408C117.477 514.133 113.949 511.454 111.162 508.418L100.244 518.44C104.331 522.891 109.291 526.581 115.017 529.558L121.853 516.408ZM128.766 519.428C126.432 518.596 124.128 517.591 121.853 516.408L115.017 529.558C117.878 531.045 120.803 532.323 123.791 533.388L128.766 519.428ZM135.735 521.412C133.5 520.951 131.183 520.295 128.782 519.433L123.775 533.382C126.78 534.461 129.769 535.313 132.739 535.927L135.735 521.412ZM130.338 518.604L127.375 525.872L141.099 531.466L144.062 524.198L130.338 518.604ZM127.228 526.502C130.15 527.471 133.058 528.21 135.948 528.705L138.451 514.098C136.349 513.737 134.163 513.188 131.891 512.435L127.228 526.502ZM191.525 560.766C194.349 562.234 197.237 563.457 200.188 564.426L204.81 550.345C202.652 549.636 200.502 548.73 198.361 547.617L191.525 560.766ZM179.416 551.57C182.741 555.276 186.822 558.321 191.525 560.766L198.361 547.617C195.018 545.878 192.424 543.877 190.448 541.674L179.416 551.57ZM172.302 538.707C173.677 543.5 176.063 547.8 179.394 551.546L190.469 541.698C188.585 539.579 187.299 537.24 186.547 534.619L172.302 538.707ZM171.504 523.552C170.749 528.766 170.95 533.832 172.283 538.642L186.565 534.685C185.857 532.127 185.667 529.159 186.171 525.675L171.504 523.552ZM177.176 507.194C174.32 512.688 172.367 518.118 171.519 523.45L186.156 525.777C186.697 522.371 188.019 518.467 190.326 514.03L177.176 507.194ZM177.71 506.167L177.176 507.194L190.326 514.03L190.86 513.002L177.71 506.167ZM214.67 517.028L187.703 503.01L180.867 516.159L207.834 530.178L214.67 517.028ZM207.648 514.471L204.677 520.185L217.827 527.021L220.798 521.306L207.648 514.471ZM183.838 510.445L210.805 524.463L217.641 511.314L190.673 497.295L183.838 510.445ZM186.155 489.922L180.681 500.452L193.83 507.288L199.304 496.758L186.155 489.922ZM223.114 500.784L196.147 486.765L189.312 499.915L216.279 513.933L223.114 500.784ZM216.126 498.162L213.122 503.941L226.271 510.776L229.275 504.998L216.126 498.162ZM192.316 494.136L219.283 508.155L226.118 495.005L199.151 480.986L192.316 494.136ZM189.292 483.887L189.159 484.144L202.308 490.979L202.442 490.722L189.292 483.887ZM199.348 469.917C195.47 473.674 192.148 478.393 189.292 483.887L202.442 490.722C204.748 486.285 207.184 482.96 209.661 480.56L199.348 469.917ZM212.218 461.76C207.457 463.407 203.173 466.21 199.348 469.917L209.661 480.56C212.191 478.109 214.664 476.595 217.063 475.766L212.218 461.76ZM226.758 460.293C221.788 459.662 216.909 460.137 212.218 461.76L217.063 475.766C219.531 474.912 222.108 474.642 224.89 474.995L226.758 460.293ZM241.254 464.948C236.516 462.485 231.658 460.88 226.705 460.287L224.943 475.002C227.873 475.353 231.022 476.333 234.418 478.098L241.254 464.948ZM249.342 470.099C246.815 468.153 244.116 466.436 241.254 464.948L234.418 478.098C236.521 479.191 238.479 480.439 240.301 481.842L249.342 470.099ZM256.083 475.924C254.036 473.838 251.742 471.869 249.223 470.009L240.42 481.931C242.38 483.379 244.067 484.839 245.503 486.303L256.083 475.924ZM248.838 470.444L244.558 477.109L257.028 485.118L261.309 478.453L248.838 470.444ZM244.111 475.223C246.134 476.672 248.174 478.281 250.23 480.057L259.917 468.84C257.545 466.792 255.152 464.901 252.737 463.172L244.111 475.223ZM237.858 471.323C240.097 472.487 242.143 473.763 244.006 475.147L252.842 463.248C250.311 461.369 247.592 459.679 244.694 458.173L237.858 471.323ZM225.2 467.167C229.22 467.681 233.431 469.021 237.858 471.323L244.694 458.173C238.934 455.179 233.055 453.231 227.083 452.466L225.2 467.167ZM213.887 468.078C217.502 466.936 221.223 466.621 225.134 467.158L227.149 452.475C221.113 451.647 215.176 452.129 209.423 453.947L213.887 468.078ZM203.658 474.233C207.018 471.152 210.429 469.171 213.887 468.078L209.423 453.947C203.643 455.773 198.384 458.963 193.644 463.307L203.658 474.233ZM194.477 486.745C197.308 481.3 200.396 477.204 203.641 474.248L193.661 463.292C188.849 467.675 184.772 473.284 181.328 479.91L194.477 486.745ZM194.411 486.874L194.477 486.746L181.328 479.909L181.261 480.038L194.411 486.874ZM172.09 483.622L184.418 490.031L191.254 476.881L178.926 470.473L172.09 483.622ZM179.079 486.244L182.083 480.465L168.933 473.63L165.929 479.408L179.079 486.244ZM188.25 482.66L175.922 476.251L169.086 489.401L181.414 495.809L188.25 482.66ZM185.933 503.182L191.407 492.652L178.257 485.817L172.783 496.347L185.933 503.182ZM163.612 499.931L175.94 506.339L182.776 493.19L170.448 486.781L163.612 499.931ZM170.634 502.488L173.605 496.774L160.455 489.938L157.485 495.653L170.634 502.488ZM179.805 498.904L167.477 492.496L160.642 505.645L172.97 512.054L179.805 498.904ZM182.428 509.924L182.962 508.897L169.813 502.061L169.279 503.088L182.428 509.924ZM177.464 524.605C178.019 520.251 179.597 515.37 182.428 509.924L169.279 503.088C165.834 509.714 163.586 516.274 162.763 522.73L177.464 524.605ZM178.38 536.618C177.283 533.058 176.933 529.067 177.471 524.544L162.755 522.791C162.001 529.122 162.441 535.22 164.218 540.984L178.38 536.618ZM184.118 546.352C181.413 543.386 179.515 540.122 178.349 536.519L164.249 541.083C166.087 546.763 169.085 551.862 173.168 556.338L184.118 546.352ZM194.792 554.325C190.416 552.05 186.889 549.37 184.102 546.334L173.184 556.356C177.27 560.808 182.231 564.498 187.957 567.475L194.792 554.325ZM201.705 557.344C199.371 556.513 197.067 555.508 194.792 554.325L187.957 567.475C190.818 568.962 193.743 570.24 196.73 571.305L201.705 557.344ZM208.675 559.329C206.44 558.868 204.123 558.212 201.721 557.35L196.714 571.299C199.72 572.378 202.709 573.23 205.679 573.843L208.675 559.329ZM203.278 556.521L200.315 563.789L214.039 569.383L217.001 562.115L203.278 556.521ZM200.168 564.419C203.09 565.388 205.998 566.126 208.888 566.622L211.391 552.014C209.289 551.654 207.103 551.104 204.83 550.351L200.168 564.419ZM264.465 598.683C267.289 600.151 270.177 601.374 273.128 602.342L277.75 588.261C275.591 587.553 273.442 586.646 271.301 585.533L264.465 598.683ZM252.355 589.487C255.68 593.193 259.761 596.238 264.465 598.683L271.301 585.533C267.957 583.795 265.364 581.793 263.387 579.59L252.355 589.487ZM245.241 576.624C246.617 581.417 249.002 585.716 252.334 589.463L263.409 579.614C261.525 577.496 260.239 575.157 259.487 572.536L245.241 576.624ZM244.443 561.469C243.689 566.683 243.89 571.748 245.223 576.559L259.505 572.601C258.796 570.043 258.606 567.076 259.111 563.592L244.443 561.469ZM250.116 545.111C247.26 550.604 245.306 556.035 244.459 561.367L259.095 563.694C259.637 560.288 260.959 556.383 263.265 551.946L250.116 545.111ZM250.65 544.083L250.116 545.111L263.265 551.946L263.799 550.919L250.65 544.083ZM287.61 554.945L260.642 540.926L253.807 554.076L280.774 568.094L287.61 554.945ZM280.587 552.387L277.617 558.102L290.767 564.938L293.737 559.223L280.587 552.387ZM256.777 548.362L283.744 562.38L290.58 549.23L263.613 535.212L256.777 548.362ZM259.094 527.839L253.62 538.369L266.77 545.205L272.244 534.675L259.094 527.839ZM296.054 538.7L269.087 524.682L262.251 537.831L289.218 551.85L296.054 538.7ZM289.065 536.079L286.061 541.857L299.211 548.693L302.215 542.914L289.065 536.079ZM265.255 532.053L292.222 546.071L299.058 532.922L272.091 518.903L265.255 532.053ZM262.232 521.803L262.098 522.06L275.248 528.896L275.381 528.639L262.232 521.803ZM272.288 507.833C268.41 511.591 265.088 516.31 262.232 521.803L275.381 528.639C277.688 524.202 280.124 520.877 282.601 518.477L272.288 507.833ZM285.157 499.676C280.396 501.323 276.113 504.127 272.288 507.833L282.601 518.477C285.13 516.026 287.604 514.512 290.002 513.682L285.157 499.676ZM299.698 498.21C294.728 497.578 289.849 498.054 285.157 499.676L290.002 513.682C292.47 512.829 295.047 512.558 297.83 512.912L299.698 498.21ZM314.193 502.865C309.456 500.402 304.598 498.796 299.645 498.203L297.883 512.918C300.813 513.269 303.962 514.25 307.358 516.015L314.193 502.865ZM322.282 508.015C319.754 506.07 317.056 504.353 314.193 502.865L307.358 516.015C309.46 517.108 311.419 518.356 313.241 519.759L322.282 508.015ZM329.023 513.841C326.976 511.754 324.682 509.785 322.163 507.926L313.36 519.848C315.32 521.296 317.007 522.755 318.443 524.219L329.023 513.841ZM321.778 508.361L317.498 515.026L329.968 523.034L334.248 516.369L321.778 508.361ZM317.05 513.14C319.074 514.588 321.114 516.198 323.17 517.973L332.857 506.757C330.484 504.708 328.091 502.817 325.677 501.089L317.05 513.14ZM310.798 509.239C313.037 510.403 315.083 511.68 316.946 513.063L325.781 501.165C323.251 499.286 320.531 497.596 317.634 496.09L310.798 509.239ZM298.14 505.083C302.159 505.598 306.371 506.938 310.798 509.239L317.634 496.09C311.873 493.095 305.995 491.148 300.022 490.383L298.14 505.083ZM286.827 505.995C290.441 504.853 294.162 504.538 298.074 505.075L300.089 490.392C294.053 489.564 288.116 490.046 282.362 491.863L286.827 505.995ZM276.597 512.149C279.958 509.069 283.369 507.088 286.827 505.995L282.362 491.863C276.582 493.689 271.324 496.879 266.584 501.224L276.597 512.149ZM267.417 524.662C270.248 519.216 273.336 515.12 276.581 512.165L266.6 501.209C261.789 505.592 257.712 511.201 254.267 517.826L267.417 524.662ZM267.35 524.79L267.417 524.662L254.267 517.826L254.201 517.955L267.35 524.79ZM245.03 521.539L257.358 527.947L264.193 514.798L251.866 508.389L245.03 521.539ZM252.019 524.161L255.023 518.382L241.873 511.546L238.869 517.325L252.019 524.161ZM261.189 520.576L248.862 514.168L242.026 527.318L254.354 533.726L261.189 520.576ZM258.872 541.099L264.346 530.569L251.197 523.733L245.723 534.263L258.872 541.099ZM236.552 537.848L248.88 544.256L255.716 531.106L243.388 524.698L236.552 537.848ZM243.574 540.405L246.545 534.691L233.395 527.855L230.424 533.569L243.574 540.405ZM252.745 536.821L240.417 530.412L233.581 543.562L245.909 549.971L252.745 536.821ZM255.368 547.841L255.902 546.814L242.752 539.978L242.218 541.005L255.368 547.841ZM250.404 562.521C250.959 558.167 252.537 553.287 255.368 547.841L242.218 541.005C238.774 547.63 236.526 554.19 235.702 560.647L250.404 562.521ZM251.32 574.535C250.223 570.975 249.872 566.984 250.411 562.46L235.695 560.708C234.941 567.039 235.381 573.137 237.157 578.901L251.32 574.535ZM257.058 584.269C254.353 581.303 252.455 578.039 251.289 574.436L237.189 578.999C239.027 584.68 242.025 589.779 246.107 594.255L257.058 584.269ZM267.732 592.242C263.356 589.967 259.828 587.287 257.042 584.251L246.124 594.273C250.21 598.725 255.17 602.415 260.896 605.391L267.732 592.242ZM274.645 595.261C272.311 594.43 270.007 593.424 267.732 592.242L260.896 605.391C263.758 606.879 266.683 608.157 269.67 609.222L274.645 595.261ZM281.615 597.246C279.38 596.784 277.063 596.129 274.661 595.267L269.654 609.216C272.659 610.295 275.648 611.147 278.618 611.76L281.615 597.246ZM276.217 594.438L273.254 601.706L286.978 607.3L289.941 600.032L276.217 594.438ZM273.107 602.336C276.03 603.304 278.937 604.043 281.828 604.538L284.33 589.931C282.228 589.571 280.043 589.021 277.77 588.268L273.107 602.336Z" fill="url(#paint0_angular_654_54)" mask="url(#path-1-inside-1_654_54)"/>
<path d="M285.358 341.975C285.358 341.975 438.377 312.84 485.211 278.835C552.236 230.171 557.5 140 504.909 80.2857C470.309 41 405 30.5002 329.234 87.6771C271.5 131.246 233.752 216 233.751 256.263" stroke="white" stroke-width="18.5254" stroke-linecap="round"/>
<defs>
<radialGradient id="paint0_angular_654_54" cx="0" cy="0" r="1" gradientUnits="userSpaceOnUse" gradientTransform="translate(230.504 447.407) rotate(117.467) scale(214.631 148.203)">
<stop offset="0.253125" stop-color="#EDB000"/>
<stop offset="0.503125" stop-color="#FFE290"/>
<stop offset="0.753125" stop-color="#EDB000"/>
<stop offset="1" stop-color="#FFDE80"/>
</radialGradient>
</defs>
</svg>
