<svg width="123" height="114" viewBox="0 0 123 114" fill="none" xmlns="http://www.w3.org/2000/svg">
<path fill-rule="evenodd" clip-rule="evenodd" d="M60.3133 50.9999H72.957C74.686 53.9889 77.9177 55.9999 81.6191 55.9999C82.6086 55.9999 83.5646 55.8562 84.4672 55.5885C85.7825 58.2047 88.4912 59.9999 91.6191 59.9999C94.8721 59.9999 97.6716 58.0584 98.922 55.2709C101.293 54.4396 103.349 52.9408 104.867 50.9999H113.659C117.767 50.9999 121.097 54.3302 121.097 58.4383C121.097 62.5464 117.767 65.8767 113.659 65.8767H76.6517C76.6517 65.8767 76.6518 65.8768 76.6518 65.8768H82.5665C86.7568 65.8768 90.1537 69.2737 90.1537 73.464C90.1537 77.6543 86.7568 81.0512 82.5665 81.0512H80.8682C84.8541 81.0977 88.0709 84.3434 88.0709 88.3403C88.0709 92.3662 84.8072 95.6299 80.7813 95.6299H76.6519L76.6299 95.6679C80.382 96.0477 83.3103 99.2159 83.3103 103.068C83.3103 107.176 79.98 110.507 75.8719 110.507H51.0588C51.0292 110.507 50.9996 110.507 50.9699 110.507C50.9395 110.507 50.9091 110.507 50.8786 110.507C37.3382 110.507 25.9102 101.462 22.3072 89.0848H0V72.4227H22.307C24.0864 66.3096 27.7745 61.0094 32.6831 57.2102C32.7121 57.18 32.7415 57.15 32.7713 57.1202L45.3947 44.4968C47.7186 42.1729 51.4863 42.1729 53.8102 44.4968L60.3133 50.9999Z" fill="url(#paint0_radial_687_71)"/>
<path d="M53.0509 18.9587L82.3217 18.6697L48.2573 37.6595L41.4404 25.4312L53.0509 18.9587Z" fill="#A9223C"/>
<path d="M40.6828 24.0725L75.6966 4.55351C76.179 4.28459 76.3521 3.67553 76.0832 3.19314L75.8456 2.76697C75.5884 2.30555 75.7539 1.72297 76.2153 1.46575C76.6767 1.20852 77.2593 1.37405 77.5165 1.83547L87.2972 19.3804C87.5544 19.8418 87.3889 20.4244 86.9275 20.6816C86.4661 20.9388 85.8835 20.7733 85.6263 20.3119L85.3887 19.8857C85.1198 19.4033 84.5107 19.2303 84.0283 19.4992L49.0145 39.0182C48.5321 39.2871 47.923 39.1141 47.6541 38.6317L40.2962 25.4329C40.0273 24.9505 40.2004 24.3415 40.6828 24.0725Z" stroke="white" stroke-linejoin="round"/>
<path d="M93.6191 43C93.6191 45.7614 91.3806 48 88.6191 48C85.8577 48 83.6191 45.7614 83.6191 43C83.6191 40.2386 86.6191 33 88.6191 28C90.6191 33 93.6191 40.2386 93.6191 43Z" fill="#A9223C"/>
<defs>
<radialGradient id="paint0_radial_687_71" cx="0" cy="0" r="1" gradientUnits="userSpaceOnUse" gradientTransform="translate(88.119 52) rotate(90.4035) scale(71.0017 122.91)">
<stop stop-color="#AC1341"/>
<stop offset="1" stop-color="#80FF00"/>
</radialGradient>
</defs>
</svg>
