<svg width="2060" height="1605" viewBox="0 0 2060 1605" fill="none" xmlns="http://www.w3.org/2000/svg">
<path d="M1174.24 600.173L1149.95 619.109L1178.65 630.283L1384.21 710.308L1400.43 716.624L1406.83 700.433C1447.17 598.372 1474.59 487.887 1467.34 374.971C1460.06 261.656 1417.92 146.945 1320.92 36.84C1315.64 30.8382 1308.85 24.4531 1300.57 21.8986C1295.87 20.4475 1290.31 20.128 1284.7 22.2226C1279.25 24.2548 1275.47 27.9199 1272.97 31.3786C1268.39 37.7132 1266.27 45.8865 1265.02 52.9389C1263.68 60.5548 1262.92 69.5939 1262.5 79.5005C1261.53 102.284 1262.31 133.442 1263.19 168.736C1263.81 193.36 1264.47 219.998 1264.63 247.208C1265.03 314.7 1262.43 388.032 1249.27 452.515C1236.02 517.465 1212.68 570.212 1174.24 600.173Z" fill="#FFB4AA" stroke="black" stroke-width="35"/>
<path d="M885.227 600.173L909.522 619.109L880.818 630.283L675.262 710.308L659.038 716.624L652.639 700.433C612.152 598.008 588.932 490.805 598.292 379.638C607.668 268.295 649.634 154.144 737.725 37.8416C742.891 31.0214 748.962 24.2955 756.085 20.6518C759.984 18.6569 765.303 17.0217 771.386 17.9834C777.681 18.9785 782.383 22.3675 785.536 26.0011C790.981 32.2767 793.196 40.8387 794.418 47.401C795.792 54.7772 796.555 63.6417 796.973 73.3701C797.934 95.6812 797.164 126.697 796.286 162.084C795.668 186.985 794.996 214.05 794.836 241.769C794.44 310.173 797.039 384.888 810.209 450.533C823.486 516.709 846.857 570.267 885.227 600.173Z" fill="#FFB4AA" stroke="black" stroke-width="35"/>
<path d="M1335.07 185.496C1302.11 141.222 1348.39 557.074 1190.6 660.694L1360.6 743.51C1442.71 576.789 1481.45 382.133 1335.07 185.496Z" fill="#FF8A7B"/>
<path d="M724.396 185.496C757.354 141.222 711.079 557.074 868.869 660.694L698.864 743.51C616.759 576.789 578.014 382.133 724.396 185.496Z" fill="#FF8A7B"/>
<path d="M1346.87 687.434L1316.24 690.509L1334.55 715.257L1485.42 919.111L1495.78 933.11L1509.83 922.818C1712.71 774.186 1902.02 557.889 1831.97 226.116C1829.91 216.353 1826.67 206.625 1820.59 199.627C1817.29 195.827 1812.86 192.507 1807.21 190.866C1801.56 189.224 1796.1 189.674 1791.41 191.078C1782.81 193.654 1775.47 199.827 1769.62 205.801C1763.4 212.166 1756.95 220.351 1750.35 229.641C1733.6 253.22 1713.17 287.956 1690.04 327.284C1677.39 348.779 1663.94 371.647 1649.85 394.814C1609.33 461.396 1562.53 532.202 1510.66 587.794C1458.45 643.744 1403.44 681.757 1346.87 687.434Z" fill="#FFB4AA" stroke="black" stroke-width="35"/>
<path d="M712.596 687.434L743.231 690.509L724.915 715.257L574.047 919.111L563.687 933.11L549.638 922.818C447.995 848.353 353.911 757.912 291.982 644.05C229.861 529.836 200.608 392.972 227.346 226.948C228.863 217.532 231.486 207.784 237.146 200.686C240.28 196.757 244.72 193.178 250.631 191.517C256.501 189.868 262.044 190.608 266.547 192.163C274.732 194.99 281.725 201.275 287.265 207.199C293.226 213.572 299.49 221.742 305.969 231.029C321.431 253.191 340.442 285.233 362.043 321.641C375.936 345.057 390.901 370.28 406.683 395.842C447.655 462.207 495.177 532.746 547.643 588.119C600.449 643.851 655.963 681.75 712.596 687.434Z" fill="#FFB4AA" stroke="black" stroke-width="35"/>
<path d="M1755.99 376.349C1751.04 313.118 1541.42 745.653 1324.5 749.65L1439.14 934.34C1621.08 822.626 1777.96 657.184 1755.99 376.349Z" fill="#FF8A7B"/>
<path d="M303.48 376.349C308.426 313.118 518.049 745.653 734.964 749.65L620.326 934.34C438.385 822.626 281.511 657.184 303.48 376.349Z" fill="#FF8A7B"/>
<path d="M1513.35 861.117L1484.71 849.817L1489.66 880.206L1520.95 1072.55L1523.75 1089.74L1540.95 1087.03C1732.5 1056.82 1938.56 974.798 2009.47 721.697C2011.65 713.942 2013.13 705.349 2011.44 697.44C2010.52 693.136 2008.54 688.529 2004.79 684.637C2000.99 680.7 1996.39 678.546 1991.98 677.565C1984.02 675.792 1975.86 677.643 1969.6 679.656C1962.79 681.844 1955.28 685.238 1947.42 689.272C1927.21 699.647 1900.21 716.746 1869.8 735.999C1854.04 745.982 1837.36 756.543 1820.24 767.047C1769.07 798.437 1712.32 830.435 1657.6 850.243C1602.41 870.224 1552.56 876.586 1513.35 861.117Z" fill="#FFB4AA" stroke="black" stroke-width="35"/>
<path d="M546.118 861.118L574.758 849.818L569.814 880.207L538.518 1072.55L535.722 1089.74L518.519 1087.03C326.671 1056.77 124.757 973.587 50.0691 721.955C47.8385 714.44 46.1956 705.913 47.8556 698.007C48.7678 693.662 50.7917 688.981 54.6993 685.084C58.6292 681.165 63.3327 679.168 67.6898 678.326C75.5333 676.812 83.5512 678.774 89.7107 680.836C96.4308 683.087 103.885 686.513 111.708 690.573C131.281 700.73 157.367 717.175 186.786 735.722C203.27 746.115 220.802 757.167 238.821 768.143C290.031 799.337 346.873 831.06 401.664 850.641C456.927 870.391 506.871 876.602 546.118 861.118Z" fill="#FFB4AA" stroke="black" stroke-width="35"/>
<path d="M1873.81 805.013C1892.69 760.082 1597.26 981.74 1447.69 908.117L1460.98 1074.62C1624.58 1062.36 1789.97 1004.57 1873.81 805.013Z" fill="#FF8A7B"/>
<path d="M185.655 805.013C166.776 760.082 462.21 981.74 611.782 908.117L598.488 1074.62C434.89 1062.36 269.502 1004.57 185.655 805.013Z" fill="#FF8A7B"/>
<path d="M1425.77 680.046C1384.29 642.368 1323.27 615.167 1254.26 597.315C1184.95 579.388 1106.09 570.51 1027.5 570.51C948.912 570.51 870.052 579.388 800.742 597.315C731.723 615.167 670.712 642.368 629.232 680.046C547.922 753.902 498.027 878.818 480.077 1011.95C462.079 1145.45 475.72 1290.46 524.878 1406.81C551.881 1470.72 625.266 1515.16 714.536 1543.72C804.925 1572.64 916.504 1586.9 1027.5 1586.9C1138.49 1586.9 1250.07 1572.64 1340.46 1543.72C1429.73 1515.16 1503.12 1470.72 1530.12 1406.81C1579.28 1290.46 1592.92 1145.45 1574.92 1011.95C1556.97 878.818 1507.08 753.902 1425.77 680.046Z" fill="#FEDFDA" stroke="black" stroke-width="35"/>
<path fill-rule="evenodd" clip-rule="evenodd" d="M1559.75 1218.87C1552.4 1283.04 1537.26 1344.94 1514 1400C1497.65 1438.7 1461.15 1470.76 1411.39 1496.2C1330.83 1484.3 1269 1414.87 1269 1331C1269 1238.77 1343.77 1164 1436 1164C1485.07 1164 1529.2 1185.17 1559.75 1218.87Z" fill="#FFA5D0"/>
<path fill-rule="evenodd" clip-rule="evenodd" d="M493.999 1217.87C501.358 1282.04 516.494 1343.94 539.755 1399C556.104 1437.7 592.608 1469.76 642.361 1495.2C722.926 1483.3 784.754 1413.87 784.754 1330C784.754 1237.77 709.985 1163 617.754 1163C568.682 1163 524.553 1184.17 493.999 1217.87Z" fill="#FFA5D0"/>
<ellipse cx="1306.25" cy="1152.5" rx="135.887" ry="197.91" transform="rotate(-10 1306.25 1152.5)" fill="black"/>
<ellipse cx="727.747" cy="1152.5" rx="135.887" ry="197.91" transform="rotate(10 727.747 1152.5)" fill="black"/>
<path d="M822 1352L856.699 1373.44C891.548 1394.97 934.966 1397.28 971.895 1379.55L982.037 1374.68C1011.58 1360.49 1046.24 1361.86 1074.57 1378.33V1378.33C1106.03 1396.6 1144.98 1396.15 1175.99 1377.13L1217 1352" stroke="black" stroke-width="35" stroke-linecap="round"/>
<circle cx="1337" cy="1075" r="57" fill="white"/>
<circle cx="765" cy="1075" r="57" fill="white"/>
</svg>
