<svg width="181" height="148" viewBox="0 0 181 148" fill="none" xmlns="http://www.w3.org/2000/svg">
<g filter="url(#filter0_d_685_27)">
<path d="M68.2966 82.9183C68.94 71.4467 74.5483 61.3106 83.0457 54.1484C91.361 47.1077 102.529 42.7983 114.79 42.7983C126.99 42.7983 138.158 47.1016 146.473 54.1484C154.971 61.3106 160.555 71.4467 161.222 82.9183C161.866 94.6933 157.125 105.679 148.84 113.813C140.343 122.067 128.325 127.287 114.79 127.287C101.255 127.287 89.176 122.104 80.7393 113.813C72.424 105.679 67.6896 94.7541 68.3573 82.979L68.2966 82.9183Z" fill="white"/>
</g>
<path d="M93.7254 81.5137C94.0561 75.6186 96.9381 70.4097 101.305 66.7292C105.578 63.111 111.317 60.8965 117.618 60.8965C123.887 60.8965 129.626 63.1079 133.899 66.7292C138.266 70.4097 141.136 75.6186 141.479 81.5137C141.809 87.5648 139.373 93.2103 135.116 97.3899C130.749 101.632 124.573 104.314 117.618 104.314C110.662 104.314 104.455 101.65 100.12 97.3899C95.8464 93.2103 93.4135 87.596 93.7566 81.5449L93.7254 81.5137Z" fill="url(#paint0_linear_685_27)"/>
<path d="M56.2961 93.9897C56.3367 96.2979 57.0728 100.79 58.1769 104.283C60.4975 111.706 64.4463 118.568 69.9048 124.588C75.5191 130.795 82.4435 135.786 90.4284 139.342C98.8188 143.053 107.927 144.956 117.377 144.956C126.828 144.944 135.936 143.01 144.326 139.248C152.311 135.661 159.236 130.671 164.85 124.432C170.34 118.35 174.27 111.488 176.578 104.065C177.748 100.322 178.487 96.5162 178.783 92.7109C179.073 88.968 178.952 85.1939 178.418 81.4198C177.377 74.0899 174.831 67.1967 170.932 60.9585C167.377 55.1881 162.76 50.1664 157.271 45.9244L157.283 45.9151L102.075 3.4953C102.025 3.45788 101.985 3.41729 101.932 3.38298C98.3135 0.600744 92.2001 0.610117 88.2388 3.39859C84.2152 6.21826 83.7473 10.8844 87.3343 13.8164L87.3187 13.832L110.369 32.5778L40.1891 32.6526H40.0955C34.294 32.6588 28.7108 36.458 27.6191 41.2926C26.4838 46.1896 30.4263 50.2755 36.4773 50.2755L36.468 50.2974L72.0257 50.2288L8.39614 98.8867C8.31504 98.946 8.2277 99.0083 8.15284 99.0676C2.16416 103.653 0.230321 111.295 4.00443 116.098C7.84092 120.995 15.9817 121.026 22.0328 116.126L56.6548 87.7422C56.6548 87.7422 56.1495 91.5787 56.1901 93.8556L56.2961 93.9897ZM145.502 106.809C138.36 114.077 128.347 118.225 117.555 118.225C106.732 118.244 96.7197 114.171 89.5769 106.903C86.0835 103.347 83.5259 99.2922 81.9351 94.9567C80.3849 90.6835 79.783 86.1608 80.1822 81.6069C80.5596 77.1466 81.8883 72.8734 84.0187 69.0369C86.1022 65.2628 88.9781 61.8318 92.5026 58.9311C99.4582 53.2855 108.285 50.1975 117.518 50.1975C126.782 50.1851 135.609 53.22 142.564 58.8686C146.089 61.7507 148.958 65.1693 151.048 68.9434C153.178 72.7799 154.51 77.0218 154.885 81.5133C155.278 86.0672 154.676 90.5899 153.125 94.8631C151.541 99.2298 148.977 103.285 145.484 106.841L145.502 106.809Z" fill="url(#paint1_linear_685_27)"/>
<defs>
<filter id="filter0_d_685_27" x="64.2949" y="42.7983" width="100.984" height="92.4883" filterUnits="userSpaceOnUse" color-interpolation-filters="sRGB">
<feFlood flood-opacity="0" result="BackgroundImageFix"/>
<feColorMatrix in="SourceAlpha" type="matrix" values="0 0 0 0 0 0 0 0 0 0 0 0 0 0 0 0 0 0 127 0" result="hardAlpha"/>
<feOffset dy="4"/>
<feGaussianBlur stdDeviation="2"/>
<feComposite in2="hardAlpha" operator="out"/>
<feColorMatrix type="matrix" values="0 0 0 0 0 0 0 0 0 0 0 0 0 0 0 0 0 0 0.25 0"/>
<feBlend mode="normal" in2="BackgroundImageFix" result="effect1_dropShadow_685_27"/>
<feBlend mode="normal" in="SourceGraphic" in2="effect1_dropShadow_685_27" result="shape"/>
</filter>
<linearGradient id="paint0_linear_685_27" x1="117.617" y1="60.8965" x2="117.617" y2="104.314" gradientUnits="userSpaceOnUse">
<stop stop-color="#1C4064"/>
<stop offset="1" stop-color="#3577B7"/>
</linearGradient>
<linearGradient id="paint1_linear_685_27" x1="90.5024" y1="1.30176" x2="90.5024" y2="144.956" gradientUnits="userSpaceOnUse">
<stop stop-color="#B95D00"/>
<stop offset="1" stop-color="#FF8100"/>
</linearGradient>
</defs>
</svg>
