<svg width="1777" height="2729" viewBox="0 0 1777 2729" fill="none" xmlns="http://www.w3.org/2000/svg">
<mask id="path-1-outside-1_609_36" maskUnits="userSpaceOnUse" x="0" y="1398" width="1777" height="1331" fill="black">
<rect fill="white" y="1398" width="1777" height="1331"/>
<path fill-rule="evenodd" clip-rule="evenodd" d="M1752 1423H25L121 2433H121.001C121 2433.17 121 2433.33 121 2433.5C121 2582.89 464.621 2704 888.5 2704C1312.38 2704 1656 2582.89 1656 2433.5C1656 2433.33 1656 2433.17 1656 2433H1656L1752 1423Z"/>
</mask>
<path fill-rule="evenodd" clip-rule="evenodd" d="M1752 1423H25L121 2433H121.001C121 2433.17 121 2433.33 121 2433.5C121 2582.89 464.621 2704 888.5 2704C1312.38 2704 1656 2582.89 1656 2433.5C1656 2433.33 1656 2433.17 1656 2433H1656L1752 1423Z" fill="url(#paint0_linear_609_36)"/>
<path d="M25 1423V1398C17.9581 1398 11.2428 1400.97 6.50487 1406.18C1.76695 1411.39 -0.554153 1418.36 0.112171 1425.37L25 1423ZM1752 1423L1776.89 1425.37C1777.55 1418.36 1775.23 1411.39 1770.5 1406.18C1765.76 1400.97 1759.04 1398 1752 1398V1423ZM121 2433L96.1122 2435.37C97.3319 2448.2 108.109 2458 121 2458V2433ZM121.001 2433L146.001 2433.13C146.035 2426.48 143.416 2420.08 138.724 2415.37C134.032 2410.65 127.654 2408 121.001 2408V2433ZM1656 2433V2408C1649.35 2408 1642.97 2410.65 1638.28 2415.37C1633.58 2420.08 1630.96 2426.48 1631 2433.13L1656 2433ZM1656 2433V2458C1668.89 2458 1679.67 2448.2 1680.89 2435.37L1656 2433ZM25 1448H1752V1398H25V1448ZM145.888 2430.63L49.8878 1420.63L0.112171 1425.37L96.1122 2435.37L145.888 2430.63ZM121.001 2408H121V2458H121.001V2408ZM146 2433.5C146 2433.38 146 2433.25 146.001 2433.13L96.0016 2432.87C96.0005 2433.08 96 2433.29 96 2433.5H146ZM888.5 2679C678.621 2679 489.685 2648.98 354.106 2601.19C286.203 2577.26 233.03 2549.34 197.318 2519.58C161.462 2489.71 146 2460.5 146 2433.5H96C96 2481.2 123.491 2523.15 165.31 2558C207.273 2592.96 266.498 2623.33 337.485 2648.35C479.686 2698.47 674.501 2729 888.5 2729V2679ZM1631 2433.5C1631 2460.5 1615.54 2489.71 1579.68 2519.58C1543.97 2549.34 1490.8 2577.26 1422.89 2601.19C1287.31 2648.98 1098.38 2679 888.5 2679V2729C1102.5 2729 1297.31 2698.47 1439.51 2648.35C1510.5 2623.33 1569.73 2592.96 1611.69 2558C1653.51 2523.15 1681 2481.2 1681 2433.5H1631ZM1631 2433.13C1631 2433.26 1631 2433.38 1631 2433.5H1681C1681 2433.28 1681 2433.07 1681 2432.87L1631 2433.13ZM1656 2408H1656V2458H1656V2408ZM1727.11 1420.63L1631.11 2430.63L1680.89 2435.37L1776.89 1425.37L1727.11 1420.63Z" fill="url(#paint1_linear_609_36)" mask="url(#path-1-outside-1_609_36)"/>
<path d="M888.5 1740.5C1127.98 1740.5 1345.32 1706.29 1503.24 1650.6C1582.15 1622.78 1646.89 1589.36 1692.15 1551.63C1737.33 1513.95 1764.5 1470.72 1764.5 1423.5C1764.5 1376.28 1737.33 1333.05 1692.15 1295.37C1646.89 1257.64 1582.15 1224.22 1503.24 1196.4C1345.32 1140.71 1127.98 1106.5 888.5 1106.5C649.02 1106.5 431.675 1140.71 273.756 1196.4C194.853 1224.22 130.112 1257.64 84.8536 1295.37C39.6667 1333.05 12.5 1376.28 12.5 1423.5C12.5 1470.72 39.6667 1513.95 84.8536 1551.63C130.112 1589.36 194.853 1622.78 273.756 1650.6C431.675 1706.29 649.02 1740.5 888.5 1740.5Z" fill="url(#paint2_linear_609_36)" stroke="url(#paint3_linear_609_36)" stroke-width="25"/>
<path fill-rule="evenodd" clip-rule="evenodd" d="M41.7588 1483.5C120.776 1344.06 469.844 1239 888.5 1239C1307.15 1239 1656.22 1344.06 1735.24 1483.5C1656.22 1622.94 1307.15 1728 888.5 1728C469.844 1728 120.776 1622.94 41.7588 1483.5Z" fill="#73ADC1"/>
<path d="M606 1452.02C606 1498.09 516.238 1527 465.5 1527C414.762 1527 325 1501.11 325 1452.02C325 1379.11 387.904 1320 465.5 1320C543.096 1320 606 1379.11 606 1452.02Z" fill="#8BCFE7"/>
<path d="M985 1456.01C985 1471.36 1015.03 1481 1032 1481C1048.97 1481 1079 1472.37 1079 1456.01C1079 1431.7 1057.96 1412 1032 1412C1006.04 1412 985 1431.7 985 1456.01Z" fill="#8BCFE7"/>
<path d="M1454 1509.34C1454 1563.2 1348.91 1597 1289.5 1597C1230.09 1597 1125 1566.73 1125 1509.34C1125 1424.1 1198.65 1355 1289.5 1355C1380.35 1355 1454 1424.1 1454 1509.34Z" fill="#8BCFE7"/>
<path d="M941 1339.88C941 1363.92 894.043 1379 867.5 1379C840.957 1379 794 1365.49 794 1339.88C794 1301.84 826.907 1271 867.5 1271C908.093 1271 941 1301.84 941 1339.88Z" fill="#8BCFE7"/>
<path d="M700 1475.66C700 1493.69 735.138 1505 755 1505C774.862 1505 810 1494.87 810 1475.66C810 1447.13 785.376 1424 755 1424C724.624 1424 700 1447.13 700 1475.66Z" fill="#8BCFE7"/>
<path d="M1111.95 434.461L1265 130L1183.41 454.63C1164.55 529.634 1186.6 609.023 1241.44 663.562C1319.12 740.831 1327.85 863.581 1261.88 951.066L1041 1244L1194.05 939.539C1236.38 855.333 1219.82 753.463 1153 687C1086.18 620.537 1069.62 518.667 1111.95 434.461Z" fill="#8BCFE7" fill-opacity="0.5"/>
<path d="M791.95 304.461L945 0L863.405 324.63C844.553 399.634 866.604 479.023 921.436 533.562C999.121 610.831 1007.85 733.581 941.884 821.066L721 1114L874.051 809.539C916.38 725.333 899.821 623.463 833 557C766.179 490.537 749.62 388.667 791.95 304.461Z" fill="#8BCFE7" fill-opacity="0.5"/>
<path d="M471.95 404.461L625 100L543.405 424.63C524.553 499.634 546.604 579.023 601.436 633.562C679.121 710.831 687.851 833.581 621.884 921.066L401 1214L554.051 909.539C596.38 825.333 579.821 723.463 513 657C446.179 590.537 429.62 488.667 471.95 404.461Z" fill="#8BCFE7" fill-opacity="0.5"/>
<defs>
<linearGradient id="paint0_linear_609_36" x1="25" y1="1885" x2="1752" y2="1867" gradientUnits="userSpaceOnUse">
<stop stop-color="#C8C8C8"/>
<stop offset="0.794792" stop-color="#4B4B4B"/>
<stop offset="1" stop-color="#757575"/>
</linearGradient>
<linearGradient id="paint1_linear_609_36" x1="82.5" y1="2063" x2="1678.5" y2="2063" gradientUnits="userSpaceOnUse">
<stop stop-color="#C3C3C3"/>
<stop offset="0.466667"/>
<stop offset="1" stop-color="#6E6E6E"/>
</linearGradient>
<linearGradient id="paint2_linear_609_36" x1="25" y1="1423" x2="1752" y2="1423" gradientUnits="userSpaceOnUse">
<stop stop-color="#212121"/>
<stop offset="1" stop-color="#747474"/>
</linearGradient>
<linearGradient id="paint3_linear_609_36" x1="25" y1="1423" x2="1752" y2="1423" gradientUnits="userSpaceOnUse">
<stop stop-color="#6B6B6B"/>
<stop offset="0.659375" stop-color="white"/>
<stop offset="1" stop-color="#BCBCBC"/>
</linearGradient>
</defs>
</svg>
