<svg width="736" height="581" viewBox="0 0 736 581" fill="none" xmlns="http://www.w3.org/2000/svg">
<rect x="66" y="66" width="606" height="442" fill="#512E2E"/>
<rect x="42" y="21" width="654" height="60" fill="url(#paint0_linear_517_318)"/>
<rect width="681" height="27" rx="5" transform="matrix(1 0 0 -1 28 27)" fill="#934C4C"/>
<path d="M172 290.688V499H566V290.688L535.158 278.538C428.415 236.487 309.585 236.487 202.841 278.538L172 290.688Z" fill="url(#paint1_linear_517_318)"/>
<path d="M414.366 337C414.366 337 426.715 383.184 407.47 396.424C398.07 402.89 379 402.967 379 402.967L384.305 499H407.47H468.41C482.212 499 492.509 486.461 489.157 473.072C484.21 453.316 476.334 426.317 466.354 407.035C450.696 376.784 414.366 337 414.366 337Z" fill="url(#paint2_radial_517_318)"/>
<path d="M422.075 387.977C439.004 374.461 476.638 368 476.638 368C476.638 368 443.436 383.112 437.967 402.65C429.302 433.606 490.161 431.168 493.767 463.112C495.357 477.2 488.293 499 488.293 499H397C397 499 421.173 485.174 419.956 463.819C419.053 447.985 409.737 447.63 407.065 431.997C403.655 412.05 406.27 400.594 422.075 387.977Z" fill="url(#paint3_radial_517_318)"/>
<path d="M304.627 399.685C305.856 395.441 310.292 392.996 314.536 394.224L493.01 445.878C497.329 447.128 499.77 451.691 498.412 455.978L486.515 493.551C485.462 496.876 482.376 499.136 478.888 499.136L408.428 499.136C407.645 499.136 406.865 499.021 406.115 498.794L293.977 464.925C289.782 463.658 287.387 459.252 288.606 455.043L304.627 399.685Z" fill="url(#paint4_linear_517_318)"/>
<rect x="232" y="440" width="103" height="59" rx="8" fill="url(#paint5_linear_517_318)"/>
<path d="M241.227 452.751C240.497 462.747 241.227 468.991 247.953 479.23C252.424 486.034 255.387 499 255.387 499H406.728C406.728 499 426.552 443.925 419.472 403.502C414.392 374.496 375.049 363.635 380.885 334.773C386.5 307 401.5 303.5 401.5 303.5C401.5 303.5 361 305.5 348.67 336.6C342.567 351.991 347.237 371.264 348.936 387.73C352.205 419.397 344.953 443.925 344.953 443.925C344.953 443.925 345.478 423.08 339.819 411.622C333.362 398.545 312.914 385.673 312.914 385.673C312.914 385.673 317.243 419.212 308.135 437.57C275.566 433.157 275.566 402.09 275.566 402.09C275.566 402.09 242.966 428.934 241.227 452.751Z" fill="url(#paint6_radial_517_318)"/>
<g filter="url(#filter0_di_517_318)">
<rect x="639" y="84" width="40" height="46" rx="5" fill="#7E4040"/>
<rect x="639" y="184" width="40" height="46" rx="5" fill="#7E4040"/>
<rect x="639" y="284" width="40" height="46" rx="5" fill="#7E4040"/>
<rect x="639" y="384" width="40" height="46" rx="5" fill="#7E4040"/>
<rect x="639" y="484" width="40" height="46" rx="5" fill="#7E4040"/>
<rect x="55" y="133" width="40" height="46" rx="5" fill="#7E4040"/>
<rect x="55" y="233" width="40" height="46" rx="5" fill="#7E4040"/>
<rect x="55" y="333" width="40" height="46" rx="5" fill="#7E4040"/>
<rect x="55" y="433" width="40" height="46" rx="5" fill="#7E4040"/>
<rect x="542" y="84" width="93" height="46" rx="5" fill="#7E4040"/>
<rect x="542" y="184" width="93" height="46" rx="5" fill="#7E4040"/>
<rect x="542" y="284" width="93" height="46" rx="5" fill="#7E4040"/>
<rect x="542" y="384" width="93" height="46" rx="5" fill="#7E4040"/>
<rect x="542" y="484" width="93" height="46" rx="5" fill="#7E4040"/>
<rect x="347" y="84" width="93" height="46" rx="5" fill="#7E4040"/>
<rect x="347" y="184" width="93" height="46" rx="5" fill="#7E4040"/>
<rect x="152" y="84" width="93" height="46" rx="5" fill="#7E4040"/>
<rect x="152" y="184" width="93" height="46" rx="5" fill="#7E4040"/>
<rect x="445" y="84" width="93" height="46" rx="5" fill="#7E4040"/>
<rect x="445" y="184" width="93" height="46" rx="5" fill="#7E4040"/>
<rect x="250" y="84" width="93" height="46" rx="5" fill="#7E4040"/>
<rect x="250" y="184" width="93" height="46" rx="5" fill="#7E4040"/>
<rect x="55" y="84" width="93" height="46" rx="5" fill="#7E4040"/>
<rect x="55" y="184" width="93" height="46" rx="5" fill="#7E4040"/>
<rect x="55" y="284" width="93" height="46" rx="5" fill="#7E4040"/>
<rect x="55" y="384" width="93" height="46" rx="5" fill="#7E4040"/>
<rect x="55" y="484" width="93" height="46" rx="5" fill="#7E4040"/>
<rect x="586" y="133" width="93" height="46" rx="5" fill="#7E4040"/>
<rect x="586" y="233" width="93" height="46" rx="5" fill="#7E4040"/>
<rect x="586" y="333" width="93" height="46" rx="5" fill="#7E4040"/>
<rect x="586" y="433" width="93" height="46" rx="5" fill="#7E4040"/>
<rect x="391" y="133" width="93" height="46" rx="5" fill="#7E4040"/>
<rect x="196" y="133" width="93" height="46" rx="5" fill="#7E4040"/>
<rect x="196" y="233" width="93" height="46" rx="5" fill="#7E4040"/>
<rect x="489" y="133" width="93" height="46" rx="5" fill="#7E4040"/>
<rect x="489" y="233" width="93" height="46" rx="5" fill="#7E4040"/>
<rect x="294" y="133" width="93" height="46" rx="5" fill="#7E4040"/>
<rect x="99" y="133" width="93" height="46" rx="5" fill="#7E4040"/>
<rect x="99" y="233" width="93" height="46" rx="5" fill="#7E4040"/>
<rect x="99" y="333" width="93" height="46" rx="5" fill="#7E4040"/>
<rect x="99" y="433" width="93" height="46" rx="5" fill="#7E4040"/>
</g>
<rect x="24" y="508" width="688" height="73" fill="url(#paint7_linear_517_318)"/>
<rect y="499" width="736" height="25" rx="5" fill="#934C4C"/>
<path fill-rule="evenodd" clip-rule="evenodd" d="M525.652 301.829C425.016 262.074 312.984 262.074 212.348 301.829L197.111 307.848V499.494H540.889V307.848L525.652 301.829ZM194.272 256.257C306.521 211.914 431.479 211.914 543.728 256.257L590 274.536V524H148V274.536L194.272 256.257Z" fill="url(#paint8_radial_517_318)"/>
<defs>
<filter id="filter0_di_517_318" x="45" y="84" width="644" height="466" filterUnits="userSpaceOnUse" color-interpolation-filters="sRGB">
<feFlood flood-opacity="0" result="BackgroundImageFix"/>
<feColorMatrix in="SourceAlpha" type="matrix" values="0 0 0 0 0 0 0 0 0 0 0 0 0 0 0 0 0 0 127 0" result="hardAlpha"/>
<feOffset dy="10"/>
<feGaussianBlur stdDeviation="5"/>
<feComposite in2="hardAlpha" operator="out"/>
<feColorMatrix type="matrix" values="0 0 0 0 0 0 0 0 0 0 0 0 0 0 0 0 0 0 0.25 0"/>
<feBlend mode="normal" in2="BackgroundImageFix" result="effect1_dropShadow_517_318"/>
<feBlend mode="normal" in="SourceGraphic" in2="effect1_dropShadow_517_318" result="shape"/>
<feColorMatrix in="SourceAlpha" type="matrix" values="0 0 0 0 0 0 0 0 0 0 0 0 0 0 0 0 0 0 127 0" result="hardAlpha"/>
<feOffset dy="2"/>
<feGaussianBlur stdDeviation="1"/>
<feComposite in2="hardAlpha" operator="arithmetic" k2="-1" k3="1"/>
<feColorMatrix type="matrix" values="0 0 0 0 0 0 0 0 0 0 0 0 0 0 0 0 0 0 0.25 0"/>
<feBlend mode="normal" in2="shape" result="effect2_innerShadow_517_318"/>
</filter>
<linearGradient id="paint0_linear_517_318" x1="369" y1="21" x2="369" y2="81" gradientUnits="userSpaceOnUse">
<stop stop-color="#522A2A"/>
<stop offset="0.348958" stop-color="#934C4C"/>
</linearGradient>
<linearGradient id="paint1_linear_517_318" x1="369" y1="247" x2="369" y2="499" gradientUnits="userSpaceOnUse">
<stop/>
<stop offset="1" stop-color="#543524"/>
</linearGradient>
<radialGradient id="paint2_radial_517_318" cx="0" cy="0" r="1" gradientUnits="userSpaceOnUse" gradientTransform="translate(413.835 337) rotate(81.8624) scale(163.648 117.181)">
<stop stop-color="#FF0000"/>
<stop offset="1" stop-color="#FF9900"/>
</radialGradient>
<radialGradient id="paint3_radial_517_318" cx="0" cy="0" r="1" gradientUnits="userSpaceOnUse" gradientTransform="translate(445.56 407.424) rotate(90.0375) scale(91.5763 67.8084)">
<stop stop-color="#FF0000"/>
<stop offset="1" stop-color="#FF9900"/>
</radialGradient>
<linearGradient id="paint4_linear_517_318" x1="403.87" y1="420.079" x2="393.746" y2="496.636" gradientUnits="userSpaceOnUse">
<stop stop-color="#A97E55"/>
<stop offset="0.552083" stop-color="#563D25"/>
<stop offset="0.973958" stop-color="#202020"/>
</linearGradient>
<linearGradient id="paint5_linear_517_318" x1="283.5" y1="440" x2="297.107" y2="498.262" gradientUnits="userSpaceOnUse">
<stop stop-color="#A97E55"/>
<stop offset="0.552083" stop-color="#563D25"/>
<stop offset="0.973958" stop-color="#202020"/>
</linearGradient>
<radialGradient id="paint6_radial_517_318" cx="0" cy="0" r="1" gradientUnits="userSpaceOnUse" gradientTransform="translate(366.724 349.31) rotate(56.5326) scale(85.7005 159.027)">
<stop stop-color="#FF0000"/>
<stop offset="1" stop-color="#FF9900"/>
</radialGradient>
<linearGradient id="paint7_linear_517_318" x1="368" y1="508" x2="368" y2="581" gradientUnits="userSpaceOnUse">
<stop offset="0.1875" stop-color="#522A2A"/>
<stop offset="0.4375" stop-color="#934C4C"/>
</linearGradient>
<radialGradient id="paint8_radial_517_318" cx="0" cy="0" r="1" gradientUnits="userSpaceOnUse" gradientTransform="translate(369 373.5) rotate(90) scale(150.5 221)">
<stop stop-color="#9E1111"/>
<stop offset="1" stop-color="#934C4C"/>
</radialGradient>
</defs>
</svg>
