<svg width="1344" height="1008" viewBox="0 0 1344 1008" fill="none" xmlns="http://www.w3.org/2000/svg">
<path d="M165.572 136.5H142.384V37.9531C142.384 35.0547 142.022 32.6997 141.297 30.8882C140.694 28.9559 139.848 27.5067 138.761 26.5405C137.674 25.4536 136.406 24.729 134.957 24.3667C133.629 23.8836 132.24 23.6421 130.791 23.6421C129.341 23.6421 127.892 23.8836 126.443 24.3667C125.115 24.729 123.907 25.4536 122.82 26.5405C121.733 27.5067 120.827 28.9559 120.103 30.8882C119.499 32.6997 119.197 35.0547 119.197 37.9531V293.016C119.197 294.465 119.257 296.216 119.378 298.269C119.499 300.201 119.921 302.073 120.646 303.885C121.371 305.696 122.518 307.266 124.088 308.595C125.658 309.802 127.892 310.406 130.791 310.406C133.689 310.406 135.923 309.802 137.493 308.595C139.063 307.266 140.211 305.696 140.935 303.885C141.66 302.073 142.082 300.201 142.203 298.269C142.324 296.216 142.384 294.465 142.384 293.016V171.281H165.572V293.016C165.572 294.465 165.391 297.122 165.028 300.986C164.666 304.73 163.398 308.595 161.224 312.58C159.05 316.565 155.608 320.068 150.899 323.087C146.189 326.227 139.486 327.797 130.791 327.797C122.095 327.797 115.393 326.227 110.683 323.087C105.973 320.068 102.531 316.565 100.357 312.58C98.1832 308.595 96.9151 304.73 96.5528 300.986C96.1905 297.122 96.0094 294.465 96.0094 293.016V37.9531C96.0094 32.3978 97.0359 27.6274 99.089 23.6421C101.142 19.536 103.799 16.2148 107.06 13.6787C110.441 11.1426 114.185 9.27067 118.291 8.06299C122.397 6.85531 126.564 6.25146 130.791 6.25146C135.259 6.25146 139.546 6.91569 143.652 8.24414C147.879 9.57259 151.623 11.5653 154.884 14.2222C158.145 16.8791 160.741 20.2002 162.673 24.1855C164.606 28.1709 165.572 32.7601 165.572 37.9531V136.5ZM254.612 293.016C254.612 294.465 254.431 297.122 254.068 300.986C253.706 304.73 252.438 308.595 250.264 312.58C248.09 316.565 244.648 320.068 239.939 323.087C235.229 326.227 228.526 327.797 219.831 327.797C211.135 327.797 204.433 326.227 199.723 323.087C195.013 320.068 191.571 316.565 189.397 312.58C187.223 308.595 185.955 304.73 185.593 300.986C185.231 297.122 185.049 294.465 185.049 293.016V37.9531C185.049 36.987 185.11 35.5378 185.231 33.6055C185.351 31.6732 185.714 29.5597 186.317 27.2651C186.921 24.8498 187.948 22.4344 189.397 20.019C190.846 17.4829 192.839 15.1883 195.375 13.1353C197.911 11.0822 201.172 9.45182 205.157 8.24414C209.143 6.91569 214.034 6.25146 219.831 6.25146C225.628 6.25146 230.519 6.91569 234.504 8.24414C238.489 9.45182 241.75 11.0822 244.286 13.1353C246.822 15.1883 248.815 17.4829 250.264 20.019C251.713 22.4344 252.74 24.8498 253.344 27.2651C253.948 29.5597 254.31 31.6732 254.431 33.6055C254.551 35.5378 254.612 36.987 254.612 37.9531V293.016ZM208.237 293.016C208.237 294.465 208.297 296.216 208.418 298.269C208.539 300.201 208.961 302.073 209.686 303.885C210.411 305.696 211.558 307.266 213.128 308.595C214.698 309.802 216.932 310.406 219.831 310.406C222.729 310.406 224.963 309.802 226.533 308.595C228.103 307.266 229.251 305.696 229.975 303.885C230.7 302.073 231.122 300.201 231.243 298.269C231.364 296.216 231.424 294.465 231.424 293.016V37.9531C231.424 36.5039 231.364 34.9339 231.243 33.2432C231.122 31.5524 230.7 30.0428 229.975 28.7144C229.251 27.2651 228.103 26.0575 226.533 25.0913C224.963 24.1252 222.729 23.6421 219.831 23.6421C216.932 23.6421 214.698 24.1252 213.128 25.0913C211.558 26.0575 210.411 27.2651 209.686 28.7144C208.961 30.0428 208.539 31.5524 208.418 33.2432C208.297 34.9339 208.237 36.5039 208.237 37.9531V293.016ZM297.277 8.96875V304.609H320.464V322H274.089V8.96875H297.277ZM409.504 293.016C409.504 294.465 409.323 297.122 408.961 300.986C408.599 304.73 407.331 308.595 405.157 312.58C402.983 316.565 399.541 320.068 394.831 323.087C390.121 326.227 383.418 327.797 374.723 327.797C366.028 327.797 359.325 326.227 354.615 323.087C349.905 320.068 346.463 316.565 344.29 312.58C342.116 308.595 340.848 304.73 340.485 300.986C340.123 297.122 339.942 294.465 339.942 293.016V37.9531C339.942 36.987 340.002 35.5378 340.123 33.6055C340.244 31.6732 340.606 29.5597 341.21 27.2651C341.814 24.8498 342.84 22.4344 344.29 20.019C345.739 17.4829 347.731 15.1883 350.268 13.1353C352.804 11.0822 356.064 9.45182 360.05 8.24414C364.035 6.91569 368.926 6.25146 374.723 6.25146C380.52 6.25146 385.411 6.91569 389.396 8.24414C393.382 9.45182 396.643 11.0822 399.179 13.1353C401.715 15.1883 403.707 17.4829 405.157 20.019C406.606 22.4344 407.632 24.8498 408.236 27.2651C408.84 29.5597 409.202 31.6732 409.323 33.6055C409.444 35.5378 409.504 36.987 409.504 37.9531V293.016ZM363.129 293.016C363.129 294.465 363.19 296.216 363.311 298.269C363.431 300.201 363.854 302.073 364.579 303.885C365.303 305.696 366.45 307.266 368.02 308.595C369.59 309.802 371.825 310.406 374.723 310.406C377.622 310.406 379.856 309.802 381.426 308.595C382.996 307.266 384.143 305.696 384.868 303.885C385.592 302.073 386.015 300.201 386.136 298.269C386.256 296.216 386.317 294.465 386.317 293.016V37.9531C386.317 36.5039 386.256 34.9339 386.136 33.2432C386.015 31.5524 385.592 30.0428 384.868 28.7144C384.143 27.2651 382.996 26.0575 381.426 25.0913C379.856 24.1252 377.622 23.6421 374.723 23.6421C371.825 23.6421 369.59 24.1252 368.02 25.0913C366.45 26.0575 365.303 27.2651 364.579 28.7144C363.854 30.0428 363.431 31.5524 363.311 33.2432C363.19 34.9339 363.129 36.5039 363.129 37.9531V293.016ZM498.544 136.5C498.544 145.195 497.095 151.234 494.197 154.615C491.298 157.997 486.951 159.688 481.154 159.688C484.052 159.688 486.588 160.352 488.762 161.68C490.936 163.009 492.747 164.76 494.197 166.934C495.646 169.107 496.733 171.583 497.457 174.361C498.182 177.139 498.544 179.977 498.544 182.875V322H475.357V177.078C475.357 174.18 474.693 171.945 473.364 170.375C472.036 168.806 470.285 167.658 468.111 166.934C465.937 166.209 463.461 165.786 460.684 165.666C457.906 165.545 455.068 165.484 452.169 165.484V322H428.982V8.96875H452.169C457.966 8.96875 463.642 9.1499 469.198 9.51221C474.753 9.75374 479.705 10.7803 484.052 12.5918C488.4 14.4033 491.902 17.3018 494.559 21.2871C497.216 25.1517 498.544 30.707 498.544 37.9531V136.5ZM475.357 37.9531C475.357 35.0547 474.934 32.8205 474.089 31.2505C473.364 29.6805 472.096 28.5332 470.285 27.8086C468.473 27.084 466.058 26.6613 463.039 26.5405C460.14 26.4198 456.517 26.3594 452.169 26.3594V153.891C455.068 153.891 457.906 153.83 460.684 153.709C463.461 153.589 465.937 153.166 468.111 152.441C470.285 151.717 472.036 150.569 473.364 149C474.693 147.43 475.357 145.195 475.357 142.297V37.9531ZM558.6 245.735C558.6 232.933 557.936 221.944 556.607 212.765C555.279 203.587 553.528 195.616 551.354 188.853C549.18 181.969 546.704 175.991 543.927 170.919C541.149 165.847 538.311 161.076 535.413 156.608C532.514 152.139 529.676 147.671 526.898 143.203C524.121 138.734 521.645 133.662 519.471 127.986C517.297 122.31 515.546 115.788 514.218 108.421C512.889 100.934 512.225 91.9969 512.225 81.6108V37.9531C512.225 35.0547 512.648 31.7939 513.493 28.1709C514.459 24.4271 516.21 20.9852 518.746 17.8452C521.283 14.5845 524.785 11.8672 529.253 9.69336C533.843 7.39876 539.76 6.25146 547.006 6.25146C554.252 6.25146 560.11 7.39876 564.578 9.69336C569.167 11.8672 572.73 14.5845 575.266 17.8452C577.802 20.9852 579.493 24.4271 580.338 28.1709C581.304 31.7939 581.788 35.0547 581.788 37.9531V119.109H558.6V37.9531C558.6 35.0547 558.238 32.6997 557.513 30.8882C556.909 28.9559 556.064 27.5067 554.977 26.5405C553.89 25.4536 552.622 24.729 551.173 24.3667C549.844 23.8836 548.455 23.6421 547.006 23.6421C545.557 23.6421 544.108 23.8836 542.659 24.3667C541.33 24.729 540.122 25.4536 539.036 26.5405C537.949 27.5067 537.043 28.9559 536.318 30.8882C535.714 32.6997 535.413 35.0547 535.413 37.9531V73.2778C535.413 86.9246 536.56 98.3372 538.854 107.516C541.149 116.694 543.987 124.725 547.369 131.609C550.871 138.372 554.615 144.531 558.6 150.086C562.585 155.642 566.269 161.68 569.65 168.202C573.153 174.602 576.051 182.09 578.346 190.665C580.64 199.118 581.788 209.686 581.788 222.366V293.016C581.788 294.465 581.606 297.122 581.244 300.986C580.882 304.73 579.614 308.595 577.44 312.58C575.266 316.565 571.824 320.068 567.114 323.087C562.404 326.227 555.702 327.797 547.006 327.797C538.311 327.797 531.608 326.227 526.898 323.087C522.188 320.068 518.746 316.565 516.573 312.58C514.399 308.595 513.131 304.73 512.768 300.986C512.406 297.122 512.225 294.465 512.225 293.016V188.672H535.413V293.016C535.413 294.465 535.473 296.216 535.594 298.269C535.714 300.201 536.137 302.073 536.862 303.885C537.586 305.696 538.734 307.266 540.304 308.595C541.874 309.802 544.108 310.406 547.006 310.406C549.905 310.406 552.139 309.802 553.709 308.595C555.279 307.266 556.426 305.696 557.151 303.885C557.875 302.073 558.298 300.201 558.419 298.269C558.54 296.216 558.6 294.465 558.6 293.016V245.735Z" fill="white"/>
<circle cx="840" cy="168" r="138" fill="url(#paint0_linear_646_111)" stroke="black" stroke-width="10"/>
<circle cx="1176" cy="168" r="138" fill="url(#paint1_linear_646_111)" stroke="black" stroke-width="10"/>
<circle cx="168" cy="504" r="143" fill="url(#paint2_linear_646_111)"/>
<circle cx="504" cy="504" r="138" fill="url(#paint3_linear_646_111)" stroke="black" stroke-width="10"/>
<circle cx="840" cy="504" r="138" fill="url(#paint4_linear_646_111)" stroke="black" stroke-width="10"/>
<circle cx="1176" cy="504" r="138" fill="url(#paint5_linear_646_111)" stroke="black" stroke-width="10"/>
<circle cx="168" cy="840" r="138" fill="url(#paint6_linear_646_111)" stroke="#452100" stroke-width="10"/>
<circle cx="504" cy="840" r="138" fill="url(#paint7_linear_646_111)" stroke="black" stroke-width="10"/>
<circle cx="840" cy="840" r="138" fill="url(#paint8_linear_646_111)" stroke="black" stroke-width="10"/>
<circle cx="1176" cy="840" r="138" fill="url(#paint9_linear_646_111)" stroke="black" stroke-width="10"/>
<defs>
<linearGradient id="paint0_linear_646_111" x1="697" y1="25" x2="983" y2="311" gradientUnits="userSpaceOnUse">
<stop offset="0.154167" stop-color="#D370B2"/>
<stop offset="0.836458" stop-color="#AA000A"/>
</linearGradient>
<linearGradient id="paint1_linear_646_111" x1="1033" y1="25" x2="1319" y2="311" gradientUnits="userSpaceOnUse">
<stop offset="0.154167" stop-color="#BFBFBF"/>
<stop offset="0.836458" stop-color="white"/>
</linearGradient>
<linearGradient id="paint2_linear_646_111" x1="25" y1="361" x2="311" y2="647" gradientUnits="userSpaceOnUse">
<stop offset="0.14375"/>
<stop offset="0.852083" stop-color="#464646"/>
</linearGradient>
<linearGradient id="paint3_linear_646_111" x1="361" y1="361" x2="647" y2="647" gradientUnits="userSpaceOnUse">
<stop offset="0.148958" stop-color="#000081"/>
<stop offset="0.841667" stop-color="#0075FF"/>
</linearGradient>
<linearGradient id="paint4_linear_646_111" x1="697" y1="361" x2="983" y2="647" gradientUnits="userSpaceOnUse">
<stop offset="0.148958" stop-color="#C7965C"/>
<stop offset="0.841667" stop-color="#5C3404"/>
</linearGradient>
<linearGradient id="paint5_linear_646_111" x1="1033" y1="361" x2="1319" y2="647" gradientUnits="userSpaceOnUse">
<stop offset="0.148958" stop-color="#CE7D4E"/>
<stop offset="0.820833" stop-color="#4D1C00"/>
</linearGradient>
<linearGradient id="paint6_linear_646_111" x1="25" y1="697" x2="311" y2="983" gradientUnits="userSpaceOnUse">
<stop offset="0.154167" stop-color="#C9794B"/>
<stop offset="0.826042" stop-color="#0C5300"/>
</linearGradient>
<linearGradient id="paint7_linear_646_111" x1="361" y1="697" x2="647" y2="983" gradientUnits="userSpaceOnUse">
<stop offset="0.154167" stop-color="#414141"/>
<stop offset="0.826042" stop-color="#D8D8D8"/>
</linearGradient>
<linearGradient id="paint8_linear_646_111" x1="697" y1="697" x2="983" y2="983" gradientUnits="userSpaceOnUse">
<stop offset="0.154167" stop-color="#C37748"/>
<stop offset="0.815625" stop-color="#FFB6AB"/>
</linearGradient>
<linearGradient id="paint9_linear_646_111" x1="1033" y1="697" x2="1319" y2="983" gradientUnits="userSpaceOnUse">
<stop offset="0.154167" stop-color="#8B007D"/>
<stop offset="0.815625" stop-color="#3D003A"/>
</linearGradient>
</defs>
</svg>
