<svg width="5" height="5" viewBox="0 0 5 5" fill="none" xmlns="http://www.w3.org/2000/svg">
<path d="M5 3L4.5 2.71132V3.28868L5 3ZM2 3.05H4.55V2.95H2V3.05Z" fill="#FF0000"/>
<path d="M2 0L1.71132 0.5H2.28868L2 0ZM1.95 3C1.95 3.02761 1.97239 3.05 2 3.05C2.02761 3.05 2.05 3.02761 2.05 3H1.95ZM1.95 0.45V3H2.05V0.45H1.95Z" fill="#0000FF"/>
<path d="M0 5L0.557678 4.85057L0.149429 4.44232L0 5ZM2.03536 3.03536C2.05488 3.01583 2.05488 2.98417 2.03536 2.96464C2.01583 2.94512 1.98417 2.94512 1.96464 2.96464L2.03536 3.03536ZM0.353553 4.71716L2.03536 3.03536L1.96464 2.96464L0.282843 4.64645L0.353553 4.71716Z" fill="#00FF00"/>
<path d="M2.46191 0.88623H2.72021V1H2.28174V0.914062L2.53027 0.585938H2.28906V0.47168H2.7124V0.555176L2.46191 0.88623Z" fill="#0000FF"/>
<path d="M4.50098 3.62939L4.58984 3.47168H4.74072L4.59033 3.73047L4.74707 4H4.5957L4.50146 3.83398L4.40771 4H4.25586L4.4126 3.73047L4.2627 3.47168H4.41406L4.50098 3.62939Z" fill="#FF0000"/>
<path d="M0.500488 3.80029L0.598145 3.47168H0.749512L0.537109 4.08203L0.525391 4.10986C0.493815 4.17887 0.441732 4.21338 0.369141 4.21338C0.348633 4.21338 0.327799 4.21029 0.306641 4.2041V4.09717L0.328125 4.09766C0.354818 4.09766 0.374674 4.09359 0.387695 4.08545C0.401042 4.07731 0.411458 4.0638 0.418945 4.04492L0.435547 4.00146L0.250488 3.47168H0.402344L0.500488 3.80029Z" fill="#00FF00"/>
</svg>
