<svg width="427" height="500" viewBox="0 0 427 500" fill="none" xmlns="http://www.w3.org/2000/svg">
<rect width="427" height="500" fill="#706D67"/>
<g filter="url(#filter0_b_631_89)">
<rect x="39" y="62" width="346" height="392" rx="86" fill="#545454"/>
</g>
<rect x="197" y="259" width="28" height="136" fill="#F4F0C4"/>
<rect x="80.9824" y="142.745" width="28" height="139.414" transform="rotate(-49.5964 80.9824 142.745)" fill="#F4F0C4"/>
<rect width="28" height="131.737" transform="matrix(-0.648167 -0.761498 -0.761498 0.648167 335.466 147.322)" fill="#F4F0C4"/>
<path d="M240.5 210.5L336.5 129" stroke="black" stroke-width="9" stroke-linecap="round"/>
<path d="M181 208.5L85 127" stroke="black" stroke-width="9" stroke-linecap="round"/>
<path d="M209.941 420.913L211.973 295" stroke="black" stroke-width="9" stroke-linecap="round"/>
<circle cx="88" cy="127" r="40" fill="#C4C4C4"/>
<circle cx="330" cy="127" r="40" fill="#C4C4C4"/>
<circle cx="212" cy="414" r="40" fill="#C4C4C4"/>
<path d="M91.1816 146.841C103.83 201.907 102.117 227.952 79.7666 242.32" stroke="#FFE600" stroke-width="9" stroke-linecap="round"/>
<circle cx="86.4804" cy="126.374" r="17" transform="rotate(77.0636 86.4804 126.374)" fill="#AE3131"/>
<rect x="97.2012" y="123.912" width="29" height="22" transform="rotate(77.0636 97.2012 123.912)" fill="#AE3131"/>
<path d="M328.488 144.629C326 173 333 220 347.462 236.319" stroke="#FFE600" stroke-width="9" stroke-linecap="round"/>
<circle r="17" transform="matrix(-0.0386836 0.999251 0.999251 0.0386836 329.3 123.645)" fill="#AE3131"/>
<rect width="29" height="22" transform="matrix(-0.0386836 0.999251 0.999251 0.0386836 318.309 123.219)" fill="#AE3131"/>
<path d="M232.597 410.939C261 401.5 331.5 394.5 312.871 358" stroke="#FFE600" stroke-width="9" stroke-linecap="round"/>
<circle r="17" transform="matrix(0.971756 -0.23599 -0.23599 -0.971756 212.19 415.895)" fill="#AE3131"/>
<rect width="29" height="22" transform="matrix(0.971756 -0.23599 -0.23599 -0.971756 214.785 426.584)" fill="#AE3131"/>
<rect x="55.5" y="78.5" width="313" height="359" rx="69.5" fill="black" fill-opacity="0.1" stroke="black" stroke-width="33"/>
<g filter="url(#filter1_f_631_89)">
<ellipse cx="213.5" cy="285.5" rx="29.5" ry="15.5" fill="#FFFACF"/>
</g>
<g filter="url(#filter2_f_631_89)">
<ellipse cx="287.159" cy="169.094" rx="29.5" ry="15.5" transform="rotate(46.6621 287.159 169.094)" fill="#FFFACF"/>
</g>
<g filter="url(#filter3_f_631_89)">
<ellipse cx="183.384" cy="207.729" rx="29.5" ry="15.5" transform="rotate(130.896 183.384 207.729)" fill="#FFFACF"/>
</g>
<g filter="url(#filter4_f_631_89)">
<ellipse cx="213.5" cy="345.5" rx="29.5" ry="15.5" fill="#FFFACF"/>
</g>
<g filter="url(#filter5_f_631_89)">
<ellipse cx="243.519" cy="210.272" rx="29.5" ry="15.5" transform="rotate(46.6621 243.519 210.272)" fill="#FFFACF"/>
</g>
<g filter="url(#filter6_f_631_89)">
<ellipse cx="138.03" cy="168.447" rx="29.5" ry="15.5" transform="rotate(130.896 138.03 168.447)" fill="#FFFACF"/>
</g>
<rect x="82" y="320" width="259" height="25" fill="#EA2419"/>
<rect x="57" y="8" width="306" height="24" fill="#EA2419"/>
<rect x="124" y="32" width="175" height="24" fill="#EA2419"/>
<path d="M94.6611 335.586C94.6611 335.957 94.5807 336.279 94.4199 336.551C94.2591 336.817 94.0519 337.036 93.7983 337.209C93.5448 337.389 93.2541 337.522 92.9263 337.608C92.6047 337.689 92.2769 337.729 91.9429 337.729C91.5223 337.729 91.1326 337.673 90.7739 337.562C90.4214 337.444 90.109 337.271 89.8369 337.042C89.5648 336.82 89.3421 336.548 89.1689 336.226C88.9958 335.898 88.8813 335.524 88.8257 335.104H87.0723C87.0908 335.685 87.2176 336.214 87.4526 336.69C87.6938 337.16 88.0186 337.571 88.4268 337.924C88.8844 338.332 89.4225 338.644 90.041 338.861C90.6657 339.077 91.2996 339.186 91.9429 339.186C92.481 339.186 93.019 339.111 93.5571 338.963C94.0952 338.808 94.5776 338.579 95.0044 338.276C95.4312 337.979 95.7775 337.605 96.0435 337.154C96.3156 336.702 96.4517 336.174 96.4517 335.567C96.4517 334.967 96.3249 334.439 96.0713 333.981C95.8239 333.523 95.4961 333.137 95.0879 332.821C94.6735 332.481 94.2158 332.203 93.7148 331.986C93.2139 331.764 92.7129 331.575 92.2119 331.42C91.9089 331.328 91.5841 331.219 91.2378 331.096C90.8976 330.972 90.5822 330.817 90.2915 330.632C89.9946 330.446 89.7503 330.221 89.5586 329.955C89.3669 329.682 89.2679 329.352 89.2617 328.962C89.2617 328.603 89.3328 328.288 89.4751 328.016C89.6235 327.743 89.8215 327.515 90.0688 327.329C90.3101 327.144 90.5853 327.004 90.8945 326.912C91.21 326.819 91.5316 326.772 91.8594 326.772C92.2676 326.772 92.6325 326.837 92.9541 326.967C93.2819 327.091 93.5633 327.267 93.7983 327.496C94.0334 327.725 94.222 328 94.3643 328.322C94.5065 328.637 94.6024 328.99 94.6519 329.379H96.4146C96.4022 328.761 96.2692 328.201 96.0156 327.7C95.762 327.199 95.425 326.772 95.0044 326.42C94.5838 326.067 94.1014 325.795 93.5571 325.604C93.0129 325.406 92.4469 325.307 91.8594 325.307C91.3275 325.307 90.7987 325.39 90.2729 325.557C89.7472 325.718 89.2772 325.956 88.8628 326.271C88.4484 326.587 88.1113 326.973 87.8516 327.431C87.598 327.889 87.4712 328.408 87.4712 328.99C87.4712 329.571 87.598 330.078 87.8516 330.511C88.1113 330.938 88.4453 331.309 88.8535 331.625C89.2555 331.934 89.7008 332.2 90.1895 332.422C90.6842 332.639 91.1698 332.824 91.646 332.979C91.9738 333.084 92.314 333.202 92.6665 333.332C93.0252 333.461 93.353 333.622 93.6499 333.814C93.9468 334.012 94.188 334.253 94.3735 334.538C94.5653 334.822 94.6611 335.172 94.6611 335.586ZM107.473 339V325.492H105.85V331.3H100.311V325.492H98.6968V339H100.311V332.756H105.85V339H107.473ZM110.414 325.492V326.986H113.578V337.516H110.414V339H118.578V337.516H115.34V326.986H118.578V325.492H110.414ZM129.256 332.756V331.3H123.616V326.958H130.11V325.492H121.899V339H130.193V337.543H123.616V332.756H129.256ZM135.175 337.543V325.492H133.459V339H141.781V337.543H135.175ZM144.471 339H147.598C148.247 338.994 148.85 338.917 149.407 338.768C149.97 338.62 150.474 338.406 150.919 338.128C151.34 337.862 151.72 337.54 152.06 337.163C152.4 336.786 152.682 336.365 152.904 335.901C153.121 335.456 153.285 334.967 153.396 334.436C153.514 333.904 153.572 333.341 153.572 332.747V331.754C153.566 331.136 153.501 330.555 153.377 330.01C153.26 329.466 153.087 328.965 152.858 328.507C152.604 327.969 152.264 327.496 151.837 327.088C151.417 326.674 150.931 326.34 150.381 326.086C149.985 325.9 149.552 325.758 149.082 325.659C148.618 325.554 148.123 325.498 147.598 325.492H144.471V339ZM146.215 326.902H147.598C148.024 326.909 148.417 326.958 148.776 327.051C149.135 327.137 149.459 327.261 149.75 327.422C150.158 327.638 150.501 327.923 150.78 328.275C151.064 328.622 151.29 329.011 151.457 329.444C151.587 329.778 151.683 330.14 151.745 330.53C151.813 330.913 151.85 331.315 151.856 331.736V332.747C151.85 333.161 151.816 333.56 151.754 333.944C151.692 334.321 151.599 334.674 151.476 335.001C151.333 335.403 151.139 335.768 150.891 336.096C150.65 336.418 150.362 336.69 150.028 336.913C149.713 337.129 149.351 337.296 148.943 337.414C148.541 337.531 148.092 337.593 147.598 337.599H146.215V326.902ZM174.901 332.756V331.3H169.26V326.958H175.754V325.492H167.544V339H175.838V337.543H169.26V332.756H174.901ZM182.861 332.274L179.79 325.492H177.833L182.035 333.962L182.063 339H183.659L183.687 333.962L187.889 325.492H185.941L182.861 332.274ZM197.723 332.756V331.3H192.083V326.958H198.577V325.492H190.366V339H198.66V337.543H192.083V332.756H197.723ZM208.772 335.586C208.772 335.957 208.692 336.279 208.531 336.551C208.37 336.817 208.163 337.036 207.91 337.209C207.656 337.389 207.365 337.522 207.038 337.608C206.716 337.689 206.388 337.729 206.054 337.729C205.634 337.729 205.244 337.673 204.885 337.562C204.533 337.444 204.22 337.271 203.948 337.042C203.676 336.82 203.453 336.548 203.28 336.226C203.107 335.898 202.993 335.524 202.937 335.104H201.184C201.202 335.685 201.329 336.214 201.564 336.69C201.805 337.16 202.13 337.571 202.538 337.924C202.996 338.332 203.534 338.644 204.152 338.861C204.777 339.077 205.411 339.186 206.054 339.186C206.592 339.186 207.13 339.111 207.668 338.963C208.207 338.808 208.689 338.579 209.116 338.276C209.542 337.979 209.889 337.605 210.155 337.154C210.427 336.702 210.563 336.174 210.563 335.567C210.563 334.967 210.436 334.439 210.183 333.981C209.935 333.523 209.607 333.137 209.199 332.821C208.785 332.481 208.327 332.203 207.826 331.986C207.325 331.764 206.824 331.575 206.323 331.42C206.02 331.328 205.695 331.219 205.349 331.096C205.009 330.972 204.694 330.817 204.403 330.632C204.106 330.446 203.862 330.221 203.67 329.955C203.478 329.682 203.379 329.352 203.373 328.962C203.373 328.603 203.444 328.288 203.586 328.016C203.735 327.743 203.933 327.515 204.18 327.329C204.421 327.144 204.697 327.004 205.006 326.912C205.321 326.819 205.643 326.772 205.971 326.772C206.379 326.772 206.744 326.837 207.065 326.967C207.393 327.091 207.675 327.267 207.91 327.496C208.145 327.725 208.333 328 208.476 328.322C208.618 328.637 208.714 328.99 208.763 329.379H210.526C210.514 328.761 210.381 328.201 210.127 327.7C209.873 327.199 209.536 326.772 209.116 326.42C208.695 326.067 208.213 325.795 207.668 325.604C207.124 325.406 206.558 325.307 205.971 325.307C205.439 325.307 204.91 325.39 204.384 325.557C203.859 325.718 203.389 325.956 202.974 326.271C202.56 326.587 202.223 326.973 201.963 327.431C201.709 327.889 201.583 328.408 201.583 328.99C201.583 329.571 201.709 330.078 201.963 330.511C202.223 330.938 202.557 331.309 202.965 331.625C203.367 331.934 203.812 332.2 204.301 332.422C204.796 332.639 205.281 332.824 205.757 332.979C206.085 333.084 206.425 333.202 206.778 333.332C207.137 333.461 207.464 333.622 207.761 333.814C208.058 334.012 208.299 334.253 208.485 334.538C208.677 334.822 208.772 335.172 208.772 335.586ZM232.04 333.035V331.578H226.418V326.958H232.977V325.492H224.683V339H226.418V333.035H232.04ZM240.408 333.489L243.062 339H244.871L244.88 338.889L242.013 333.118C242.384 332.957 242.724 332.763 243.034 332.534C243.343 332.305 243.609 332.042 243.832 331.745C244.054 331.448 244.227 331.117 244.351 330.752C244.481 330.388 244.546 329.986 244.546 329.546C244.546 328.866 244.425 328.275 244.184 327.774C243.949 327.267 243.624 326.847 243.21 326.513C242.789 326.179 242.301 325.928 241.744 325.761C241.188 325.594 240.594 325.505 239.963 325.492H236.001V339H237.708V333.489H240.408ZM237.708 332.079V326.902H239.963C240.377 326.909 240.758 326.967 241.104 327.079C241.457 327.19 241.76 327.354 242.013 327.57C242.267 327.793 242.465 328.068 242.607 328.396C242.749 328.718 242.82 329.095 242.82 329.528C242.82 329.936 242.746 330.298 242.598 330.613C242.449 330.923 242.248 331.185 241.995 331.402C241.735 331.618 241.435 331.785 241.095 331.903C240.755 332.014 240.393 332.073 240.009 332.079H237.708ZM256.133 333.025V331.485C256.127 331.003 256.084 330.514 256.003 330.02C255.929 329.525 255.812 329.049 255.651 328.591C255.484 328.133 255.274 327.706 255.02 327.311C254.773 326.909 254.476 326.559 254.129 326.262C253.783 325.965 253.384 325.733 252.933 325.566C252.481 325.393 251.977 325.307 251.42 325.307C250.864 325.307 250.36 325.393 249.908 325.566C249.463 325.733 249.067 325.965 248.721 326.262C248.374 326.565 248.074 326.918 247.821 327.32C247.573 327.716 247.369 328.142 247.208 328.6C247.042 329.058 246.918 329.534 246.837 330.029C246.763 330.517 246.723 331.003 246.717 331.485V333.025C246.723 333.508 246.766 333.993 246.847 334.482C246.927 334.971 247.051 335.444 247.218 335.901C247.379 336.359 247.586 336.789 247.839 337.191C248.093 337.587 248.393 337.933 248.739 338.23C249.086 338.527 249.481 338.762 249.927 338.935C250.378 339.102 250.882 339.186 251.439 339.186C251.996 339.186 252.497 339.102 252.942 338.935C253.393 338.762 253.792 338.527 254.139 338.23C254.485 337.933 254.782 337.587 255.029 337.191C255.283 336.795 255.49 336.368 255.651 335.911C255.812 335.453 255.929 334.98 256.003 334.491C256.084 333.996 256.127 333.508 256.133 333.025ZM254.436 331.467V333.025C254.429 333.347 254.408 333.684 254.371 334.037C254.34 334.389 254.281 334.736 254.194 335.076C254.102 335.422 253.981 335.753 253.833 336.068C253.69 336.378 253.511 336.65 253.294 336.885C253.072 337.126 252.806 337.318 252.497 337.46C252.194 337.602 251.841 337.673 251.439 337.673C251.037 337.673 250.684 337.602 250.381 337.46C250.078 337.318 249.815 337.126 249.593 336.885C249.37 336.65 249.185 336.375 249.036 336.059C248.888 335.744 248.767 335.413 248.674 335.066C248.582 334.726 248.514 334.38 248.47 334.027C248.433 333.675 248.411 333.341 248.405 333.025V331.467C248.411 331.151 248.433 330.82 248.47 330.474C248.514 330.122 248.582 329.772 248.674 329.426C248.761 329.086 248.878 328.761 249.027 328.452C249.175 328.136 249.361 327.858 249.583 327.617C249.806 327.382 250.069 327.193 250.372 327.051C250.675 326.909 251.025 326.837 251.42 326.837C251.822 326.837 252.175 326.909 252.478 327.051C252.781 327.187 253.044 327.372 253.267 327.607C253.489 327.849 253.675 328.127 253.823 328.442C253.972 328.752 254.092 329.076 254.185 329.417C254.272 329.763 254.333 330.112 254.371 330.465C254.408 330.811 254.429 331.145 254.436 331.467ZM260.642 325.492H258.518V339H260.188V333.61L260.048 328.164L262.34 335.243H263.323L265.819 327.969L265.68 333.61V339H267.35V325.492H265.216L262.841 332.246L260.642 325.492ZM283.52 337.543V325.492H281.804V339H290.125V337.543H283.52ZM292.992 325.492V326.986H296.156V337.516H292.992V339H301.156V337.516H297.918V326.986H301.156V325.492H292.992ZM313.143 337.228L313.115 332.274H308.736V333.721H311.482L311.463 336.755C311.321 336.959 311.145 337.126 310.935 337.256C310.724 337.38 310.499 337.479 310.257 337.553C310.016 337.627 309.766 337.676 309.506 337.701C309.252 337.726 309.008 337.735 308.773 337.729C308.365 337.723 308 337.652 307.678 337.516C307.357 337.373 307.075 337.185 306.834 336.95C306.587 336.715 306.376 336.443 306.203 336.133C306.03 335.824 305.888 335.496 305.776 335.15C305.665 334.804 305.582 334.451 305.526 334.092C305.476 333.727 305.449 333.375 305.442 333.035V331.448C305.442 331.114 305.464 330.768 305.507 330.409C305.551 330.05 305.622 329.698 305.721 329.352C305.82 329.005 305.946 328.677 306.101 328.368C306.256 328.053 306.451 327.778 306.686 327.542C306.921 327.307 307.196 327.122 307.511 326.986C307.827 326.844 308.188 326.772 308.597 326.772C309.023 326.772 309.398 326.84 309.719 326.977C310.041 327.106 310.319 327.289 310.554 327.524C310.783 327.759 310.969 328.043 311.111 328.377C311.253 328.705 311.358 329.064 311.426 329.454H313.124C313.068 328.823 312.92 328.254 312.679 327.747C312.438 327.233 312.119 326.794 311.723 326.429C311.327 326.07 310.863 325.795 310.332 325.604C309.8 325.406 309.218 325.307 308.587 325.307C308.018 325.307 307.505 325.39 307.047 325.557C306.59 325.724 306.181 325.95 305.823 326.234C305.458 326.525 305.146 326.868 304.886 327.264C304.626 327.654 304.41 328.077 304.236 328.535C304.063 328.993 303.933 329.472 303.847 329.973C303.766 330.468 303.723 330.966 303.717 331.467V333.035C303.723 333.542 303.772 334.046 303.865 334.547C303.964 335.042 304.11 335.515 304.301 335.966C304.487 336.424 304.719 336.848 304.997 337.237C305.275 337.627 305.6 337.964 305.971 338.249C306.342 338.539 306.76 338.768 307.224 338.935C307.694 339.096 308.207 339.179 308.764 339.186C309.314 339.192 309.84 339.13 310.341 339C310.842 338.876 311.309 338.685 311.742 338.425C311.995 338.276 312.24 338.103 312.475 337.905C312.71 337.701 312.932 337.475 313.143 337.228ZM324.285 339V325.492H322.661V331.3H317.123V325.492H315.508V339H317.123V332.756H322.661V339H324.285ZM336.336 326.958V325.492H326.316V326.958H330.491V339H332.161V326.958H336.336Z" fill="white"/>
<path d="M64.5933 27H67.7197C68.3691 26.9938 68.9722 26.9165 69.5288 26.7681C70.0916 26.6196 70.5957 26.4062 71.041 26.1279C71.4616 25.862 71.842 25.5404 72.1821 25.1631C72.5223 24.7858 72.8037 24.3652 73.0264 23.9014C73.2428 23.4561 73.4067 22.9674 73.5181 22.4355C73.6356 21.9036 73.6943 21.3408 73.6943 20.7471V19.7544C73.6882 19.1359 73.6232 18.5545 73.4995 18.0103C73.382 17.466 73.2088 16.965 72.98 16.5073C72.7264 15.9692 72.3862 15.4961 71.9595 15.0879C71.5389 14.6735 71.0534 14.3395 70.5029 14.0859C70.1071 13.9004 69.6742 13.7581 69.2041 13.6592C68.7402 13.554 68.2454 13.4984 67.7197 13.4922H64.5933V27ZM66.3374 14.9023H67.7197C68.1465 14.9085 68.5392 14.958 68.8979 15.0508C69.2567 15.1374 69.5814 15.2611 69.8721 15.4219C70.2803 15.6383 70.6235 15.9229 70.9019 16.2754C71.1864 16.6217 71.4121 17.0114 71.5791 17.4443C71.709 17.7783 71.8049 18.1401 71.8667 18.5298C71.9347 18.9132 71.9718 19.3153 71.978 19.7358V20.7471C71.9718 21.1615 71.9378 21.5604 71.876 21.9438C71.8141 22.3211 71.7214 22.6737 71.5977 23.0015C71.4554 23.4035 71.2606 23.7684 71.0132 24.0962C70.772 24.4178 70.4844 24.6899 70.1504 24.9126C69.835 25.1291 69.4731 25.2961 69.0649 25.4136C68.6629 25.5311 68.2145 25.5929 67.7197 25.5991H66.3374V14.9023ZM76.1807 13.4922V14.9858H79.3442V25.5156H76.1807V27H84.3447V25.5156H81.1069V14.9858H84.3447V13.4922H76.1807ZM94.6611 23.5859C94.6611 23.957 94.5807 24.2786 94.4199 24.5508C94.2591 24.8167 94.0519 25.0363 93.7983 25.2095C93.5448 25.3888 93.2541 25.5218 92.9263 25.6084C92.6047 25.6888 92.2769 25.729 91.9429 25.729C91.5223 25.729 91.1326 25.6733 90.7739 25.562C90.4214 25.4445 90.109 25.2713 89.8369 25.0425C89.5648 24.8198 89.3421 24.5477 89.1689 24.2261C88.9958 23.8983 88.8813 23.5241 88.8257 23.1035H87.0723C87.0908 23.6849 87.2176 24.2137 87.4526 24.6899C87.6938 25.16 88.0186 25.5713 88.4268 25.9238C88.8844 26.332 89.4225 26.6444 90.041 26.8608C90.6657 27.0773 91.2996 27.1855 91.9429 27.1855C92.481 27.1855 93.019 27.1113 93.5571 26.9629C94.0952 26.8083 94.5776 26.5794 95.0044 26.2764C95.4312 25.9795 95.7775 25.6053 96.0435 25.1538C96.3156 24.7023 96.4517 24.1735 96.4517 23.5674C96.4517 22.9674 96.3249 22.4386 96.0713 21.981C95.8239 21.5233 95.4961 21.1367 95.0879 20.8213C94.6735 20.4811 94.2158 20.2028 93.7148 19.9863C93.2139 19.7637 92.7129 19.575 92.2119 19.4204C91.9089 19.3276 91.5841 19.2194 91.2378 19.0957C90.8976 18.972 90.5822 18.8174 90.2915 18.6318C89.9946 18.4463 89.7503 18.2205 89.5586 17.9546C89.3669 17.6825 89.2679 17.3516 89.2617 16.9619C89.2617 16.6032 89.3328 16.2878 89.4751 16.0156C89.6235 15.7435 89.8215 15.5146 90.0688 15.3291C90.3101 15.1436 90.5853 15.0044 90.8945 14.9116C91.21 14.8188 91.5316 14.7725 91.8594 14.7725C92.2676 14.7725 92.6325 14.8374 92.9541 14.9673C93.2819 15.091 93.5633 15.2673 93.7983 15.4961C94.0334 15.7249 94.222 16.0002 94.3643 16.3218C94.5065 16.6372 94.6024 16.9897 94.6519 17.3794H96.4146C96.4022 16.7609 96.2692 16.2012 96.0156 15.7002C95.762 15.1992 95.425 14.7725 95.0044 14.4199C94.5838 14.0674 94.1014 13.7952 93.5571 13.6035C93.0129 13.4056 92.4469 13.3066 91.8594 13.3066C91.3275 13.3066 90.7987 13.3901 90.2729 13.5571C89.7472 13.7179 89.2772 13.9561 88.8628 14.2715C88.4484 14.5869 88.1113 14.9735 87.8516 15.4312C87.598 15.8888 87.4712 16.4084 87.4712 16.9897C87.4712 17.5711 87.598 18.0783 87.8516 18.5112C88.1113 18.938 88.4453 19.3091 88.8535 19.6245C89.2555 19.9338 89.7008 20.1997 90.1895 20.4224C90.6842 20.6388 91.1698 20.8244 91.646 20.979C91.9738 21.0841 92.314 21.2017 92.6665 21.3315C93.0252 21.4614 93.353 21.6222 93.6499 21.814C93.9468 22.0119 94.188 22.2531 94.3735 22.5376C94.5653 22.8221 94.6611 23.1715 94.6611 23.5859ZM107.751 22.9365H106.035C105.979 23.3447 105.884 23.7251 105.748 24.0776C105.611 24.424 105.429 24.724 105.2 24.9775C104.971 25.2373 104.69 25.4383 104.356 25.5806C104.028 25.7228 103.639 25.7939 103.187 25.7939C102.773 25.7939 102.411 25.729 102.102 25.5991C101.792 25.4631 101.523 25.2775 101.294 25.0425C101.066 24.8136 100.877 24.5477 100.729 24.2446C100.58 23.9416 100.459 23.6169 100.367 23.2705C100.274 22.9303 100.206 22.584 100.163 22.2314C100.125 21.8727 100.107 21.5264 100.107 21.1924V19.2905C100.107 18.9565 100.125 18.6133 100.163 18.2607C100.206 17.902 100.274 17.5526 100.367 17.2124C100.459 16.8722 100.58 16.5506 100.729 16.2476C100.883 15.9445 101.075 15.6785 101.304 15.4497C101.526 15.2209 101.792 15.0415 102.102 14.9116C102.417 14.7756 102.779 14.7075 103.187 14.7075C103.639 14.7075 104.028 14.7848 104.356 14.9395C104.69 15.0879 104.971 15.2951 105.2 15.561C105.429 15.827 105.611 16.1362 105.748 16.4888C105.884 16.8413 105.979 17.2217 106.035 17.6299H107.751C107.677 16.9867 107.523 16.3991 107.288 15.8672C107.059 15.3353 106.753 14.8776 106.369 14.4941C105.986 14.1169 105.528 13.8262 104.996 13.6221C104.464 13.4118 103.861 13.3066 103.187 13.3066C102.624 13.3066 102.117 13.387 101.666 13.5479C101.214 13.7025 100.812 13.9189 100.459 14.1973C100.101 14.4756 99.7915 14.8065 99.5317 15.1899C99.2782 15.5672 99.0679 15.9785 98.9009 16.4238C98.7277 16.8691 98.5978 17.3361 98.5112 17.8247C98.4308 18.3133 98.3875 18.8081 98.3813 19.3091V21.1924C98.3875 21.6934 98.4308 22.1882 98.5112 22.6768C98.5978 23.1654 98.7277 23.6323 98.9009 24.0776C99.0679 24.5229 99.2782 24.9342 99.5317 25.3115C99.7915 25.6888 100.101 26.0166 100.459 26.2949C100.812 26.5732 101.214 26.7928 101.666 26.9536C102.123 27.1082 102.63 27.1855 103.187 27.1855C103.836 27.1855 104.424 27.0835 104.95 26.8794C105.482 26.6691 105.942 26.3753 106.332 25.998C106.715 25.627 107.028 25.1816 107.269 24.6621C107.51 24.1364 107.671 23.5612 107.751 22.9365ZM119.2 21.0254V19.4854C119.194 19.0029 119.15 18.5143 119.07 18.0195C118.996 17.5247 118.878 17.0485 118.717 16.5908C118.55 16.1331 118.34 15.7064 118.086 15.3105C117.839 14.9085 117.542 14.5591 117.196 14.2622C116.849 13.9653 116.451 13.7334 115.999 13.5664C115.548 13.3932 115.043 13.3066 114.487 13.3066C113.93 13.3066 113.426 13.3932 112.975 13.5664C112.529 13.7334 112.133 13.9653 111.787 14.2622C111.441 14.5653 111.141 14.9178 110.887 15.3198C110.64 15.7157 110.436 16.1424 110.275 16.6001C110.108 17.0578 109.984 17.534 109.904 18.0288C109.83 18.5174 109.789 19.0029 109.783 19.4854V21.0254C109.789 21.5078 109.833 21.9933 109.913 22.4819C109.993 22.9705 110.117 23.4437 110.284 23.9014C110.445 24.359 110.652 24.7889 110.906 25.1909C111.159 25.5868 111.459 25.9331 111.806 26.23C112.152 26.5269 112.548 26.7619 112.993 26.9351C113.445 27.1021 113.949 27.1855 114.505 27.1855C115.062 27.1855 115.563 27.1021 116.008 26.9351C116.46 26.7619 116.859 26.5269 117.205 26.23C117.551 25.9331 117.848 25.5868 118.096 25.1909C118.349 24.7951 118.556 24.3683 118.717 23.9106C118.878 23.453 118.996 22.9798 119.07 22.4912C119.15 21.9964 119.194 21.5078 119.2 21.0254ZM117.502 19.4668V21.0254C117.496 21.347 117.474 21.6841 117.437 22.0366C117.406 22.3892 117.347 22.7355 117.261 23.0757C117.168 23.422 117.047 23.7529 116.899 24.0684C116.757 24.3776 116.577 24.6497 116.361 24.8848C116.138 25.126 115.872 25.3177 115.563 25.46C115.26 25.6022 114.907 25.6733 114.505 25.6733C114.103 25.6733 113.751 25.6022 113.448 25.46C113.145 25.3177 112.882 25.126 112.659 24.8848C112.437 24.6497 112.251 24.3745 112.103 24.0591C111.954 23.7437 111.833 23.4128 111.741 23.0664C111.648 22.7262 111.58 22.3799 111.537 22.0273C111.5 21.6748 111.478 21.3408 111.472 21.0254V19.4668C111.478 19.1514 111.5 18.8205 111.537 18.4741C111.58 18.1216 111.648 17.7721 111.741 17.4258C111.827 17.0856 111.945 16.7609 112.093 16.4517C112.242 16.1362 112.427 15.8579 112.65 15.6167C112.873 15.3817 113.135 15.193 113.438 15.0508C113.742 14.9085 114.091 14.8374 114.487 14.8374C114.889 14.8374 115.241 14.9085 115.544 15.0508C115.847 15.1868 116.11 15.3724 116.333 15.6074C116.556 15.8486 116.741 16.127 116.89 16.4424C117.038 16.7516 117.159 17.0763 117.251 17.4165C117.338 17.7629 117.4 18.1123 117.437 18.4648C117.474 18.8112 117.496 19.1452 117.502 19.4668ZM130.286 27V13.4922H128.551L128.523 23.5674L123.282 13.4922H121.538V27H123.272L123.3 16.9062L128.542 27H130.286ZM141.697 27V13.4922H139.962L139.935 23.5674L134.693 13.4922H132.949V27H134.684L134.711 16.9062L139.953 27H141.697ZM152.079 20.7563V19.2998H146.438V14.958H152.932V13.4922H144.722V27H153.016V25.5435H146.438V20.7563H152.079ZM164.807 22.9365H163.091C163.035 23.3447 162.939 23.7251 162.803 24.0776C162.667 24.424 162.485 24.724 162.256 24.9775C162.027 25.2373 161.746 25.4383 161.412 25.5806C161.084 25.7228 160.694 25.7939 160.243 25.7939C159.828 25.7939 159.466 25.729 159.157 25.5991C158.848 25.4631 158.579 25.2775 158.35 25.0425C158.121 24.8136 157.933 24.5477 157.784 24.2446C157.636 23.9416 157.515 23.6169 157.422 23.2705C157.33 22.9303 157.262 22.584 157.218 22.2314C157.181 21.8727 157.163 21.5264 157.163 21.1924V19.2905C157.163 18.9565 157.181 18.6133 157.218 18.2607C157.262 17.902 157.33 17.5526 157.422 17.2124C157.515 16.8722 157.636 16.5506 157.784 16.2476C157.939 15.9445 158.131 15.6785 158.359 15.4497C158.582 15.2209 158.848 15.0415 159.157 14.9116C159.473 14.7756 159.834 14.7075 160.243 14.7075C160.694 14.7075 161.084 14.7848 161.412 14.9395C161.746 15.0879 162.027 15.2951 162.256 15.561C162.485 15.827 162.667 16.1362 162.803 16.4888C162.939 16.8413 163.035 17.2217 163.091 17.6299H164.807C164.733 16.9867 164.578 16.3991 164.343 15.8672C164.114 15.3353 163.808 14.8776 163.425 14.4941C163.041 14.1169 162.584 13.8262 162.052 13.6221C161.52 13.4118 160.917 13.3066 160.243 13.3066C159.68 13.3066 159.173 13.387 158.721 13.5479C158.27 13.7025 157.868 13.9189 157.515 14.1973C157.156 14.4756 156.847 14.8065 156.587 15.1899C156.334 15.5672 156.124 15.9785 155.957 16.4238C155.783 16.8691 155.653 17.3361 155.567 17.8247C155.486 18.3133 155.443 18.8081 155.437 19.3091V21.1924C155.443 21.6934 155.486 22.1882 155.567 22.6768C155.653 23.1654 155.783 23.6323 155.957 24.0776C156.124 24.5229 156.334 24.9342 156.587 25.3115C156.847 25.6888 157.156 26.0166 157.515 26.2949C157.868 26.5732 158.27 26.7928 158.721 26.9536C159.179 27.1082 159.686 27.1855 160.243 27.1855C160.892 27.1855 161.48 27.0835 162.005 26.8794C162.537 26.6691 162.998 26.3753 163.388 25.998C163.771 25.627 164.083 25.1816 164.325 24.6621C164.566 24.1364 164.727 23.5612 164.807 22.9365ZM176.58 14.958V13.4922H166.561V14.958H170.735V27H172.405V14.958H176.58ZM199.041 22.9365H197.324C197.269 23.3447 197.173 23.7251 197.037 24.0776C196.901 24.424 196.718 24.724 196.489 24.9775C196.26 25.2373 195.979 25.4383 195.645 25.5806C195.317 25.7228 194.928 25.7939 194.476 25.7939C194.062 25.7939 193.7 25.729 193.391 25.5991C193.081 25.4631 192.812 25.2775 192.583 25.0425C192.355 24.8136 192.166 24.5477 192.018 24.2446C191.869 23.9416 191.749 23.6169 191.656 23.2705C191.563 22.9303 191.495 22.584 191.452 22.2314C191.415 21.8727 191.396 21.5264 191.396 21.1924V19.2905C191.396 18.9565 191.415 18.6133 191.452 18.2607C191.495 17.902 191.563 17.5526 191.656 17.2124C191.749 16.8722 191.869 16.5506 192.018 16.2476C192.172 15.9445 192.364 15.6785 192.593 15.4497C192.815 15.2209 193.081 15.0415 193.391 14.9116C193.706 14.7756 194.068 14.7075 194.476 14.7075C194.928 14.7075 195.317 14.7848 195.645 14.9395C195.979 15.0879 196.26 15.2951 196.489 15.561C196.718 15.827 196.901 16.1362 197.037 16.4888C197.173 16.8413 197.269 17.2217 197.324 17.6299H199.041C198.966 16.9867 198.812 16.3991 198.577 15.8672C198.348 15.3353 198.042 14.8776 197.658 14.4941C197.275 14.1169 196.817 13.8262 196.285 13.6221C195.753 13.4118 195.15 13.3066 194.476 13.3066C193.913 13.3066 193.406 13.387 192.955 13.5479C192.503 13.7025 192.101 13.9189 191.749 14.1973C191.39 14.4756 191.081 14.8065 190.821 15.1899C190.567 15.5672 190.357 15.9785 190.19 16.4238C190.017 16.8691 189.887 17.3361 189.8 17.8247C189.72 18.3133 189.677 18.8081 189.67 19.3091V21.1924C189.677 21.6934 189.72 22.1882 189.8 22.6768C189.887 23.1654 190.017 23.6323 190.19 24.0776C190.357 24.5229 190.567 24.9342 190.821 25.3115C191.081 25.6888 191.39 26.0166 191.749 26.2949C192.101 26.5732 192.503 26.7928 192.955 26.9536C193.412 27.1082 193.919 27.1855 194.476 27.1855C195.125 27.1855 195.713 27.0835 196.239 26.8794C196.771 26.6691 197.231 26.3753 197.621 25.998C198.005 25.627 198.317 25.1816 198.558 24.6621C198.799 24.1364 198.96 23.5612 199.041 22.9365ZM208.151 23.5024L209.218 27H210.925L206.639 13.4922H205.201L200.84 27H202.557L203.642 23.5024H208.151ZM204.106 22.0088L205.915 16.1455L207.696 22.0088H204.106ZM214.988 21.582H217.651C218.257 21.5758 218.829 21.4831 219.367 21.3037C219.911 21.1243 220.388 20.8646 220.796 20.5244C221.204 20.1842 221.526 19.7668 221.761 19.272C222.002 18.771 222.123 18.1958 222.123 17.5464C222.123 16.897 222.002 16.3218 221.761 15.8208C221.526 15.3198 221.204 14.8993 220.796 14.5591C220.388 14.2189 219.911 13.9591 219.367 13.7798C218.829 13.6004 218.257 13.5046 217.651 13.4922H213.272V27H214.988V21.582ZM214.988 20.1719V14.9023H217.651C218.047 14.9085 218.412 14.9735 218.746 15.0972C219.086 15.2209 219.38 15.3971 219.627 15.626C219.868 15.8548 220.057 16.1331 220.193 16.4609C220.335 16.7887 220.406 17.1567 220.406 17.5649C220.406 17.9731 220.335 18.3381 220.193 18.6597C220.057 18.9751 219.865 19.2441 219.618 19.4668C219.37 19.6895 219.08 19.8626 218.746 19.9863C218.412 20.1038 218.047 20.1657 217.651 20.1719H214.988ZM230.973 23.5024L232.04 27H233.747L229.461 13.4922H228.023L223.663 27H225.379L226.464 23.5024H230.973ZM226.928 22.0088L228.737 16.1455L230.519 22.0088H226.928ZM244.685 22.9365H242.969C242.913 23.3447 242.817 23.7251 242.681 24.0776C242.545 24.424 242.363 24.724 242.134 24.9775C241.905 25.2373 241.624 25.4383 241.29 25.5806C240.962 25.7228 240.572 25.7939 240.121 25.7939C239.706 25.7939 239.344 25.729 239.035 25.5991C238.726 25.4631 238.457 25.2775 238.228 25.0425C237.999 24.8136 237.811 24.5477 237.662 24.2446C237.514 23.9416 237.393 23.6169 237.3 23.2705C237.208 22.9303 237.139 22.584 237.096 22.2314C237.059 21.8727 237.041 21.5264 237.041 21.1924V19.2905C237.041 18.9565 237.059 18.6133 237.096 18.2607C237.139 17.902 237.208 17.5526 237.3 17.2124C237.393 16.8722 237.514 16.5506 237.662 16.2476C237.817 15.9445 238.008 15.6785 238.237 15.4497C238.46 15.2209 238.726 15.0415 239.035 14.9116C239.351 14.7756 239.712 14.7075 240.121 14.7075C240.572 14.7075 240.962 14.7848 241.29 14.9395C241.624 15.0879 241.905 15.2951 242.134 15.561C242.363 15.827 242.545 16.1362 242.681 16.4888C242.817 16.8413 242.913 17.2217 242.969 17.6299H244.685C244.611 16.9867 244.456 16.3991 244.221 15.8672C243.992 15.3353 243.686 14.8776 243.303 14.4941C242.919 14.1169 242.462 13.8262 241.93 13.6221C241.398 13.4118 240.795 13.3066 240.121 13.3066C239.558 13.3066 239.051 13.387 238.599 13.5479C238.148 13.7025 237.746 13.9189 237.393 14.1973C237.034 14.4756 236.725 14.8065 236.465 15.1899C236.212 15.5672 236.001 15.9785 235.834 16.4238C235.661 16.8691 235.531 17.3361 235.445 17.8247C235.364 18.3133 235.321 18.8081 235.315 19.3091V21.1924C235.321 21.6934 235.364 22.1882 235.445 22.6768C235.531 23.1654 235.661 23.6323 235.834 24.0776C236.001 24.5229 236.212 24.9342 236.465 25.3115C236.725 25.6888 237.034 26.0166 237.393 26.2949C237.746 26.5732 238.148 26.7928 238.599 26.9536C239.057 27.1082 239.564 27.1855 240.121 27.1855C240.77 27.1855 241.358 27.0835 241.883 26.8794C242.415 26.6691 242.876 26.3753 243.266 25.998C243.649 25.627 243.961 25.1816 244.203 24.6621C244.444 24.1364 244.605 23.5612 244.685 22.9365ZM247.348 13.4922V14.9858H250.511V25.5156H247.348V27H255.512V25.5156H252.274V14.9858H255.512V13.4922H247.348ZM267.869 14.958V13.4922H257.85V14.958H262.024V27H263.694V14.958H267.869ZM278.956 21.0254V19.4854C278.949 19.0029 278.906 18.5143 278.826 18.0195C278.751 17.5247 278.634 17.0485 278.473 16.5908C278.306 16.1331 278.096 15.7064 277.842 15.3105C277.595 14.9085 277.298 14.5591 276.952 14.2622C276.605 13.9653 276.206 13.7334 275.755 13.5664C275.303 13.3932 274.799 13.3066 274.243 13.3066C273.686 13.3066 273.182 13.3932 272.73 13.5664C272.285 13.7334 271.889 13.9653 271.543 14.2622C271.197 14.5653 270.897 14.9178 270.643 15.3198C270.396 15.7157 270.192 16.1424 270.031 16.6001C269.864 17.0578 269.74 17.534 269.66 18.0288C269.585 18.5174 269.545 19.0029 269.539 19.4854V21.0254C269.545 21.5078 269.589 21.9933 269.669 22.4819C269.749 22.9705 269.873 23.4437 270.04 23.9014C270.201 24.359 270.408 24.7889 270.662 25.1909C270.915 25.5868 271.215 25.9331 271.562 26.23C271.908 26.5269 272.304 26.7619 272.749 26.9351C273.201 27.1021 273.705 27.1855 274.261 27.1855C274.818 27.1855 275.319 27.1021 275.764 26.9351C276.216 26.7619 276.615 26.5269 276.961 26.23C277.307 25.9331 277.604 25.5868 277.852 25.1909C278.105 24.7951 278.312 24.3683 278.473 23.9106C278.634 23.453 278.751 22.9798 278.826 22.4912C278.906 21.9964 278.949 21.5078 278.956 21.0254ZM277.258 19.4668V21.0254C277.252 21.347 277.23 21.6841 277.193 22.0366C277.162 22.3892 277.103 22.7355 277.017 23.0757C276.924 23.422 276.803 23.7529 276.655 24.0684C276.513 24.3776 276.333 24.6497 276.117 24.8848C275.894 25.126 275.628 25.3177 275.319 25.46C275.016 25.6022 274.663 25.6733 274.261 25.6733C273.859 25.6733 273.507 25.6022 273.204 25.46C272.901 25.3177 272.638 25.126 272.415 24.8848C272.192 24.6497 272.007 24.3745 271.858 24.0591C271.71 23.7437 271.589 23.4128 271.497 23.0664C271.404 22.7262 271.336 22.3799 271.292 22.0273C271.255 21.6748 271.234 21.3408 271.228 21.0254V19.4668C271.234 19.1514 271.255 18.8205 271.292 18.4741C271.336 18.1216 271.404 17.7721 271.497 17.4258C271.583 17.0856 271.701 16.7609 271.849 16.4517C271.998 16.1362 272.183 15.8579 272.406 15.6167C272.628 15.3817 272.891 15.193 273.194 15.0508C273.497 14.9085 273.847 14.8374 274.243 14.8374C274.645 14.8374 274.997 14.9085 275.3 15.0508C275.603 15.1868 275.866 15.3724 276.089 15.6074C276.312 15.8486 276.497 16.127 276.646 16.4424C276.794 16.7516 276.915 17.0763 277.007 17.4165C277.094 17.7629 277.156 18.1123 277.193 18.4648C277.23 18.8112 277.252 19.1452 277.258 19.4668ZM286.053 21.4893L288.706 27H290.515L290.524 26.8887L287.658 21.1182C288.029 20.9574 288.369 20.7625 288.678 20.5337C288.987 20.3049 289.253 20.042 289.476 19.7451C289.699 19.4482 289.872 19.1174 289.996 18.7524C290.125 18.3875 290.19 17.9855 290.19 17.5464C290.19 16.866 290.07 16.2754 289.829 15.7744C289.594 15.2673 289.269 14.8467 288.854 14.5127C288.434 14.1787 287.945 13.9282 287.389 13.7612C286.832 13.5942 286.238 13.5046 285.607 13.4922H281.646V27H283.353V21.4893H286.053ZM283.353 20.0791V14.9023H285.607C286.022 14.9085 286.402 14.9673 286.749 15.0786C287.101 15.1899 287.404 15.3538 287.658 15.5703C287.911 15.793 288.109 16.0682 288.251 16.396C288.394 16.7176 288.465 17.0949 288.465 17.5278C288.465 17.936 288.391 18.2979 288.242 18.6133C288.094 18.9225 287.893 19.1854 287.639 19.4019C287.379 19.6183 287.079 19.7853 286.739 19.9028C286.399 20.0142 286.037 20.0729 285.654 20.0791H283.353ZM304.227 27H307.354C308.003 26.9938 308.606 26.9165 309.163 26.7681C309.725 26.6196 310.229 26.4062 310.675 26.1279C311.095 25.862 311.476 25.5404 311.816 25.1631C312.156 24.7858 312.438 24.3652 312.66 23.9014C312.877 23.4561 313.041 22.9674 313.152 22.4355C313.269 21.9036 313.328 21.3408 313.328 20.7471V19.7544C313.322 19.1359 313.257 18.5545 313.133 18.0103C313.016 17.466 312.843 16.965 312.614 16.5073C312.36 15.9692 312.02 15.4961 311.593 15.0879C311.173 14.6735 310.687 14.3395 310.137 14.0859C309.741 13.9004 309.308 13.7581 308.838 13.6592C308.374 13.554 307.879 13.4984 307.354 13.4922H304.227V27ZM305.971 14.9023H307.354C307.78 14.9085 308.173 14.958 308.532 15.0508C308.89 15.1374 309.215 15.2611 309.506 15.4219C309.914 15.6383 310.257 15.9229 310.536 16.2754C310.82 16.6217 311.046 17.0114 311.213 17.4443C311.343 17.7783 311.439 18.1401 311.5 18.5298C311.569 18.9132 311.606 19.3153 311.612 19.7358V20.7471C311.606 21.1615 311.572 21.5604 311.51 21.9438C311.448 22.3211 311.355 22.6737 311.231 23.0015C311.089 23.4035 310.894 23.7684 310.647 24.0962C310.406 24.4178 310.118 24.6899 309.784 24.9126C309.469 25.1291 309.107 25.2961 308.699 25.4136C308.297 25.5311 307.848 25.5929 307.354 25.5991H305.971V14.9023ZM320.286 21.4893L322.939 27H324.749L324.758 26.8887L321.891 21.1182C322.262 20.9574 322.602 20.7625 322.912 20.5337C323.221 20.3049 323.487 20.042 323.709 19.7451C323.932 19.4482 324.105 19.1174 324.229 18.7524C324.359 18.3875 324.424 17.9855 324.424 17.5464C324.424 16.866 324.303 16.2754 324.062 15.7744C323.827 15.2673 323.502 14.8467 323.088 14.5127C322.667 14.1787 322.179 13.9282 321.622 13.7612C321.065 13.5942 320.472 13.5046 319.841 13.4922H315.879V27H317.586V21.4893H320.286ZM317.586 20.0791V14.9023H319.841C320.255 14.9085 320.636 14.9673 320.982 15.0786C321.334 15.1899 321.638 15.3538 321.891 15.5703C322.145 15.793 322.343 16.0682 322.485 16.396C322.627 16.7176 322.698 17.0949 322.698 17.5278C322.698 17.936 322.624 18.2979 322.476 18.6133C322.327 18.9225 322.126 19.1854 321.873 19.4019C321.613 19.6183 321.313 19.7853 320.973 19.9028C320.632 20.0142 320.271 20.0729 319.887 20.0791H317.586ZM327.226 13.4922V14.9858H330.389V25.5156H327.226V27H335.39V25.5156H332.152V14.9858H335.39V13.4922H327.226ZM341.949 27H343.442L347.701 13.4922H345.873L342.886 23.5581L342.682 24.2354L342.487 23.5767L339.518 13.4922H337.681L341.949 27ZM357.479 20.7563V19.2998H351.838V14.958H358.333V13.4922H350.122V27H358.416V25.5435H351.838V20.7563H357.479ZM133.218 52H137.541C138.116 51.9938 138.673 51.9041 139.211 51.731C139.755 51.5578 140.235 51.3073 140.649 50.9795C141.063 50.6579 141.394 50.2559 141.642 49.7734C141.889 49.291 142.01 48.7344 142.003 48.1035C142.003 47.7015 141.942 47.3273 141.818 46.981C141.7 46.6346 141.533 46.3223 141.317 46.0439C141.113 45.7904 140.853 45.5584 140.538 45.3481C140.222 45.1379 139.894 44.9925 139.554 44.9121V44.8843C139.882 44.742 140.16 44.5905 140.389 44.4297C140.624 44.2689 140.838 44.071 141.029 43.8359C141.215 43.6071 141.36 43.3473 141.465 43.0566C141.577 42.766 141.635 42.4443 141.642 42.0918C141.648 41.4609 141.527 40.9198 141.28 40.4683C141.032 40.0168 140.701 39.6457 140.287 39.355C139.873 39.0643 139.4 38.8509 138.868 38.7148C138.336 38.5726 137.792 38.4984 137.235 38.4922H133.218V52ZM134.943 45.6821H137.68C138.045 45.6945 138.385 45.7563 138.701 45.8677C139.016 45.979 139.291 46.1367 139.526 46.3408C139.761 46.5511 139.944 46.8047 140.074 47.1016C140.21 47.3984 140.275 47.7386 140.269 48.1221C140.269 48.4993 140.194 48.8364 140.046 49.1333C139.904 49.4302 139.709 49.6807 139.461 49.8848C139.214 50.0889 138.93 50.2497 138.608 50.3672C138.286 50.4785 137.946 50.5373 137.587 50.5435H134.943V45.6821ZM134.943 44.2534V39.958H137.291C137.625 39.9642 137.949 40.0075 138.265 40.0879C138.586 40.1683 138.871 40.292 139.118 40.459C139.359 40.6322 139.551 40.8517 139.693 41.1177C139.842 41.3836 139.916 41.7052 139.916 42.0825C139.916 42.4351 139.842 42.7443 139.693 43.0103C139.545 43.2762 139.35 43.4989 139.109 43.6782C138.868 43.8638 138.592 44.006 138.283 44.105C137.974 44.1978 137.659 44.2472 137.337 44.2534H134.943ZM152.079 45.7563V44.2998H146.438V39.958H152.932V38.4922H144.722V52H153.016V50.5435H146.438V45.7563H152.079ZM163.573 46.0347V44.5781H157.951V39.958H164.51V38.4922H156.216V52H157.951V46.0347H163.573ZM176.255 46.0254V44.4854C176.249 44.0029 176.206 43.5143 176.125 43.0195C176.051 42.5247 175.934 42.0485 175.773 41.5908C175.606 41.1331 175.396 40.7064 175.142 40.3105C174.895 39.9085 174.598 39.5591 174.251 39.2622C173.905 38.9653 173.506 38.7334 173.055 38.5664C172.603 38.3932 172.099 38.3066 171.542 38.3066C170.986 38.3066 170.482 38.3932 170.03 38.5664C169.585 38.7334 169.189 38.9653 168.843 39.2622C168.496 39.5653 168.196 39.9178 167.943 40.3198C167.695 40.7157 167.491 41.1424 167.331 41.6001C167.164 42.0578 167.04 42.534 166.959 43.0288C166.885 43.5174 166.845 44.0029 166.839 44.4854V46.0254C166.845 46.5078 166.888 46.9933 166.969 47.4819C167.049 47.9705 167.173 48.4437 167.34 48.9014C167.501 49.359 167.708 49.7889 167.961 50.1909C168.215 50.5868 168.515 50.9331 168.861 51.23C169.208 51.5269 169.604 51.7619 170.049 51.9351C170.5 52.1021 171.004 52.1855 171.561 52.1855C172.118 52.1855 172.619 52.1021 173.064 51.9351C173.515 51.7619 173.914 51.5269 174.261 51.23C174.607 50.9331 174.904 50.5868 175.151 50.1909C175.405 49.7951 175.612 49.3683 175.773 48.9106C175.934 48.453 176.051 47.9798 176.125 47.4912C176.206 46.9964 176.249 46.5078 176.255 46.0254ZM174.558 44.4668V46.0254C174.551 46.347 174.53 46.6841 174.493 47.0366C174.462 47.3892 174.403 47.7355 174.316 48.0757C174.224 48.422 174.103 48.7529 173.955 49.0684C173.812 49.3776 173.633 49.6497 173.417 49.8848C173.194 50.126 172.928 50.3177 172.619 50.46C172.316 50.6022 171.963 50.6733 171.561 50.6733C171.159 50.6733 170.806 50.6022 170.503 50.46C170.2 50.3177 169.938 50.126 169.715 49.8848C169.492 49.6497 169.307 49.3745 169.158 49.0591C169.01 48.7437 168.889 48.4128 168.796 48.0664C168.704 47.7262 168.636 47.3799 168.592 47.0273C168.555 46.6748 168.534 46.3408 168.527 46.0254V44.4668C168.534 44.1514 168.555 43.8205 168.592 43.4741C168.636 43.1216 168.704 42.7721 168.796 42.4258C168.883 42.0856 169 41.7609 169.149 41.4517C169.297 41.1362 169.483 40.8579 169.706 40.6167C169.928 40.3817 170.191 40.193 170.494 40.0508C170.797 39.9085 171.147 39.8374 171.542 39.8374C171.944 39.8374 172.297 39.9085 172.6 40.0508C172.903 40.1868 173.166 40.3724 173.389 40.6074C173.611 40.8486 173.797 41.127 173.945 41.4424C174.094 41.7516 174.214 42.0763 174.307 42.4165C174.394 42.7629 174.456 43.1123 174.493 43.4648C174.53 43.8112 174.551 44.1452 174.558 44.4668ZM183.353 46.4893L186.006 52H187.815L187.824 51.8887L184.958 46.1182C185.329 45.9574 185.669 45.7625 185.978 45.5337C186.287 45.3049 186.553 45.042 186.776 44.7451C186.999 44.4482 187.172 44.1174 187.295 43.7524C187.425 43.3875 187.49 42.9855 187.49 42.5464C187.49 41.866 187.37 41.2754 187.128 40.7744C186.893 40.2673 186.569 39.8467 186.154 39.5127C185.734 39.1787 185.245 38.9282 184.688 38.7612C184.132 38.5942 183.538 38.5046 182.907 38.4922H178.946V52H180.653V46.4893H183.353ZM180.653 45.0791V39.9023H182.907C183.322 39.9085 183.702 39.9673 184.048 40.0786C184.401 40.1899 184.704 40.3538 184.958 40.5703C185.211 40.793 185.409 41.0682 185.551 41.396C185.694 41.7176 185.765 42.0949 185.765 42.5278C185.765 42.936 185.69 43.2979 185.542 43.6133C185.394 43.9225 185.193 44.1854 184.939 44.4019C184.679 44.6183 184.379 44.7853 184.039 44.9028C183.699 45.0142 183.337 45.0729 182.954 45.0791H180.653ZM197.723 45.7563V44.2998H192.083V39.958H198.577V38.4922H190.366V52H198.66V50.5435H192.083V45.7563H197.723ZM221.9 46.0254V44.4854C221.894 44.0029 221.85 43.5143 221.77 43.0195C221.696 42.5247 221.578 42.0485 221.417 41.5908C221.25 41.1331 221.04 40.7064 220.787 40.3105C220.539 39.9085 220.242 39.5591 219.896 39.2622C219.55 38.9653 219.151 38.7334 218.699 38.5664C218.248 38.3932 217.744 38.3066 217.187 38.3066C216.63 38.3066 216.126 38.3932 215.675 38.5664C215.229 38.7334 214.834 38.9653 214.487 39.2622C214.141 39.5653 213.841 39.9178 213.587 40.3198C213.34 40.7157 213.136 41.1424 212.975 41.6001C212.808 42.0578 212.684 42.534 212.604 43.0288C212.53 43.5174 212.49 44.0029 212.483 44.4854V46.0254C212.49 46.5078 212.533 46.9933 212.613 47.4819C212.694 47.9705 212.817 48.4437 212.984 48.9014C213.145 49.359 213.352 49.7889 213.606 50.1909C213.86 50.5868 214.16 50.9331 214.506 51.23C214.852 51.5269 215.248 51.7619 215.693 51.9351C216.145 52.1021 216.649 52.1855 217.206 52.1855C217.762 52.1855 218.263 52.1021 218.708 51.9351C219.16 51.7619 219.559 51.5269 219.905 51.23C220.252 50.9331 220.549 50.5868 220.796 50.1909C221.049 49.7951 221.257 49.3683 221.417 48.9106C221.578 48.453 221.696 47.9798 221.77 47.4912C221.85 46.9964 221.894 46.5078 221.9 46.0254ZM220.202 44.4668V46.0254C220.196 46.347 220.174 46.6841 220.137 47.0366C220.106 47.3892 220.048 47.7355 219.961 48.0757C219.868 48.422 219.748 48.7529 219.599 49.0684C219.457 49.3776 219.278 49.6497 219.061 49.8848C218.838 50.126 218.572 50.3177 218.263 50.46C217.96 50.6022 217.608 50.6733 217.206 50.6733C216.804 50.6733 216.451 50.6022 216.148 50.46C215.845 50.3177 215.582 50.126 215.359 49.8848C215.137 49.6497 214.951 49.3745 214.803 49.0591C214.654 48.7437 214.534 48.4128 214.441 48.0664C214.348 47.7262 214.28 47.3799 214.237 47.0273C214.2 46.6748 214.178 46.3408 214.172 46.0254V44.4668C214.178 44.1514 214.2 43.8205 214.237 43.4741C214.28 43.1216 214.348 42.7721 214.441 42.4258C214.528 42.0856 214.645 41.7609 214.793 41.4517C214.942 41.1362 215.127 40.8579 215.35 40.6167C215.573 40.3817 215.836 40.193 216.139 40.0508C216.442 39.9085 216.791 39.8374 217.187 39.8374C217.589 39.8374 217.942 39.9085 218.245 40.0508C218.548 40.1868 218.811 40.3724 219.033 40.6074C219.256 40.8486 219.441 41.127 219.59 41.4424C219.738 41.7516 219.859 42.0763 219.952 42.4165C220.038 42.7629 220.1 43.1123 220.137 43.4648C220.174 43.8112 220.196 44.1452 220.202 44.4668ZM226.399 46.582H229.062C229.668 46.5758 230.24 46.4831 230.778 46.3037C231.323 46.1243 231.799 45.8646 232.207 45.5244C232.615 45.1842 232.937 44.7668 233.172 44.272C233.413 43.771 233.534 43.1958 233.534 42.5464C233.534 41.897 233.413 41.3218 233.172 40.8208C232.937 40.3198 232.615 39.8993 232.207 39.5591C231.799 39.2189 231.323 38.9591 230.778 38.7798C230.24 38.6004 229.668 38.5046 229.062 38.4922H224.683V52H226.399V46.582ZM226.399 45.1719V39.9023H229.062C229.458 39.9085 229.823 39.9735 230.157 40.0972C230.497 40.2209 230.791 40.3971 231.038 40.626C231.279 40.8548 231.468 41.1331 231.604 41.4609C231.746 41.7887 231.817 42.1567 231.817 42.5649C231.817 42.9731 231.746 43.3381 231.604 43.6597C231.468 43.9751 231.276 44.2441 231.029 44.4668C230.781 44.6895 230.491 44.8626 230.157 44.9863C229.823 45.1038 229.458 45.1657 229.062 45.1719H226.399ZM243.368 45.7563V44.2998H237.727V39.958H244.221V38.4922H236.011V52H244.305V50.5435H237.727V45.7563H243.368ZM255.809 52V38.4922H254.074L254.046 48.5674L248.804 38.4922H247.06V52H248.795L248.823 41.9062L254.064 52H255.809ZM258.759 38.4922V39.9858H261.922V50.5156H258.759V52H266.923V50.5156H263.685V39.9858H266.923V38.4922H258.759ZM278.631 52V38.4922H276.896L276.868 48.5674L271.626 38.4922H269.882V52H271.617L271.645 41.9062L276.887 52H278.631ZM290.32 50.228L290.292 45.2739H285.914V46.7212H288.66L288.641 49.7549C288.499 49.959 288.323 50.126 288.112 50.2559C287.902 50.3796 287.676 50.4785 287.435 50.5527C287.194 50.627 286.943 50.6764 286.684 50.7012C286.43 50.7259 286.186 50.7352 285.951 50.729C285.542 50.7228 285.178 50.6517 284.856 50.5156C284.534 50.3734 284.253 50.1847 284.012 49.9497C283.764 49.7147 283.554 49.4425 283.381 49.1333C283.208 48.8241 283.065 48.4963 282.954 48.1499C282.843 47.8035 282.759 47.451 282.704 47.0923C282.654 46.7274 282.626 46.3748 282.62 46.0347V44.4482C282.62 44.1143 282.642 43.7679 282.685 43.4092C282.728 43.0505 282.799 42.6979 282.898 42.3516C282.997 42.0052 283.124 41.6774 283.279 41.3682C283.433 41.0527 283.628 40.7775 283.863 40.5425C284.098 40.3075 284.374 40.1219 284.689 39.9858C285.004 39.8436 285.366 39.7725 285.774 39.7725C286.201 39.7725 286.575 39.8405 286.897 39.9766C287.219 40.1064 287.497 40.2889 287.732 40.5239C287.961 40.759 288.146 41.0435 288.289 41.3774C288.431 41.7052 288.536 42.064 288.604 42.4536H290.302C290.246 41.8228 290.098 41.2537 289.856 40.7466C289.615 40.2332 289.297 39.7941 288.901 39.4292C288.505 39.0705 288.041 38.7952 287.509 38.6035C286.977 38.4056 286.396 38.3066 285.765 38.3066C285.196 38.3066 284.683 38.3901 284.225 38.5571C283.767 38.7241 283.359 38.9499 283 39.2344C282.636 39.5251 282.323 39.8683 282.063 40.2642C281.804 40.6538 281.587 41.0775 281.414 41.5352C281.241 41.9928 281.111 42.4722 281.024 42.9731C280.944 43.4679 280.901 43.9658 280.895 44.4668V46.0347C280.901 46.5418 280.95 47.0459 281.043 47.5469C281.142 48.0417 281.287 48.5148 281.479 48.9663C281.665 49.424 281.896 49.8477 282.175 50.2373C282.453 50.627 282.778 50.964 283.149 51.2485C283.52 51.5392 283.938 51.7681 284.401 51.9351C284.871 52.0959 285.385 52.1794 285.941 52.1855C286.492 52.1917 287.018 52.1299 287.519 52C288.02 51.8763 288.486 51.6846 288.919 51.4248C289.173 51.2764 289.417 51.1032 289.652 50.9053C289.887 50.7012 290.11 50.4754 290.32 50.228Z" fill="white"/>
<defs>
<filter id="filter0_b_631_89" x="37" y="60" width="350" height="396" filterUnits="userSpaceOnUse" color-interpolation-filters="sRGB">
<feFlood flood-opacity="0" result="BackgroundImageFix"/>
<feGaussianBlur in="BackgroundImage" stdDeviation="1"/>
<feComposite in2="SourceAlpha" operator="in" result="effect1_backgroundBlur_631_89"/>
<feBlend mode="normal" in="SourceGraphic" in2="effect1_backgroundBlur_631_89" result="shape"/>
</filter>
<filter id="filter1_f_631_89" x="144" y="230" width="139" height="111" filterUnits="userSpaceOnUse" color-interpolation-filters="sRGB">
<feFlood flood-opacity="0" result="BackgroundImageFix"/>
<feBlend mode="normal" in="SourceGraphic" in2="BackgroundImageFix" result="shape"/>
<feGaussianBlur stdDeviation="20" result="effect1_foregroundBlur_631_89"/>
</filter>
<filter id="filter2_f_631_89" x="223.981" y="105.14" width="126.354" height="127.907" filterUnits="userSpaceOnUse" color-interpolation-filters="sRGB">
<feFlood flood-opacity="0" result="BackgroundImageFix"/>
<feBlend mode="normal" in="SourceGraphic" in2="BackgroundImageFix" result="shape"/>
<feGaussianBlur stdDeviation="20" result="effect1_foregroundBlur_631_89"/>
</filter>
<filter id="filter3_f_631_89" x="120.792" y="143.223" width="125.185" height="129.011" filterUnits="userSpaceOnUse" color-interpolation-filters="sRGB">
<feFlood flood-opacity="0" result="BackgroundImageFix"/>
<feBlend mode="normal" in="SourceGraphic" in2="BackgroundImageFix" result="shape"/>
<feGaussianBlur stdDeviation="20" result="effect1_foregroundBlur_631_89"/>
</filter>
<filter id="filter4_f_631_89" x="144" y="290" width="139" height="111" filterUnits="userSpaceOnUse" color-interpolation-filters="sRGB">
<feFlood flood-opacity="0" result="BackgroundImageFix"/>
<feBlend mode="normal" in="SourceGraphic" in2="BackgroundImageFix" result="shape"/>
<feGaussianBlur stdDeviation="20" result="effect1_foregroundBlur_631_89"/>
</filter>
<filter id="filter5_f_631_89" x="180.342" y="146.318" width="126.354" height="127.907" filterUnits="userSpaceOnUse" color-interpolation-filters="sRGB">
<feFlood flood-opacity="0" result="BackgroundImageFix"/>
<feBlend mode="normal" in="SourceGraphic" in2="BackgroundImageFix" result="shape"/>
<feGaussianBlur stdDeviation="20" result="effect1_foregroundBlur_631_89"/>
</filter>
<filter id="filter6_f_631_89" x="75.4375" y="103.941" width="125.185" height="129.011" filterUnits="userSpaceOnUse" color-interpolation-filters="sRGB">
<feFlood flood-opacity="0" result="BackgroundImageFix"/>
<feBlend mode="normal" in="SourceGraphic" in2="BackgroundImageFix" result="shape"/>
<feGaussianBlur stdDeviation="20" result="effect1_foregroundBlur_631_89"/>
</filter>
</defs>
</svg>
