<svg width="2135" height="1823" viewBox="0 0 2135 1823" fill="none" xmlns="http://www.w3.org/2000/svg">
<circle cx="278" cy="1439" r="221" fill="white" fill-opacity="0.25"/>
<circle cx="233.5" cy="1381.5" r="98.5" fill="black" fill-opacity="0.8"/>
<circle cx="851.237" cy="726.95" r="221" transform="rotate(56.5273 851.237 726.95)" fill="white" fill-opacity="0.25"/>
<circle cx="874.657" cy="658.117" r="98.5" transform="rotate(56.5273 874.657 658.117)" fill="black" fill-opacity="0.8"/>
<circle cx="359.87" cy="1050.18" r="221" transform="rotate(-77.3593 359.87 1050.18)" fill="white" fill-opacity="0.25"/>
<circle cx="294.026" cy="1081.02" r="98.5" transform="rotate(-77.3593 294.026 1081.02)" fill="black" fill-opacity="0.8"/>
<circle cx="1220.73" cy="580.791" r="221" transform="rotate(-20.832 1220.73 580.791)" fill="white" fill-opacity="0.25"/>
<circle cx="1158.69" cy="542.876" r="98.5" transform="rotate(-20.832 1158.69 542.876)" fill="black" fill-opacity="0.8"/>
<circle cx="631" cy="1259" r="221" transform="rotate(89.1459 631 1259)" fill="white" fill-opacity="0.25"/>
<circle cx="687.83" cy="1213.65" r="98.5" transform="rotate(89.1459 687.83 1213.65)" fill="black" fill-opacity="0.8"/>
<circle cx="1196.08" cy="922.128" r="221" transform="rotate(145.673 1196.08 922.128)" fill="white" fill-opacity="0.25"/>
<circle cx="1265.25" cy="944.52" r="98.5" transform="rotate(145.673 1265.25 944.52)" fill="black" fill-opacity="0.8"/>
<circle cx="261.483" cy="666.344" r="221" transform="rotate(11.7865 261.483 666.344)" fill="white" fill-opacity="0.25"/>
<circle cx="229.666" cy="600.966" r="98.5" transform="rotate(11.7865 229.666 600.966)" fill="black" fill-opacity="0.8"/>
<circle cx="1486.64" cy="287.022" r="221" transform="rotate(68.3138 1486.64 287.022)" fill="white" fill-opacity="0.25"/>
<circle cx="1523.62" cy="224.424" r="98.5" transform="rotate(68.3138 1523.62 224.424)" fill="black" fill-opacity="0.8"/>
<circle cx="954.412" cy="1521.41" r="221" transform="rotate(-150.336 954.412 1521.41)" fill="white" fill-opacity="0.25"/>
<circle cx="964.623" cy="1593.4" r="98.5" transform="rotate(-150.336 964.623 1593.4)" fill="black" fill-opacity="0.8"/>
<circle cx="1155.56" cy="1336.63" r="221" transform="rotate(-93.8084 1155.56 1336.63)" fill="white" fill-opacity="0.25"/>
<circle cx="1101.14" cy="1384.85" r="98.5" transform="rotate(-93.8084 1101.14 1384.85)" fill="black" fill-opacity="0.8"/>
<circle cx="588.308" cy="408.195" r="221" transform="rotate(132.305 588.308 408.195)" fill="white" fill-opacity="0.25"/>
<circle cx="660.786" cy="413.987" r="98.5" transform="rotate(132.305 660.786 413.987)" fill="black" fill-opacity="0.8"/>
<circle cx="1882.23" cy="417.265" r="221" transform="rotate(-171.168 1882.23 417.265)" fill="white" fill-opacity="0.25"/>
<circle cx="1917.37" cy="480.916" r="98.5" transform="rotate(-171.168 1917.37 480.916)" fill="black" fill-opacity="0.8"/>
</svg>
