<svg width="690" height="807" viewBox="0 0 690 807" fill="none" xmlns="http://www.w3.org/2000/svg">
<rect x="218" y="679.689" width="15.8621" height="112.621" fill="#8F6450" stroke="black" stroke-width="4"/>
<rect x="218" y="667" width="253.793" height="12.6897" fill="#724F40" stroke="black" stroke-width="4"/>
<rect x="218" y="792.311" width="253.793" height="12.6897" fill="#724F40" stroke="black" stroke-width="4"/>
<rect x="455.931" y="679.689" width="15.8621" height="112.621" fill="#8F6450" stroke="black" stroke-width="4"/>
<rect x="425.793" y="679.689" width="30.1379" height="20.6207" fill="#7B5A4B" stroke="black" stroke-width="4"/>
<rect x="425.793" y="771.689" width="30.1379" height="20.6207" fill="#7B5A4B" stroke="black" stroke-width="4"/>
<rect x="233.862" y="771.689" width="30.1379" height="20.6207" fill="#7B5A4B" stroke="black" stroke-width="4"/>
<rect x="233.862" y="679.689" width="30.1379" height="20.6207" fill="#7B5A4B" stroke="black" stroke-width="4"/>
<g filter="url(#filter0_ii_629_24)">
<circle cx="345" cy="345" r="338.5" fill="#8F6654" stroke="black" stroke-width="13"/>
<circle cx="345" cy="345" r="312" fill="#8F6654" stroke="black" stroke-width="2"/>
<circle cx="345" cy="345" r="304" fill="#8F6654" stroke="black" stroke-width="4"/>
<circle cx="345" cy="345" r="290" fill="#8F6654" stroke="black" stroke-width="4"/>
<circle cx="345" cy="345" r="272.5" fill="#FFF9F3" stroke="black" stroke-width="5"/>
<circle cx="345" cy="345" r="246.5" fill="#FFF9F3" stroke="black" stroke-width="7"/>
<circle cx="345" cy="345" r="174.5" fill="#FFF9F3" stroke="black" stroke-width="7"/>
<path d="M238.381 391.169L338.015 334.371C345.266 330.238 354.487 332.573 358.896 339.66C363.305 346.746 361.325 356.05 354.413 360.728L259.437 425.011L223.528 423.881L238.381 391.169Z" fill="black" stroke="#505050" stroke-width="5"/>
<path d="M509.203 207.28L337.079 334.921C330.406 339.869 328.911 349.242 333.713 356.02C338.515 362.799 347.853 364.497 354.734 359.844L532.243 239.803L545.116 206.262L509.203 207.28Z" fill="black" stroke="#505050" stroke-width="5"/>
<path d="M348.041 100.95L328.461 136.04L349.251 173H337.921L321.861 143.52L305.801 173H295.021L316.141 135.82L296.341 100.95H307.561L322.631 128.45L337.701 100.95H348.041ZM368.232 100.95V173H358.882V100.95H368.232ZM394.121 100.95V173H384.771V100.95H394.121Z" fill="black"/>
<path d="M323.705 588.05V516H314.355V588.05H323.705ZM388.424 588.05L366.754 516H354.434L333.424 588.05H343.324L360.594 525.02L378.524 588.05H388.424Z" fill="black"/>
<path d="M485.596 143.488L446.042 203.71L438.227 198.577L477.781 138.355L485.596 143.488Z" fill="black"/>
<path d="M192.365 536.663L231.919 476.441L224.104 471.308L184.55 531.53L192.365 536.663ZM204.809 544.836L244.363 484.615L236.548 479.482L196.994 539.703L204.809 544.836ZM249.709 574.327L271.151 502.209L260.853 495.445L203.738 544.133L212.013 549.568L261.05 506.366L241.434 568.892L249.709 574.327Z" fill="black"/>
<path d="M560.666 225.085L497.425 259.608L492.945 251.401L556.186 216.878L560.666 225.085ZM567.8 238.153L504.559 272.676L500.079 264.469L563.32 229.947L567.8 238.153Z" fill="black"/>
<path d="M115.319 434.361L178.559 399.839L174.079 391.632L110.839 426.155L115.319 434.361ZM122.453 447.43L185.693 412.907L181.213 404.7L117.973 439.223L122.453 447.43ZM129.586 460.498L192.827 425.975L188.347 417.768L125.106 452.291L129.586 460.498ZM155.326 507.649L208.183 454.105L202.28 443.292L128.973 459.373L133.716 468.063L197.315 453.021L150.582 498.959L155.326 507.649Z" fill="black"/>
<path d="M101.45 362.865H173.5V372.215H101.45V362.865ZM101.45 311.126L136.54 330.706L173.5 309.916V321.246L144.02 337.306L173.5 353.366V364.146L136.32 343.026L101.45 362.826V351.606L128.95 336.536L101.45 321.466V311.126Z" fill="black"/>
<path d="M591.55 354.733H519.5V364.083H591.55V354.733ZM591.55 339.844H519.5V349.194H591.55V339.844ZM591.55 324.956H519.5V334.306H591.55V324.956Z" fill="black"/>
<path d="M158.668 189.123L177.248 224.752L219.554 227.665L213.334 237.135L179.877 234.375L195.701 263.982L189.783 272.993L170.301 234.929L130.285 232.335L136.445 222.957L167.703 225.458L152.991 197.765L158.668 189.123Z" fill="black"/>
<path d="M562.567 461.458L490.448 440.016L483.685 450.314L532.373 507.429L537.808 499.154L494.606 450.117L557.132 469.733L562.567 461.458ZM566.997 454.712L506.775 415.158L501.642 422.973L561.864 462.528L566.997 454.712Z" fill="black"/>
<path d="M247.758 121.601L247.386 161.782L283.343 184.262L273.398 189.69L245.177 171.51L245.206 205.081L235.744 210.246L236.467 167.492L202.38 146.373L212.228 140.997L238.632 157.913L238.683 126.555L247.758 121.601ZM255.826 117.197L290.348 180.437L282.142 184.918L247.619 121.677L255.826 117.197Z" fill="black"/>
<path d="M489.047 544.835L435.504 491.978L424.69 497.881L440.772 571.188L449.461 566.445L434.419 502.846L480.358 549.579L489.047 544.835Z" fill="black"/>
</g>
<defs>
<filter id="filter0_ii_629_24" x="-49" y="0" width="778" height="694" filterUnits="userSpaceOnUse" color-interpolation-filters="sRGB">
<feFlood flood-opacity="0" result="BackgroundImageFix"/>
<feBlend mode="normal" in="SourceGraphic" in2="BackgroundImageFix" result="shape"/>
<feColorMatrix in="SourceAlpha" type="matrix" values="0 0 0 0 0 0 0 0 0 0 0 0 0 0 0 0 0 0 127 0" result="hardAlpha"/>
<feOffset dx="39" dy="4"/>
<feGaussianBlur stdDeviation="20.5"/>
<feComposite in2="hardAlpha" operator="arithmetic" k2="-1" k3="1"/>
<feColorMatrix type="matrix" values="0 0 0 0 0 0 0 0 0 0 0 0 0 0 0 0 0 0 0.25 0"/>
<feBlend mode="normal" in2="shape" result="effect1_innerShadow_629_24"/>
<feColorMatrix in="SourceAlpha" type="matrix" values="0 0 0 0 0 0 0 0 0 0 0 0 0 0 0 0 0 0 127 0" result="hardAlpha"/>
<feOffset dx="-49" dy="4"/>
<feGaussianBlur stdDeviation="26"/>
<feComposite in2="hardAlpha" operator="arithmetic" k2="-1" k3="1"/>
<feColorMatrix type="matrix" values="0 0 0 0 1 0 0 0 0 1 0 0 0 0 1 0 0 0 0.25 0"/>
<feBlend mode="normal" in2="effect1_innerShadow_629_24" result="effect2_innerShadow_629_24"/>
</filter>
</defs>
</svg>
