<svg width="1356" height="715" viewBox="0 0 1356 715" fill="none" xmlns="http://www.w3.org/2000/svg">
<path fill-rule="evenodd" clip-rule="evenodd" d="M160.607 134.637L104.174 289.686L69.9717 383.656L583.915 570.716C581.816 517.432 613.964 466.6 666.759 447.384C674.386 444.608 682.109 442.614 689.837 441.362L625.755 303.937L569.322 458.987L470.706 247.504L414.272 402.554L315.657 191.071L259.223 346.12L160.607 134.637Z" fill="white"/>
<path fill-rule="evenodd" clip-rule="evenodd" d="M1255.68 148.118L1157.06 359.601L1100.63 204.552L1002.01 416.034L945.58 260.985L846.964 472.467L790.531 317.418L706.366 497.909C698.365 498.183 690.27 499.703 682.338 502.589C641.858 517.323 620.986 562.083 635.72 602.563C650.453 643.043 695.213 663.915 735.693 649.181C758.295 640.955 774.783 623.369 782.376 602.394L1346.31 397.137L1312.11 303.167L1255.68 148.118ZM717.908 600.317C731.402 595.406 738.359 580.486 733.448 566.993C728.537 553.499 713.617 546.542 700.123 551.453C686.63 556.365 679.673 571.285 684.584 584.778C689.495 598.271 704.415 605.229 717.908 600.317Z" fill="white"/>
<rect x="551" y="217" width="335" height="47" fill="white"/>
<rect x="695" y="300" width="47" height="141" fill="white"/>
</svg>
