<svg width="656" height="866" viewBox="0 0 656 866" fill="none" xmlns="http://www.w3.org/2000/svg">
<g filter="url(#filter0_ii_521_52)">
<g clip-path="url(#clip0_521_52)">
<rect width="94" height="215" transform="matrix(-1 0 0 1 274 557)" fill="#48342A"/>
<path fill-rule="evenodd" clip-rule="evenodd" d="M173.475 755.073L198.508 705.007C203.473 695.077 204.636 683.676 201.779 672.948L184.969 609.833C181.583 597.119 182.911 583.609 188.708 571.797L199.575 549.651C204.853 538.896 215.367 531.681 227.301 530.625C250.144 528.604 268.481 549.168 263.865 571.631L251.205 633.244C250.123 638.51 249.981 643.907 250.787 649.22C253.498 667.097 257.039 690.53 259.903 709.679C261.334 719.253 262.597 727.761 263.503 733.969C263.955 737.072 264.319 739.609 264.571 741.419C264.697 742.323 264.796 743.059 264.865 743.599C264.867 743.621 264.87 743.643 264.873 743.667C264.919 744.025 265 754.658 265 755.085H256C256 755.2 256.003 755.278 256.003 755.278C256 755.278 255.987 745.132 255.936 744.734C255.874 744.246 255.781 743.55 255.657 742.658C255.409 740.878 255.048 738.365 254.597 735.268C253.694 729.076 252.433 720.581 251.002 711.01C248.14 691.87 244.6 668.444 241.888 650.57C240.923 644.204 241.094 637.737 242.389 631.432L255.05 569.82C258.452 553.26 244.934 538.1 228.094 539.59C219.297 540.369 211.546 545.688 207.655 553.616L196.787 575.762C191.948 585.623 190.839 596.902 193.666 607.517L210.476 670.632C213.898 683.481 212.505 697.138 206.558 709.031L181.525 759.098L173.475 755.073Z" fill="#513F38"/>
<path d="M278.974 780.292L274.522 701.395C274.508 701.137 274.5 701 274.5 701L274.522 701.395C274.753 705.676 276.494 743.222 266.5 740.5C259.335 738.548 258 714.416 258 714.416C258 714.416 258.323 736.784 254.5 740.5C247.77 747.043 242 730.646 242 730.646C242 730.646 241.227 740.847 235.797 746.877C226.266 757.459 220.233 714.416 220.233 714.416C220.233 714.416 222.507 744.071 211.196 757.379C190.05 782.259 180.068 681 180.068 681C180.57 695.957 182.579 730.646 182.579 730.646C182.579 730.646 179.566 729.691 177.558 726.827C177.558 726.827 174.378 761.357 171.533 749.741C168.688 738.125 162.998 715.466 162.998 717.757C162.998 720.049 167.015 769.949 169.023 794.613L276.965 797L278.974 780.292Z" fill="#312119"/>
</g>
<path d="M228.523 5.3197C228.5 4.32968 228.484 3.82129 228.484 3.82129C228.484 3.82129 228.493 4.32794 228.523 5.3197C229.161 33.2075 234.441 443.265 0 637.366C38.826 673.285 45.0736 652.651 78.095 615.203C78.095 665.642 66.9402 665.642 78.095 688.569C90.1456 652.651 100.409 655.708 116.473 615.203C125.4 661.057 116.473 668.699 116.473 703.09C143.25 665.642 166.009 661.057 190.552 615.203C202.97 645.947 174.934 681.691 186.982 710.732C199.479 681.691 196.355 673.285 208.848 652.651C220.006 681.691 220.006 706.147 233.839 731.366C237.857 691.626 230.27 696.212 233.839 665.642C263.74 681.691 275.342 714.553 307.917 722.195C294.978 661.821 293.639 671.756 289.176 652.651C312.828 690.862 323.538 709.968 339.157 714.553C336.033 678.634 347.19 672.521 355.669 649.594C355.669 683.984 383.783 677.106 383.783 719.138C403.866 713.789 397.617 693.155 397.617 665.642C419.037 665.642 439.565 696.976 465 696.976C244.037 392.188 229.306 31.3726 228.523 5.3197Z" fill="url(#paint0_linear_521_52)"/>
<path d="M80.3281 511.737C191.599 334.121 229.243 0.763672 229.243 0.763672C229.243 0.763672 280.975 375.244 403.418 511.737C351.581 493.363 337.728 511.737 323.873 453.99C316.724 511.737 341.748 528.361 334.598 586.108C314.491 559.859 310.022 529.236 295.274 493.363C275.166 511.737 286.783 546.735 286.783 604.482C261.76 559.859 279.635 544.985 253.268 485.488C228.243 526.611 238.523 549.36 221.54 586.108C213.498 538.86 217.52 511.737 221.54 453.99C201.879 473.239 191.599 511.737 191.599 616.731C164.342 542.36 175.96 518.736 179.087 462.739C150.489 511.737 167.917 521.361 133.508 542.36C129.486 525.736 138.87 511.737 129.486 485.488C116.528 503.862 102.227 520.486 80.3281 511.737Z" fill="url(#paint1_linear_521_52)"/>
<path d="M377.535 359.586C266.264 234.858 229.621 0.763672 229.621 0.763672C229.621 0.763672 176.888 263.736 54.4449 359.586C106.282 346.683 120.135 359.586 133.99 319.034C141.14 359.586 116.115 371.26 123.265 411.812C143.372 393.379 147.841 371.874 162.59 346.683C182.697 359.586 171.08 384.163 171.08 424.715C196.103 393.379 178.228 382.934 204.596 341.153C229.621 370.031 219.341 386.006 236.324 411.812C244.366 378.633 240.344 359.586 236.324 319.034C255.984 332.551 266.264 359.586 266.264 433.316C293.521 381.091 281.903 364.501 278.776 325.178C307.375 359.586 289.946 366.345 324.356 381.091C328.377 369.417 318.993 359.586 328.377 341.153C341.335 354.056 355.637 365.73 377.535 359.586Z" fill="url(#paint2_linear_521_52)"/>
<path d="M323.536 197.935C297.655 152.846 289.571 120.724 261.953 81.7724C239.194 49.6748 229.376 0 229.376 0C229.376 0 176.272 81.7724 130.753 161.252C144.96 167.298 145.926 172.715 168.239 161.252C156.636 181.122 151.727 197.935 136.108 210.163C165.561 220.862 172.255 191.821 188.766 210.163C183.411 224.683 180.736 249.138 183.413 276.65C208.405 238.439 208.404 222.39 221.79 210.163C229.376 230.033 221.79 249.902 236.07 292.699C246.334 239.203 238.749 221.626 249.457 197.935C261.953 210.163 277.127 208.634 297.653 228.504C289.621 202.52 275.788 186.472 286.051 181.122C297.209 197.935 305.241 184.943 323.536 197.935Z" fill="url(#paint3_linear_521_52)"/>
</g>
<g filter="url(#filter1_ii_521_52)">
<g clip-path="url(#clip1_521_52)">
<rect width="94" height="215" transform="translate(382 567)" fill="#3F2A20"/>
<path fill-rule="evenodd" clip-rule="evenodd" d="M482.525 765.073L457.492 715.007C452.527 705.077 451.364 693.676 454.221 682.948L471.031 619.833C474.417 607.119 473.089 593.609 467.292 581.797L456.425 559.651C451.147 548.896 440.633 541.681 428.699 540.625C405.856 538.604 387.519 559.168 392.135 581.631L404.795 643.244C405.877 648.51 406.019 653.907 405.213 659.22C402.502 677.097 398.961 700.53 396.097 719.679C394.666 729.253 393.403 737.761 392.497 743.969C392.045 747.072 391.681 749.609 391.429 751.419C391.303 752.323 391.204 753.059 391.135 753.599C391.133 753.621 391.13 753.643 391.127 753.667C391.081 754.025 391 764.658 391 765.085H400C400 765.2 399.997 765.278 399.997 765.278C400 765.278 400.013 755.132 400.064 754.734C400.126 754.246 400.219 753.55 400.343 752.658C400.591 750.878 400.952 748.365 401.403 745.268C402.306 739.076 403.567 730.581 404.998 721.01C407.86 701.87 411.4 678.444 414.112 660.57C415.077 654.204 414.906 647.737 413.611 641.432L400.95 579.82C397.548 563.26 411.066 548.1 427.906 549.59C436.703 550.369 444.454 555.688 448.345 563.616L459.213 585.762C464.052 595.623 465.161 606.902 462.334 617.517L445.524 680.632C442.102 693.481 443.495 707.138 449.442 719.031L474.475 769.098L482.525 765.073Z" fill="#513F38"/>
<path d="M493.002 790.292L488.551 711.395C488.537 711.137 488.528 711 488.528 711L488.551 711.395C488.781 715.676 490.523 753.222 480.528 750.5C473.363 748.548 472.028 724.416 472.028 724.416C472.028 724.416 472.351 746.784 468.528 750.5C461.798 757.043 456.028 740.646 456.028 740.646C456.028 740.646 455.255 750.847 449.825 756.877C440.294 767.459 434.261 724.416 434.261 724.416C434.261 724.416 436.535 754.071 425.224 767.379C404.078 792.259 394.097 691 394.097 691C394.599 705.957 396.607 740.646 396.607 740.646C396.607 740.646 393.595 739.691 391.586 736.827C391.586 736.827 388.407 771.357 385.562 759.741C382.717 748.125 377.027 725.466 377.027 727.757C377.027 730.049 381.043 779.949 383.051 804.613L490.994 807L493.002 790.292Z" fill="#312119"/>
</g>
<path d="M426.502 123.675C426.495 122.608 426.484 122.058 426.484 122.058C426.484 122.058 426.484 122.606 426.502 123.675C426.667 149.444 424.112 476.597 191 631.043C229.826 659.787 236.074 643.274 269.095 613.308C269.095 653.671 257.94 653.671 269.095 672.018C281.146 643.274 291.409 645.721 307.473 613.308C316.4 650.002 307.473 656.117 307.473 683.638C334.25 653.671 357.009 650.002 381.552 613.308C393.97 637.91 365.934 666.514 377.982 689.753C390.479 666.514 387.355 659.787 399.848 643.274C411.006 666.514 411.006 686.084 424.839 706.265C428.857 674.464 421.27 678.134 424.839 653.671C454.74 666.514 466.342 692.811 498.917 698.927C485.978 650.613 484.639 658.563 480.176 643.274C503.828 673.853 514.538 689.142 530.157 692.811C527.033 664.068 538.19 659.175 546.669 640.828C546.669 668.349 574.783 662.844 574.783 696.48C594.866 692.199 588.617 675.687 588.617 653.671C610.037 653.671 630.565 678.745 656 678.745C436.373 436.318 426.91 147.763 426.502 123.675Z" fill="url(#paint4_linear_521_52)"/>
<path d="M575.672 530.511C464.401 388.376 427.757 121.611 427.757 121.611C427.757 121.611 375.025 421.284 252.582 530.511C304.419 515.807 318.272 530.511 332.127 484.299C339.276 530.511 314.252 543.814 321.402 590.025C341.509 569.02 345.978 544.514 360.726 515.807C380.834 530.511 369.217 558.517 369.217 604.729C394.24 569.02 376.365 557.117 402.732 509.505C427.757 542.413 417.477 560.618 434.46 590.025C442.502 552.216 438.48 530.511 434.46 484.299C454.121 499.703 464.401 530.511 464.401 614.531C491.658 555.017 480.04 536.112 476.913 491.301C505.511 530.511 488.083 538.212 522.492 555.017C526.514 541.713 517.13 530.511 526.514 509.505C539.472 524.209 553.773 537.512 575.672 530.511Z" fill="url(#paint5_linear_521_52)"/>
<path d="M278.465 408.754C389.736 308.942 426.379 121.611 426.379 121.611C426.379 121.611 479.112 332.051 601.555 408.754C549.718 398.429 535.865 408.754 522.01 376.303C514.86 408.754 539.885 418.096 532.735 450.547C512.628 435.796 508.159 418.588 493.41 398.429C473.303 408.754 484.92 428.421 484.92 460.872C459.897 435.796 477.772 427.438 451.404 394.003C426.379 417.113 436.659 429.896 419.676 450.547C411.634 423.996 415.656 408.754 419.676 376.303C400.016 387.12 389.736 408.754 389.736 467.756C362.479 425.963 374.097 412.687 377.224 381.22C348.625 408.754 366.054 414.162 331.644 425.963C327.623 416.621 337.007 408.754 327.623 394.003C314.665 404.329 300.363 413.671 278.465 408.754Z" fill="url(#paint6_linear_521_52)"/>
<path d="M332.464 279.395C358.345 243.313 366.429 217.607 394.047 186.437C416.806 160.752 426.624 121 426.624 121C426.624 121 479.728 186.437 525.247 250.04C511.04 254.878 510.074 259.213 487.761 250.04C499.364 265.94 504.273 279.395 519.892 289.18C490.439 297.742 483.745 274.502 467.234 289.18C472.589 300.799 475.264 320.369 472.587 342.386C447.595 311.808 447.596 298.965 434.21 289.18C426.624 305.08 434.21 320.981 419.93 355.229C409.666 312.419 417.251 298.353 406.543 279.395C394.047 289.18 378.873 287.957 358.347 303.857C366.379 283.064 380.212 270.221 369.949 265.94C358.791 279.395 350.759 268.998 332.464 279.395Z" fill="url(#paint7_linear_521_52)"/>
</g>
<g filter="url(#filter2_ii_521_52)">
<g clip-path="url(#clip2_521_52)">
<rect width="105" height="189" transform="translate(265 646)" fill="#3F2A20"/>
<path fill-rule="evenodd" clip-rule="evenodd" d="M365.525 844.073L340.492 794.007C335.527 784.077 334.364 772.676 337.221 761.948L354.031 698.833C357.417 686.119 356.089 672.609 350.292 660.797L339.425 638.651C334.147 627.896 323.633 620.681 311.699 619.625C288.856 617.604 270.519 638.168 275.135 660.631L287.795 722.244C288.877 727.51 289.019 732.907 288.213 738.22C285.502 756.097 281.961 779.53 279.097 798.679C277.666 808.253 276.403 816.761 275.497 822.969C275.045 826.072 274.681 828.609 274.429 830.419C274.303 831.323 274.204 832.059 274.135 832.599C274.133 832.621 274.13 832.643 274.127 832.667C274.081 833.025 274 843.658 274 844.085H283C283 844.2 282.997 844.278 282.997 844.278C283 844.278 283.013 834.132 283.064 833.734C283.126 833.246 283.219 832.55 283.343 831.658C283.591 829.878 283.952 827.365 284.403 824.268C285.306 818.076 286.567 809.581 287.998 800.01C290.86 780.87 294.4 757.444 297.112 739.57C298.077 733.204 297.906 726.737 296.611 720.432L283.95 658.82C280.548 642.26 294.066 627.1 310.906 628.59C319.703 629.369 327.454 634.688 331.345 642.616L342.213 664.762C347.052 674.623 348.161 685.902 345.334 696.517L328.524 759.632C325.102 772.481 326.495 786.138 332.442 798.031L357.475 848.098L365.525 844.073Z" fill="#513F38"/>
<path d="M260.026 849.292L264.478 770.395C264.492 770.137 264.5 770 264.5 770L264.478 770.395C264.247 774.676 262.506 812.222 272.5 809.5C279.665 807.548 281 783.416 281 783.416C281 783.416 280.677 805.784 284.5 809.5C291.23 816.043 297 799.646 297 799.646C297 799.646 297.773 809.847 303.203 815.877C312.734 826.459 318.767 783.416 318.767 783.416C318.767 783.416 316.493 813.071 327.804 826.379C348.95 851.259 358.932 750 358.932 750C358.43 764.957 356.421 799.646 356.421 799.646C356.421 799.646 359.434 798.691 361.442 795.827C361.442 795.827 364.622 830.357 367.467 818.741C370.312 807.125 376.002 784.466 376.002 786.757C376.002 789.049 371.985 838.949 369.977 863.613L262.035 866L260.026 849.292Z" fill="#312119"/>
</g>
<path d="M315.958 284.98C315.983 284.333 316.002 284 316.002 284C316.002 284 315.991 284.331 315.958 284.98C315.243 303.226 309.327 571.508 572.002 698.5C528.5 722 521.5 708.5 484.502 684C484.502 717 497 717 484.502 732C471 708.5 459.5 710.5 441.502 684C431.5 714 441.502 719 441.502 741.5C411.5 717 386 714 358.502 684C344.588 704.114 376 727.5 362.502 746.5C348.5 727.5 352 722 338.002 708.5C325.5 727.5 325.5 743.5 310.002 760C305.5 734 314 737 310.002 717C276.5 727.5 263.5 749 227.002 754C241.5 714.5 243 721 248 708.5C221.5 733.5 209.5 746 192 749C195.5 725.5 183 721.5 173.5 706.5C173.5 729 142 724.5 142 752C119.498 748.5 126.5 735 126.5 717C102.5 717 79.5 737.5 51.002 737.5C298.576 538.091 315.08 302.026 315.958 284.98Z" fill="url(#paint8_linear_521_52)"/>
<path d="M482 616.307C357.328 500.101 320.272 282 320.272 282C320.272 282 257.189 527.006 120 616.307C178.08 604.286 193.601 616.307 209.124 578.526C217.135 616.307 189.097 627.183 197.108 664.964C219.637 647.791 224.644 627.756 241.169 604.286C263.698 616.307 250.682 639.205 250.682 676.986C278.718 647.791 258.691 638.06 288.233 599.134C316.272 626.038 304.754 640.922 323.782 664.964C332.793 634.053 328.287 616.307 323.782 578.526C345.811 591.119 357.328 616.307 357.328 685C387.869 636.342 374.851 620.886 371.348 584.25C403.39 616.307 383.863 622.604 422.416 636.342C426.922 625.466 416.408 616.307 426.922 599.134C441.44 611.155 457.464 622.031 482 616.307Z" fill="url(#paint9_linear_521_52)"/>
<path d="M149 516.761C273.672 435.158 319.728 282 319.728 282C319.728 282 373.811 454.051 511 516.761C452.92 508.32 437.399 516.761 421.876 490.23C413.865 516.761 441.903 524.399 433.892 550.93C411.363 538.871 406.356 524.801 389.831 508.32C367.302 516.761 380.318 532.841 380.318 559.372C352.282 538.871 372.309 532.037 342.767 504.702C314.728 523.595 326.246 534.047 307.218 550.93C298.207 529.223 302.713 516.761 307.218 490.23C285.189 499.074 273.672 516.761 273.672 565C243.131 530.831 256.149 519.977 259.652 494.25C227.61 516.761 247.137 521.183 208.584 530.831C204.078 523.193 214.592 516.761 204.078 504.702C189.56 513.143 173.536 520.781 149 516.761Z" fill="url(#paint10_linear_521_52)"/>
<path d="M425.502 411C396.503 381.5 387.446 360.484 356.502 335C331.003 314 320.002 281.5 320.002 281.5C320.002 281.5 260.502 335 209.502 387C225.42 390.956 226.502 394.5 251.502 387C238.502 400 233.002 411 215.502 419C248.502 426 256.002 407 274.502 419C268.502 428.5 265.504 444.5 268.504 462.5C296.506 437.5 296.504 427 311.502 419C320.002 432 311.502 445 327.502 473C339.002 438 330.504 426.5 342.502 411C356.502 419 373.504 418 396.502 431C387.502 414 372.004 403.5 383.502 400C396.004 411 405.004 402.5 425.502 411Z" fill="url(#paint11_linear_521_52)"/>
</g>
<defs>
<filter id="filter0_ii_521_52" x="-72" y="0" width="562" height="822" filterUnits="userSpaceOnUse" color-interpolation-filters="sRGB">
<feFlood flood-opacity="0" result="BackgroundImageFix"/>
<feBlend mode="normal" in="SourceGraphic" in2="BackgroundImageFix" result="shape"/>
<feColorMatrix in="SourceAlpha" type="matrix" values="0 0 0 0 0 0 0 0 0 0 0 0 0 0 0 0 0 0 127 0" result="hardAlpha"/>
<feOffset dx="25" dy="50"/>
<feGaussianBlur stdDeviation="25"/>
<feComposite in2="hardAlpha" operator="arithmetic" k2="-1" k3="1"/>
<feColorMatrix type="matrix" values="0 0 0 0 1 0 0 0 0 1 0 0 0 0 1 0 0 0 0.25 0"/>
<feBlend mode="normal" in2="shape" result="effect1_innerShadow_521_52"/>
<feColorMatrix in="SourceAlpha" type="matrix" values="0 0 0 0 0 0 0 0 0 0 0 0 0 0 0 0 0 0 127 0" result="hardAlpha"/>
<feOffset dx="-72" dy="4"/>
<feGaussianBlur stdDeviation="50"/>
<feComposite in2="hardAlpha" operator="arithmetic" k2="-1" k3="1"/>
<feColorMatrix type="matrix" values="0 0 0 0 0 0 0 0 0 0 0 0 0 0 0 0 0 0 0.5 0"/>
<feBlend mode="normal" in2="effect1_innerShadow_521_52" result="effect2_innerShadow_521_52"/>
</filter>
<filter id="filter1_ii_521_52" x="119" y="121" width="562" height="711" filterUnits="userSpaceOnUse" color-interpolation-filters="sRGB">
<feFlood flood-opacity="0" result="BackgroundImageFix"/>
<feBlend mode="normal" in="SourceGraphic" in2="BackgroundImageFix" result="shape"/>
<feColorMatrix in="SourceAlpha" type="matrix" values="0 0 0 0 0 0 0 0 0 0 0 0 0 0 0 0 0 0 127 0" result="hardAlpha"/>
<feOffset dx="25" dy="50"/>
<feGaussianBlur stdDeviation="25"/>
<feComposite in2="hardAlpha" operator="arithmetic" k2="-1" k3="1"/>
<feColorMatrix type="matrix" values="0 0 0 0 1 0 0 0 0 1 0 0 0 0 1 0 0 0 0.25 0"/>
<feBlend mode="normal" in2="shape" result="effect1_innerShadow_521_52"/>
<feColorMatrix in="SourceAlpha" type="matrix" values="0 0 0 0 0 0 0 0 0 0 0 0 0 0 0 0 0 0 127 0" result="hardAlpha"/>
<feOffset dx="-72" dy="4"/>
<feGaussianBlur stdDeviation="50"/>
<feComposite in2="hardAlpha" operator="arithmetic" k2="-1" k3="1"/>
<feColorMatrix type="matrix" values="0 0 0 0 0 0 0 0 0 0 0 0 0 0 0 0 0 0 0.5 0"/>
<feBlend mode="normal" in2="effect1_innerShadow_521_52" result="effect2_innerShadow_521_52"/>
</filter>
<filter id="filter2_ii_521_52" x="-20.998" y="281.5" width="643" height="603.5" filterUnits="userSpaceOnUse" color-interpolation-filters="sRGB">
<feFlood flood-opacity="0" result="BackgroundImageFix"/>
<feBlend mode="normal" in="SourceGraphic" in2="BackgroundImageFix" result="shape"/>
<feColorMatrix in="SourceAlpha" type="matrix" values="0 0 0 0 0 0 0 0 0 0 0 0 0 0 0 0 0 0 127 0" result="hardAlpha"/>
<feOffset dx="50" dy="50"/>
<feGaussianBlur stdDeviation="50"/>
<feComposite in2="hardAlpha" operator="arithmetic" k2="-1" k3="1"/>
<feColorMatrix type="matrix" values="0 0 0 0 1 0 0 0 0 1 0 0 0 0 1 0 0 0 0.25 0"/>
<feBlend mode="normal" in2="shape" result="effect1_innerShadow_521_52"/>
<feColorMatrix in="SourceAlpha" type="matrix" values="0 0 0 0 0 0 0 0 0 0 0 0 0 0 0 0 0 0 127 0" result="hardAlpha"/>
<feOffset dx="-72" dy="4"/>
<feGaussianBlur stdDeviation="100"/>
<feComposite in2="hardAlpha" operator="arithmetic" k2="-1" k3="1"/>
<feColorMatrix type="matrix" values="0 0 0 0 0 0 0 0 0 0 0 0 0 0 0 0 0 0 0.25 0"/>
<feBlend mode="normal" in2="effect1_innerShadow_521_52" result="effect2_innerShadow_521_52"/>
</filter>
<linearGradient id="paint0_linear_521_52" x1="232.5" y1="-26.7478" x2="232.5" y2="731.366" gradientUnits="userSpaceOnUse">
<stop offset="0.753125" stop-color="#1C3D2A"/>
<stop offset="1" stop-color="#1F452E"/>
</linearGradient>
<linearGradient id="paint1_linear_521_52" x1="241.873" y1="0.763672" x2="241.873" y2="616.731" gradientUnits="userSpaceOnUse">
<stop offset="0.607292" stop-color="#234F36"/>
<stop offset="1" stop-color="#2C6344"/>
</linearGradient>
<linearGradient id="paint2_linear_521_52" x1="215.99" y1="0.763672" x2="215.99" y2="433.316" gradientUnits="userSpaceOnUse">
<stop offset="0.565625" stop-color="#295E3F"/>
<stop offset="1" stop-color="#357653"/>
</linearGradient>
<linearGradient id="paint3_linear_521_52" x1="184.752" y1="80.2439" x2="334.505" y2="167.69" gradientUnits="userSpaceOnUse">
<stop offset="0.258333" stop-color="#357753"/>
<stop offset="1" stop-color="#48A272"/>
</linearGradient>
<linearGradient id="paint4_linear_521_52" x1="423.5" y1="99.5951" x2="423.5" y2="706.265" gradientUnits="userSpaceOnUse">
<stop offset="0.753125" stop-color="#1C3D2A"/>
<stop offset="1" stop-color="#1F452E"/>
</linearGradient>
<linearGradient id="paint5_linear_521_52" x1="414.127" y1="121.611" x2="414.127" y2="614.531" gradientUnits="userSpaceOnUse">
<stop offset="0.607292" stop-color="#234F36"/>
<stop offset="1" stop-color="#2C6344"/>
</linearGradient>
<linearGradient id="paint6_linear_521_52" x1="440.01" y1="121.611" x2="440.01" y2="467.756" gradientUnits="userSpaceOnUse">
<stop offset="0.565625" stop-color="#295E3F"/>
<stop offset="1" stop-color="#357653"/>
</linearGradient>
<linearGradient id="paint7_linear_521_52" x1="471.248" y1="185.214" x2="340.207" y2="280.835" gradientUnits="userSpaceOnUse">
<stop offset="0.258333" stop-color="#357753"/>
<stop offset="1" stop-color="#48A272"/>
</linearGradient>
<linearGradient id="paint8_linear_521_52" x1="311.502" y1="264" x2="311.502" y2="760" gradientUnits="userSpaceOnUse">
<stop offset="0.753125" stop-color="#1C3D2A"/>
<stop offset="1" stop-color="#1F452E"/>
</linearGradient>
<linearGradient id="paint9_linear_521_52" x1="301" y1="282" x2="301" y2="685" gradientUnits="userSpaceOnUse">
<stop offset="0.607292" stop-color="#234F36"/>
<stop offset="1" stop-color="#2C6344"/>
</linearGradient>
<linearGradient id="paint10_linear_521_52" x1="330" y1="282" x2="330" y2="565" gradientUnits="userSpaceOnUse">
<stop offset="0.565625" stop-color="#295E3F"/>
<stop offset="1" stop-color="#357653"/>
</linearGradient>
<linearGradient id="paint11_linear_521_52" x1="270.004" y1="334" x2="382.504" y2="446.5" gradientUnits="userSpaceOnUse">
<stop offset="0.258333" stop-color="#357753"/>
<stop offset="1" stop-color="#48A272"/>
</linearGradient>
<clipPath id="clip0_521_52">
<rect width="94" height="215" fill="white" transform="matrix(-1 0 0 1 274 557)"/>
</clipPath>
<clipPath id="clip1_521_52">
<rect width="94" height="215" fill="white" transform="translate(382 567)"/>
</clipPath>
<clipPath id="clip2_521_52">
<rect width="105" height="189" fill="white" transform="translate(265 646)"/>
</clipPath>
</defs>
</svg>
