<svg width="2597" height="2106" viewBox="0 0 2597 2106" fill="none" xmlns="http://www.w3.org/2000/svg">
<path d="M1331.46 1676.06C1338.5 1662.62 1355.11 1657.43 1368.55 1664.47V1664.47C1380.42 1670.69 1386.08 1684.56 1381.94 1697.3L1380.72 1701.06C1369.31 1736.19 1351.83 1769.06 1329.08 1798.16V1798.16C1321.41 1807.98 1307.83 1810.9 1296.8 1805.13L1295.43 1804.41C1281.91 1797.33 1276.69 1780.62 1283.77 1767.1L1331.46 1676.06Z" fill="#000055"/>
<path d="M706.976 1676.34C699.933 1662.9 683.326 1657.71 669.882 1664.75V1664.75C658.013 1670.97 652.358 1684.84 656.496 1697.58L657.716 1701.34C669.126 1736.47 686.602 1769.34 709.354 1798.44V1798.44C717.023 1808.25 730.607 1811.18 741.638 1805.41L743.004 1804.69C756.526 1797.61 761.745 1780.9 754.663 1767.38L706.976 1676.34Z" fill="#000055"/>
<rect x="816" y="1121" width="60" height="90" rx="30" fill="#000055"/>
<rect x="1162" y="1121" width="60" height="90" rx="30" fill="#000055"/>
<path fill-rule="evenodd" clip-rule="evenodd" d="M656.964 1520C656.964 1372.75 716.259 1242.33 807.437 1162H1234.49C1325.67 1242.33 1384.96 1372.75 1384.96 1520C1384.96 1667.25 1325.67 1797.67 1234.49 1878H807.437C716.259 1797.67 656.964 1667.25 656.964 1520Z" fill="#C95757"/>
<rect x="820.964" y="1180" width="396" height="682" stroke="black" stroke-width="10"/>
<path d="M1018.96 1176V1860" stroke="black" stroke-width="10"/>
<g filter="url(#filter0_i_515_250)">
<rect x="1033.96" y="1197" width="167" height="95" rx="5" fill="#D8ECFF"/>
</g>
<g filter="url(#filter1_i_515_250)">
<rect x="836.964" y="1197" width="167" height="95" rx="5" fill="#D8ECFF"/>
</g>
<g filter="url(#filter2_i_515_250)">
<rect x="1033.96" y="1304" width="167" height="273" rx="5" fill="#D8ECFF"/>
</g>
<g filter="url(#filter3_i_515_250)">
<rect x="836.964" y="1304" width="167" height="273" rx="5" fill="#D8ECFF"/>
</g>
<g filter="url(#filter4_i_515_250)">
<path d="M1238.46 1571V1211.93C1238.46 1207.36 1243.97 1205.21 1246.94 1208.68C1267.9 1233.16 1321.87 1299.61 1341.46 1356.5C1365.35 1425.86 1362.53 1546.2 1361.65 1571.32C1361.55 1573.99 1359.36 1576 1356.69 1576H1243.46C1240.7 1576 1238.46 1573.76 1238.46 1571Z" fill="#D8ECFF"/>
</g>
<g filter="url(#filter5_i_515_250)">
<path d="M800.728 1572V1212.93C800.728 1208.36 795.224 1206.21 792.252 1209.68C771.294 1234.16 717.32 1300.61 697.728 1357.5C673.84 1426.86 676.658 1547.2 677.542 1572.32C677.636 1574.99 679.826 1577 682.494 1577H795.728C798.489 1577 800.728 1574.76 800.728 1572Z" fill="#D8ECFF"/>
</g>
<path d="M2123.46 1316.56C2130.5 1303.12 2147.11 1297.93 2160.55 1304.97V1304.97C2172.42 1311.19 2178.08 1325.06 2173.94 1337.8L2172.72 1341.56C2161.31 1376.69 2143.83 1409.56 2121.08 1438.66V1438.66C2113.41 1448.48 2099.83 1451.4 2088.8 1445.63L2087.43 1444.91C2073.91 1437.83 2068.69 1421.12 2075.77 1407.6L2123.46 1316.56Z" fill="#000055"/>
<path d="M1498.98 1316.84C1491.93 1303.4 1475.33 1298.21 1461.88 1305.25V1305.25C1450.01 1311.47 1444.36 1325.34 1448.5 1338.08L1449.72 1341.84C1461.13 1376.97 1478.6 1409.84 1501.35 1438.94V1438.94C1509.02 1448.75 1522.61 1451.68 1533.64 1445.91L1535 1445.19C1548.53 1438.11 1553.75 1421.4 1546.66 1407.88L1498.98 1316.84Z" fill="#000055"/>
<rect x="1608" y="761.5" width="60" height="90" rx="30" fill="#000055"/>
<rect x="1954" y="761.5" width="60" height="90" rx="30" fill="#000055"/>
<path fill-rule="evenodd" clip-rule="evenodd" d="M1448.96 1160.5C1448.96 1013.25 1508.26 882.825 1599.44 802.5H2026.49C2117.67 882.825 2176.96 1013.25 2176.96 1160.5C2176.96 1307.75 2117.67 1438.17 2026.49 1518.5H1599.44C1508.26 1438.17 1448.96 1307.75 1448.96 1160.5Z" fill="#C95757"/>
<rect x="1612.96" y="820.5" width="396" height="682" stroke="black" stroke-width="10"/>
<path d="M1810.96 816.5V1500.5" stroke="black" stroke-width="10"/>
<g filter="url(#filter6_i_515_250)">
<rect x="1825.96" y="837.5" width="167" height="95" rx="5" fill="#D8ECFF"/>
</g>
<g filter="url(#filter7_i_515_250)">
<rect x="1628.96" y="837.5" width="167" height="95" rx="5" fill="#D8ECFF"/>
</g>
<g filter="url(#filter8_i_515_250)">
<rect x="1825.96" y="944.5" width="167" height="273" rx="5" fill="#D8ECFF"/>
</g>
<g filter="url(#filter9_i_515_250)">
<rect x="1628.96" y="944.5" width="167" height="273" rx="5" fill="#D8ECFF"/>
</g>
<g filter="url(#filter10_i_515_250)">
<path d="M2030.46 1211.5V852.427C2030.46 847.858 2035.97 845.709 2038.94 849.18C2059.9 873.655 2113.87 940.114 2133.46 997C2157.35 1066.36 2154.53 1186.7 2153.65 1211.82C2153.55 1214.49 2151.36 1216.5 2148.69 1216.5H2035.46C2032.7 1216.5 2030.46 1214.26 2030.46 1211.5Z" fill="#D8ECFF"/>
</g>
<g filter="url(#filter11_i_515_250)">
<path d="M1592.73 1212.5V853.427C1592.73 848.858 1587.22 846.709 1584.25 850.18C1563.29 874.655 1509.32 941.114 1489.73 998C1465.84 1067.36 1468.66 1187.7 1469.54 1212.82C1469.64 1215.49 1471.83 1217.5 1474.49 1217.5H1587.73C1590.49 1217.5 1592.73 1215.26 1592.73 1212.5Z" fill="#D8ECFF"/>
</g>
<path d="M845.5 1147L902.728 1137.09C979.505 1123.8 1058 1123.8 1134.77 1137.09L1192 1147" stroke="#000055" stroke-width="10"/>
<path d="M1637.5 787.5L1694.73 777.59C1771.5 764.296 1850 764.296 1926.77 777.59L1984 787.5" stroke="#000055" stroke-width="10"/>
<path fill-rule="evenodd" clip-rule="evenodd" d="M942 622C947.523 622 952 626.477 952 632V1026.52C952 1030.42 953.341 1034.2 955.799 1037.23L1026.77 1122.7C1030.25 1126.99 1028.5 1131 1021 1131C1013.5 1131 1009 1131 1003.5 1131L940.268 1049.83C934.919 1043.24 932 1035.01 932 1026.52V632C932 626.477 936.477 622 942 622Z" fill="#000055"/>
<path fill-rule="evenodd" clip-rule="evenodd" d="M1734 262.5C1739.52 262.5 1744 266.977 1744 272.5V667.022C1744 670.923 1745.34 674.705 1747.8 677.734L1818.77 763.199C1822.25 767.488 1820.5 771.5 1813 771.5C1805.5 771.5 1801 771.5 1795.5 771.5L1732.27 690.335C1726.92 683.743 1724 675.512 1724 667.022V272.5C1724 266.977 1728.48 262.5 1734 262.5Z" fill="#000055"/>
<path d="M3 750L2594 383.5" stroke="#000055" stroke-width="5" stroke-linecap="round"/>
<path d="M3 503.5L2594 137" stroke="#000055" stroke-width="5" stroke-linecap="round"/>
<rect x="841.114" y="622.395" width="204" height="27" rx="13.5" transform="rotate(-8.03737 841.114 622.395)" fill="#000055"/>
<rect x="1633.11" y="262.895" width="204" height="27" rx="13.5" transform="rotate(-8.03737 1633.11 262.895)" fill="#000055"/>
<circle cx="844" cy="611" r="17" fill="#000055" stroke="#000081" stroke-width="8"/>
<circle cx="1636" cy="251.5" r="17" fill="#000055" stroke="#000081" stroke-width="8"/>
<circle cx="886" cy="605" r="17" fill="#000055" stroke="#000081" stroke-width="8"/>
<circle cx="1678" cy="245.5" r="17" fill="#000055" stroke="#000081" stroke-width="8"/>
<circle cx="1028" cy="584" r="17" fill="#000055" stroke="#000081" stroke-width="8"/>
<circle cx="1820" cy="224.5" r="17" fill="#000055" stroke="#000081" stroke-width="8"/>
<circle cx="986" cy="590" r="17" fill="#000055" stroke="#000081" stroke-width="8"/>
<circle cx="1778" cy="230.5" r="17" fill="#000055" stroke="#000081" stroke-width="8"/>
<circle cx="924" cy="611" r="8" fill="#000081"/>
<circle cx="1716" cy="251.5" r="8" fill="#000081"/>
<circle cx="950" cy="607" r="8" fill="#000081"/>
<circle cx="1742" cy="247.5" r="8" fill="#000081"/>
<path d="M839.5 590L1026 563" stroke="#000055" stroke-width="5" stroke-linecap="round"/>
<path d="M1631.5 230.5L1818 203.5" stroke="#000055" stroke-width="5" stroke-linecap="round"/>
<path d="M934.5 577L936.5 601.5M936.5 601.5L912 605.5M936.5 601.5L961.5 597" stroke="#000055" stroke-width="5" stroke-linecap="round"/>
<path d="M1726.5 217.5L1728.5 242M1728.5 242L1704 246M1728.5 242L1753.5 237.5" stroke="#000055" stroke-width="5" stroke-linecap="round"/>
<defs>
<filter id="filter0_i_515_250" x="1033.96" y="1197" width="168" height="96" filterUnits="userSpaceOnUse" color-interpolation-filters="sRGB">
<feFlood flood-opacity="0" result="BackgroundImageFix"/>
<feBlend mode="normal" in="SourceGraphic" in2="BackgroundImageFix" result="shape"/>
<feColorMatrix in="SourceAlpha" type="matrix" values="0 0 0 0 0 0 0 0 0 0 0 0 0 0 0 0 0 0 127 0" result="hardAlpha"/>
<feOffset dx="4" dy="4"/>
<feGaussianBlur stdDeviation="0.5"/>
<feComposite in2="hardAlpha" operator="arithmetic" k2="-1" k3="1"/>
<feColorMatrix type="matrix" values="0 0 0 0 0 0 0 0 0 0 0 0 0 0 0 0 0 0 0.25 0"/>
<feBlend mode="normal" in2="shape" result="effect1_innerShadow_515_250"/>
</filter>
<filter id="filter1_i_515_250" x="836.964" y="1197" width="168" height="96" filterUnits="userSpaceOnUse" color-interpolation-filters="sRGB">
<feFlood flood-opacity="0" result="BackgroundImageFix"/>
<feBlend mode="normal" in="SourceGraphic" in2="BackgroundImageFix" result="shape"/>
<feColorMatrix in="SourceAlpha" type="matrix" values="0 0 0 0 0 0 0 0 0 0 0 0 0 0 0 0 0 0 127 0" result="hardAlpha"/>
<feOffset dx="4" dy="4"/>
<feGaussianBlur stdDeviation="0.5"/>
<feComposite in2="hardAlpha" operator="arithmetic" k2="-1" k3="1"/>
<feColorMatrix type="matrix" values="0 0 0 0 0 0 0 0 0 0 0 0 0 0 0 0 0 0 0.25 0"/>
<feBlend mode="normal" in2="shape" result="effect1_innerShadow_515_250"/>
</filter>
<filter id="filter2_i_515_250" x="1033.96" y="1304" width="168" height="274" filterUnits="userSpaceOnUse" color-interpolation-filters="sRGB">
<feFlood flood-opacity="0" result="BackgroundImageFix"/>
<feBlend mode="normal" in="SourceGraphic" in2="BackgroundImageFix" result="shape"/>
<feColorMatrix in="SourceAlpha" type="matrix" values="0 0 0 0 0 0 0 0 0 0 0 0 0 0 0 0 0 0 127 0" result="hardAlpha"/>
<feOffset dx="4" dy="4"/>
<feGaussianBlur stdDeviation="0.5"/>
<feComposite in2="hardAlpha" operator="arithmetic" k2="-1" k3="1"/>
<feColorMatrix type="matrix" values="0 0 0 0 0 0 0 0 0 0 0 0 0 0 0 0 0 0 0.25 0"/>
<feBlend mode="normal" in2="shape" result="effect1_innerShadow_515_250"/>
</filter>
<filter id="filter3_i_515_250" x="836.964" y="1304" width="168" height="274" filterUnits="userSpaceOnUse" color-interpolation-filters="sRGB">
<feFlood flood-opacity="0" result="BackgroundImageFix"/>
<feBlend mode="normal" in="SourceGraphic" in2="BackgroundImageFix" result="shape"/>
<feColorMatrix in="SourceAlpha" type="matrix" values="0 0 0 0 0 0 0 0 0 0 0 0 0 0 0 0 0 0 127 0" result="hardAlpha"/>
<feOffset dx="4" dy="4"/>
<feGaussianBlur stdDeviation="0.5"/>
<feComposite in2="hardAlpha" operator="arithmetic" k2="-1" k3="1"/>
<feColorMatrix type="matrix" values="0 0 0 0 0 0 0 0 0 0 0 0 0 0 0 0 0 0 0.25 0"/>
<feBlend mode="normal" in2="shape" result="effect1_innerShadow_515_250"/>
</filter>
<filter id="filter4_i_515_250" x="1238.46" y="1206.96" width="124.764" height="370.037" filterUnits="userSpaceOnUse" color-interpolation-filters="sRGB">
<feFlood flood-opacity="0" result="BackgroundImageFix"/>
<feBlend mode="normal" in="SourceGraphic" in2="BackgroundImageFix" result="shape"/>
<feColorMatrix in="SourceAlpha" type="matrix" values="0 0 0 0 0 0 0 0 0 0 0 0 0 0 0 0 0 0 127 0" result="hardAlpha"/>
<feOffset dx="4" dy="4"/>
<feGaussianBlur stdDeviation="0.5"/>
<feComposite in2="hardAlpha" operator="arithmetic" k2="-1" k3="1"/>
<feColorMatrix type="matrix" values="0 0 0 0 0 0 0 0 0 0 0 0 0 0 0 0 0 0 0.25 0"/>
<feBlend mode="normal" in2="shape" result="effect1_innerShadow_515_250"/>
</filter>
<filter id="filter5_i_515_250" x="676.964" y="1207.96" width="124.764" height="370.037" filterUnits="userSpaceOnUse" color-interpolation-filters="sRGB">
<feFlood flood-opacity="0" result="BackgroundImageFix"/>
<feBlend mode="normal" in="SourceGraphic" in2="BackgroundImageFix" result="shape"/>
<feColorMatrix in="SourceAlpha" type="matrix" values="0 0 0 0 0 0 0 0 0 0 0 0 0 0 0 0 0 0 127 0" result="hardAlpha"/>
<feOffset dx="4" dy="4"/>
<feGaussianBlur stdDeviation="0.5"/>
<feComposite in2="hardAlpha" operator="arithmetic" k2="-1" k3="1"/>
<feColorMatrix type="matrix" values="0 0 0 0 0 0 0 0 0 0 0 0 0 0 0 0 0 0 0.25 0"/>
<feBlend mode="normal" in2="shape" result="effect1_innerShadow_515_250"/>
</filter>
<filter id="filter6_i_515_250" x="1825.96" y="837.5" width="168" height="96" filterUnits="userSpaceOnUse" color-interpolation-filters="sRGB">
<feFlood flood-opacity="0" result="BackgroundImageFix"/>
<feBlend mode="normal" in="SourceGraphic" in2="BackgroundImageFix" result="shape"/>
<feColorMatrix in="SourceAlpha" type="matrix" values="0 0 0 0 0 0 0 0 0 0 0 0 0 0 0 0 0 0 127 0" result="hardAlpha"/>
<feOffset dx="4" dy="4"/>
<feGaussianBlur stdDeviation="0.5"/>
<feComposite in2="hardAlpha" operator="arithmetic" k2="-1" k3="1"/>
<feColorMatrix type="matrix" values="0 0 0 0 0 0 0 0 0 0 0 0 0 0 0 0 0 0 0.25 0"/>
<feBlend mode="normal" in2="shape" result="effect1_innerShadow_515_250"/>
</filter>
<filter id="filter7_i_515_250" x="1628.96" y="837.5" width="168" height="96" filterUnits="userSpaceOnUse" color-interpolation-filters="sRGB">
<feFlood flood-opacity="0" result="BackgroundImageFix"/>
<feBlend mode="normal" in="SourceGraphic" in2="BackgroundImageFix" result="shape"/>
<feColorMatrix in="SourceAlpha" type="matrix" values="0 0 0 0 0 0 0 0 0 0 0 0 0 0 0 0 0 0 127 0" result="hardAlpha"/>
<feOffset dx="4" dy="4"/>
<feGaussianBlur stdDeviation="0.5"/>
<feComposite in2="hardAlpha" operator="arithmetic" k2="-1" k3="1"/>
<feColorMatrix type="matrix" values="0 0 0 0 0 0 0 0 0 0 0 0 0 0 0 0 0 0 0.25 0"/>
<feBlend mode="normal" in2="shape" result="effect1_innerShadow_515_250"/>
</filter>
<filter id="filter8_i_515_250" x="1825.96" y="944.5" width="168" height="274" filterUnits="userSpaceOnUse" color-interpolation-filters="sRGB">
<feFlood flood-opacity="0" result="BackgroundImageFix"/>
<feBlend mode="normal" in="SourceGraphic" in2="BackgroundImageFix" result="shape"/>
<feColorMatrix in="SourceAlpha" type="matrix" values="0 0 0 0 0 0 0 0 0 0 0 0 0 0 0 0 0 0 127 0" result="hardAlpha"/>
<feOffset dx="4" dy="4"/>
<feGaussianBlur stdDeviation="0.5"/>
<feComposite in2="hardAlpha" operator="arithmetic" k2="-1" k3="1"/>
<feColorMatrix type="matrix" values="0 0 0 0 0 0 0 0 0 0 0 0 0 0 0 0 0 0 0.25 0"/>
<feBlend mode="normal" in2="shape" result="effect1_innerShadow_515_250"/>
</filter>
<filter id="filter9_i_515_250" x="1628.96" y="944.5" width="168" height="274" filterUnits="userSpaceOnUse" color-interpolation-filters="sRGB">
<feFlood flood-opacity="0" result="BackgroundImageFix"/>
<feBlend mode="normal" in="SourceGraphic" in2="BackgroundImageFix" result="shape"/>
<feColorMatrix in="SourceAlpha" type="matrix" values="0 0 0 0 0 0 0 0 0 0 0 0 0 0 0 0 0 0 127 0" result="hardAlpha"/>
<feOffset dx="4" dy="4"/>
<feGaussianBlur stdDeviation="0.5"/>
<feComposite in2="hardAlpha" operator="arithmetic" k2="-1" k3="1"/>
<feColorMatrix type="matrix" values="0 0 0 0 0 0 0 0 0 0 0 0 0 0 0 0 0 0 0.25 0"/>
<feBlend mode="normal" in2="shape" result="effect1_innerShadow_515_250"/>
</filter>
<filter id="filter10_i_515_250" x="2030.46" y="847.463" width="124.764" height="370.037" filterUnits="userSpaceOnUse" color-interpolation-filters="sRGB">
<feFlood flood-opacity="0" result="BackgroundImageFix"/>
<feBlend mode="normal" in="SourceGraphic" in2="BackgroundImageFix" result="shape"/>
<feColorMatrix in="SourceAlpha" type="matrix" values="0 0 0 0 0 0 0 0 0 0 0 0 0 0 0 0 0 0 127 0" result="hardAlpha"/>
<feOffset dx="4" dy="4"/>
<feGaussianBlur stdDeviation="0.5"/>
<feComposite in2="hardAlpha" operator="arithmetic" k2="-1" k3="1"/>
<feColorMatrix type="matrix" values="0 0 0 0 0 0 0 0 0 0 0 0 0 0 0 0 0 0 0.25 0"/>
<feBlend mode="normal" in2="shape" result="effect1_innerShadow_515_250"/>
</filter>
<filter id="filter11_i_515_250" x="1468.96" y="848.463" width="124.764" height="370.037" filterUnits="userSpaceOnUse" color-interpolation-filters="sRGB">
<feFlood flood-opacity="0" result="BackgroundImageFix"/>
<feBlend mode="normal" in="SourceGraphic" in2="BackgroundImageFix" result="shape"/>
<feColorMatrix in="SourceAlpha" type="matrix" values="0 0 0 0 0 0 0 0 0 0 0 0 0 0 0 0 0 0 127 0" result="hardAlpha"/>
<feOffset dx="4" dy="4"/>
<feGaussianBlur stdDeviation="0.5"/>
<feComposite in2="hardAlpha" operator="arithmetic" k2="-1" k3="1"/>
<feColorMatrix type="matrix" values="0 0 0 0 0 0 0 0 0 0 0 0 0 0 0 0 0 0 0.25 0"/>
<feBlend mode="normal" in2="shape" result="effect1_innerShadow_515_250"/>
</filter>
</defs>
</svg>
