<svg width="775" height="776" viewBox="0 0 775 776" fill="none" xmlns="http://www.w3.org/2000/svg">
<g clip-path="url(#clip0_694_112)">
<path d="M485.996 346.073C466.548 321.766 451.281 303.703 454.694 272.768C458.004 242.772 471.897 223.08 498.731 209.278C539.982 188.061 575.245 218.499 611.047 248.013C656.066 285.123 672.783 384.046 672.783 384.046C672.783 384.046 532.503 404.199 485.996 346.073Z" fill="#396D34" stroke="black" stroke-width="6" stroke-linecap="round" stroke-linejoin="round"/>
<path d="M472.681 229.602C504.008 243.946 583.207 291.003 649.386 364.478" stroke="black" stroke-width="6" stroke-linecap="round" stroke-linejoin="round"/>
<path d="M604.225 367.466C609.917 356.122 617.221 330.361 600.89 318.076C584.56 305.791 595.596 311.178 603.155 315.408C610.887 321.751 629.252 330.866 640.853 316.578" stroke="black" stroke-width="6" stroke-linecap="round" stroke-linejoin="round"/>
<path d="M570.583 354.563C584 345.708 592.07 311.652 573.687 296.057C568.722 291.846 573.391 290.981 575.956 292.608C585.92 298.926 614.933 294.576 619.687 281.522" stroke="black" stroke-width="6" stroke-linecap="round" stroke-linejoin="round"/>
<path d="M544.78 330.876C550.35 315.49 550.612 287.768 533.028 268.151C523.965 258.039 525.205 260.122 535.523 264.391C546.384 271.341 571.276 280.227 583.963 260.178" stroke="black" stroke-width="6" stroke-linecap="round" stroke-linejoin="round"/>
<path d="M500.203 338.584C520.527 320.045 525.466 259.012 495.548 242.772C465.63 226.531 485.134 232.704 498.626 237.82C512.921 246.377 545.414 256.896 561.028 230.511" stroke="black" stroke-width="6" stroke-linecap="round" stroke-linejoin="round"/>
<path fill-rule="evenodd" clip-rule="evenodd" d="M386.304 322.083C386.304 322.083 386.304 322.083 385.097 321.78L386.304 322.083C385.429 325.564 381.898 327.679 378.416 326.804C374.934 325.93 372.821 322.398 373.695 318.916L380 320.5C373.695 318.916 373.696 318.914 373.697 318.91L373.712 318.852L373.755 318.681C373.793 318.531 373.849 318.312 373.924 318.025C374.072 317.451 374.292 316.607 374.584 315.511C375.168 313.32 376.039 310.121 377.19 306.068C379.492 297.962 382.921 286.431 387.437 272.686C396.461 245.222 409.862 208.81 427.341 173.21C444.775 137.699 466.485 102.537 492.291 77.9412C518.162 53.2831 548.942 38.5716 583.877 46.1476C638.323 57.9549 665.966 93.0905 684.006 137.07C692.964 158.91 699.647 183.122 706.121 207.862C707.049 211.406 707.972 214.962 708.897 218.525C714.463 239.959 720.101 261.668 727.168 282.952C764.581 395.622 738.254 544.335 703.288 663.793C685.743 723.73 665.9 776.702 650.445 814.687C642.716 833.684 636.08 848.944 631.372 859.464C629.017 864.725 627.144 868.801 625.857 871.568C625.214 872.952 624.716 874.008 624.379 874.722C624.21 875.079 624.081 875.35 623.993 875.533L623.893 875.742L623.867 875.797L623.86 875.812C623.858 875.816 623.857 875.818 618 873C612.142 870.182 612.143 870.18 612.143 870.18L612.148 870.17L612.17 870.124L612.261 869.934C612.314 869.823 612.384 869.676 612.471 869.493L612.628 869.16C612.954 868.472 613.439 867.442 614.07 866.086C615.332 863.373 617.178 859.354 619.506 854.154C624.161 843.753 630.737 828.631 638.404 809.788C653.741 772.093 673.422 719.548 690.811 660.141C725.711 540.911 750.884 395.624 714.831 287.048C707.616 265.32 701.858 243.143 696.298 221.73C695.376 218.181 694.461 214.654 693.544 211.153C687.066 186.395 680.571 162.951 671.978 142.003C654.916 100.408 629.961 69.4436 581.122 58.8523C551.958 52.5278 525.376 64.366 501.26 87.3515C477.079 110.399 456.176 143.975 439.01 178.939C421.888 213.814 408.701 249.615 399.788 276.744C395.335 290.297 391.957 301.658 389.695 309.62C388.565 313.601 387.713 316.731 387.146 318.858C386.863 319.922 386.65 320.736 386.51 321.279C386.439 321.551 386.387 321.756 386.353 321.891L386.315 322.04L386.304 322.083ZM615.181 878.857C611.946 877.301 610.586 873.417 612.142 870.182L618 873L623.857 875.818C622.3 879.053 618.416 880.414 615.181 878.857Z" fill="#438F08"/>
<path d="M386.304 322.083C386.304 322.083 386.304 322.083 385.097 321.78L386.304 322.083ZM386.304 322.083C385.429 325.564 381.898 327.679 378.416 326.804C374.934 325.93 372.821 322.398 373.695 318.916L380 320.5C373.695 318.916 373.696 318.914 373.697 318.91L373.712 318.852L373.755 318.681C373.793 318.531 373.849 318.312 373.924 318.025C374.072 317.451 374.292 316.607 374.584 315.511C375.168 313.32 376.039 310.121 377.19 306.068C379.492 297.962 382.921 286.431 387.437 272.686C396.461 245.222 409.862 208.81 427.341 173.21C444.775 137.699 466.485 102.537 492.291 77.9412C518.162 53.2831 548.942 38.5716 583.877 46.1476C638.323 57.9549 665.966 93.0905 684.006 137.07C692.964 158.91 699.647 183.122 706.121 207.862C707.049 211.406 707.972 214.962 708.897 218.525C714.463 239.959 720.101 261.668 727.168 282.952C764.581 395.622 738.254 544.335 703.288 663.793C685.743 723.73 665.9 776.702 650.445 814.687C642.716 833.684 636.08 848.944 631.372 859.464C629.017 864.725 627.144 868.801 625.857 871.568C625.214 872.952 624.716 874.008 624.379 874.722C624.21 875.079 624.081 875.35 623.993 875.533L623.893 875.742L623.867 875.797L623.86 875.812C623.858 875.816 623.857 875.818 618 873M386.304 322.083L386.315 322.04L386.353 321.891C386.387 321.756 386.439 321.551 386.51 321.279C386.65 320.736 386.863 319.922 387.146 318.858C387.713 316.731 388.565 313.601 389.695 309.62C391.957 301.658 395.335 290.297 399.788 276.744C408.701 249.615 421.888 213.814 439.01 178.939C456.176 143.975 477.079 110.399 501.26 87.3515C525.376 64.366 551.958 52.5278 581.122 58.8523C629.961 69.4436 654.916 100.408 671.978 142.003C680.571 162.951 687.066 186.395 693.544 211.153C694.461 214.654 695.376 218.181 696.298 221.73C701.858 243.143 707.616 265.32 714.831 287.048C750.884 395.624 725.711 540.911 690.811 660.141C673.422 719.548 653.741 772.093 638.404 809.788C630.737 828.631 624.161 843.753 619.506 854.154C617.178 859.354 615.332 863.373 614.07 866.086C613.439 867.442 612.954 868.472 612.628 869.16L612.471 869.493C612.384 869.676 612.314 869.823 612.261 869.934L612.17 870.124L612.148 870.17L612.143 870.18C612.143 870.18 612.142 870.182 618 873M618 873L612.142 870.182C610.586 873.417 611.946 877.301 615.181 878.857C618.416 880.414 622.3 879.053 623.857 875.818L618 873Z" stroke="black" stroke-width="6" stroke-linecap="round" stroke-linejoin="round"/>
<circle cx="380" cy="317" r="60" fill="#C9CB76"/>
<path d="M288 195.5C288 256.5 337.996 293 337.996 293C337.996 293 350.409 274.619 373.996 274.5C396.425 274.388 411.498 288 411.498 288C411.498 288 451.428 293.212 489.5 227C524 167 509.5 131.5 480 117C449.104 101.814 415.5 127 401.498 127C393 127 380.5 105 350 105C314.706 105 288 118.5 288 195.5Z" fill="url(#paint0_radial_694_112)" stroke="black" stroke-width="6" stroke-linecap="round" stroke-linejoin="round"/>
<path d="M520.362 361.995C481.438 315.027 419.653 318.826 419.653 318.826C419.653 318.826 421.825 340.899 403.739 356.042C386.542 370.44 366.25 369.577 366.25 369.577C366.25 369.577 332.18 391.043 345.115 466.317C356.837 534.529 390.654 552.61 422.62 544.951C456.099 536.929 465.902 496.094 476.683 487.159C483.226 481.737 506.888 490.7 530.372 471.238C557.547 448.717 569.495 421.281 520.362 361.995Z" fill="url(#paint1_radial_694_112)" stroke="black" stroke-width="6" stroke-linecap="round" stroke-linejoin="round"/>
<path d="M478.45 203.461C418.733 215.904 393.199 272.295 393.199 272.295C393.199 272.295 413.726 280.696 418.653 303.764C423.339 325.698 413.087 343.231 413.087 343.231C413.087 343.231 416.13 383.385 488.716 407.15C554.492 428.685 586.288 407.248 594.465 375.411C603.03 342.067 571.518 314.307 568.662 300.599C566.929 292.28 585.916 275.555 579.694 245.697C572.495 211.144 553.831 187.754 478.45 203.461Z" fill="url(#paint2_radial_694_112)" stroke="black" stroke-width="6" stroke-linecap="round" stroke-linejoin="round"/>
<path d="M272.794 207.461C332.511 219.904 358.045 276.295 358.045 276.295C358.045 276.295 337.519 284.696 332.591 307.764C327.905 329.698 338.157 347.231 338.157 347.231C338.157 347.231 335.114 387.385 262.528 411.15C196.752 432.685 164.956 411.248 156.779 379.411C148.215 346.067 179.726 318.307 182.582 304.599C184.316 296.28 165.328 279.555 171.55 249.697C178.75 215.144 197.413 191.754 272.794 207.461Z" fill="url(#paint3_radial_694_112)" stroke="black" stroke-width="6" stroke-linecap="round" stroke-linejoin="round"/>
<path d="M368.644 477.391C406.684 429.704 390.362 369.993 390.362 369.993C390.362 369.993 369.196 376.622 350.682 362.005C333.079 348.107 329.785 328.066 329.785 328.066C329.785 328.066 301.819 299.091 230.767 327.109C166.381 352.499 155.578 389.293 169.597 419.025C184.279 450.163 226.256 451.43 237.202 460.162C243.844 465.461 239.897 490.454 263.74 509.474C291.331 531.484 320.627 537.585 368.644 477.391Z" fill="url(#paint4_radial_694_112)" stroke="black" stroke-width="6" stroke-linecap="round" stroke-linejoin="round"/>
<path d="M383 278.5C383 286.048 380.663 292.77 377.025 297.54C373.388 302.308 368.579 305 363.5 305C358.421 305 353.612 302.308 349.975 297.54C346.337 292.77 344 286.048 344 278.5C344 270.952 346.337 264.23 349.975 259.46C353.612 254.692 358.421 252 363.5 252C368.579 252 373.388 254.692 377.025 259.46C380.663 264.23 383 270.952 383 278.5Z" fill="#FFE600" stroke="black" stroke-width="6"/>
<path d="M376 348C376 332.888 385.394 322 395.5 322C405.606 322 415 332.888 415 348C415 363.112 405.606 374 395.5 374C385.394 374 376 363.112 376 348Z" fill="#FFE600" stroke="black" stroke-width="6"/>
<path d="M426.809 302.7C421.124 307.552 414.551 310.102 408.604 310.411C402.661 310.72 397.516 308.807 394.224 304.949C390.932 301.092 389.85 295.711 391.089 289.89C392.328 284.065 395.879 277.974 401.563 273.122C407.247 268.271 413.821 265.721 419.768 265.412C425.711 265.103 430.856 267.016 434.148 270.873C437.44 274.731 438.522 280.112 437.283 285.933C436.043 291.758 432.493 297.849 426.809 302.7Z" fill="#FFE600" stroke="black" stroke-width="6"/>
<path d="M332.191 323.45C337.876 318.599 344.449 316.049 350.396 315.739C356.339 315.43 361.484 317.344 364.776 321.201C368.068 325.058 369.15 330.44 367.911 336.261C366.672 342.085 363.121 348.177 357.437 353.028C351.753 357.88 345.179 360.43 339.232 360.739C333.289 361.048 328.144 359.134 324.852 355.277C321.56 351.42 320.478 346.038 321.717 340.218C322.957 334.393 326.507 328.302 332.191 323.45Z" fill="#FFE600" stroke="black" stroke-width="6"/>
<path d="M696.845 708.925C716.698 684.948 732.266 667.144 729.373 636.156C726.567 606.109 713.007 586.186 686.408 571.935C645.519 550.029 609.75 579.871 573.457 608.78C527.822 645.129 509.447 743.757 509.447 743.757C509.447 743.757 649.368 766.262 696.845 708.925Z" fill="#396D34" stroke="black" stroke-width="6" stroke-linecap="round" stroke-linejoin="round"/>
<path d="M712.112 592.694C680.549 606.51 600.571 652.231 533.168 724.585" stroke="black" stroke-width="6" stroke-linecap="round" stroke-linejoin="round"/>
<path d="M578.273 728.331C572.772 716.892 565.902 691.013 582.436 679.004C598.971 666.995 587.846 672.196 580.217 676.297C572.379 682.51 553.864 691.315 542.505 676.835" stroke="black" stroke-width="6" stroke-linecap="round" stroke-linejoin="round"/>
<path d="M612.127 715.994C598.861 706.915 591.364 672.728 610.006 657.445C615.041 653.317 610.388 652.374 607.795 653.958C597.727 660.107 568.791 655.271 564.257 642.139" stroke="black" stroke-width="6" stroke-linecap="round" stroke-linejoin="round"/>
<path d="M638.324 692.744C633.014 677.266 633.217 649.544 651.127 630.224C660.359 620.266 659.084 622.328 648.696 626.423C637.721 633.19 612.683 641.657 600.334 621.397" stroke="black" stroke-width="6" stroke-linecap="round" stroke-linejoin="round"/>
<path d="M682.766 701.199C662.756 682.321 658.842 621.214 689.028 605.478C719.214 589.742 699.61 595.586 686.034 600.475C671.597 608.791 638.932 618.763 623.763 592.12" stroke="black" stroke-width="6" stroke-linecap="round" stroke-linejoin="round"/>
</g>
<defs>
<radialGradient id="paint0_radial_694_112" cx="0" cy="0" r="1" gradientUnits="userSpaceOnUse" gradientTransform="translate(378.111 300.03) rotate(-81.4909) scale(175.785 207.172)">
<stop stop-color="#1B00C1"/>
<stop offset="0.114583" stop-color="#5315B9"/>
<stop offset="0.380208" stop-color="#A858EB"/>
<stop offset="0.546875" stop-color="#A36FCF"/>
<stop offset="1" stop-color="#570099"/>
</radialGradient>
<radialGradient id="paint1_radial_694_112" cx="0" cy="0" r="1" gradientUnits="userSpaceOnUse" gradientTransform="translate(384.281 339.011) rotate(58.8592) scale(175.785 207.172)">
<stop stop-color="#1B00C1"/>
<stop offset="0.114583" stop-color="#5315B9"/>
<stop offset="0.380208" stop-color="#A858EB"/>
<stop offset="0.546875" stop-color="#A36FCF"/>
<stop offset="1" stop-color="#570099"/>
</radialGradient>
<radialGradient id="paint2_radial_694_112" cx="0" cy="0" r="1" gradientUnits="userSpaceOnUse" gradientTransform="translate(394.5 313) rotate(-3.26119) scale(175.785 207.172)">
<stop stop-color="#1B00C1"/>
<stop offset="0.114583" stop-color="#5315B9"/>
<stop offset="0.380208" stop-color="#A858EB"/>
<stop offset="0.546875" stop-color="#A36FCF"/>
<stop offset="1" stop-color="#570099"/>
</radialGradient>
<radialGradient id="paint3_radial_694_112" cx="0" cy="0" r="1" gradientUnits="userSpaceOnUse" gradientTransform="translate(356.744 317) rotate(-176.739) scale(175.785 207.172)">
<stop stop-color="#1B00C1"/>
<stop offset="0.114583" stop-color="#5315B9"/>
<stop offset="0.380208" stop-color="#A858EB"/>
<stop offset="0.546875" stop-color="#A36FCF"/>
<stop offset="1" stop-color="#570099"/>
</radialGradient>
<radialGradient id="paint4_radial_694_112" cx="0" cy="0" r="1" gradientUnits="userSpaceOnUse" gradientTransform="translate(363.386 339.482) rotate(137.089) scale(175.785 207.172)">
<stop stop-color="#1B00C1"/>
<stop offset="0.114583" stop-color="#5315B9"/>
<stop offset="0.380208" stop-color="#A858EB"/>
<stop offset="0.546875" stop-color="#A36FCF"/>
<stop offset="1" stop-color="#570099"/>
</radialGradient>
<clipPath id="clip0_694_112">
<rect width="775" height="776" fill="white"/>
</clipPath>
</defs>
</svg>
